<?xml version="1.0" encoding="UTF-8"?><svg id="uuid-206146fb-6e04-4ee1-959a-10eac3bb8555" xmlns="http://www.w3.org/2000/svg" viewBox="0 0 32 32"><path d="m9.3735.1108c-1.7024.0804-2.8652.353-3.8813.7512-1.0518.4101-1.9435.9596-2.8304,1.8502-.888.8911-1.4334,1.7844-1.8403,2.8372-.394,1.0187-.661,2.182-.7362,3.8855C.0107,11.1415-.0064,11.6858.0019,16.0306c.0083,4.3443.0275,4.8896.1088,6.5967.0814,1.7019.353,2.8642.7512,3.8808.4106,1.0518.9595,1.943,1.8507,2.8305.8906.8875,1.7843,1.4324,2.8377,1.8398,1.0176.3935,2.1814.6615,3.8844.7361,1.7066.0752,2.2514.0918,6.5951.0835,4.3458-.0083,4.8906-.0275,6.5972-.1084,1.7024-.0814,2.8641-.3541,3.8813-.7512,1.0518-.4116,1.9435-.9596,2.8304-1.8507.887-.8906,1.4323-1.7844,1.8393-2.8378.394-1.0176.662-2.1815.7361-3.8834.0746-1.7076.0923-2.253.084-6.5973-.0083-4.3448-.028-4.8891-.1088-6.5952-.0809-1.7035-.3536-2.8652-.7512-3.8824-.4111-1.0518-.9595-1.9425-1.8502-2.8305-.8906-.887-1.7843-1.4334-2.8377-1.8393-1.0181-.394-2.1814-.6625-3.8844-.7361C20.8592.0102,20.3144-.0064,15.9692.0019c-4.3442.0083-4.889.027-6.5956.1089m.1866,28.924c-1.5599-.0679-2.4069-.3271-2.9715-.5443-.7475-.2893-1.281-.6361-1.8424-1.1934-.5604-.5594-.9082-1.0913-1.2001-1.8372-.2193-.5646-.4832-1.4106-.5562-2.9705-.0793-1.6864-.0975-2.1923-.1052-6.4645-.0083-4.2712.0072-4.7771.0809-6.4651.0669-1.5589.3276-2.407.5443-2.971.2893-.7486.635-1.281,1.1934-1.8424.5593-.5614,1.0912-.9083,1.8377-1.2001.564-.2203,1.4101-.4821,2.9694-.5563,1.6874-.0798,2.1928-.0969,6.4639-.1052,4.2721-.0083,4.7781.0067,6.466.0809,1.5588.0679,2.4069.3261,2.9704.5443.748.2893,1.2815.634,1.8424,1.1934.5609.5594.9088,1.0902,1.2006,1.8383.2203.5625.4821,1.4095.5557,2.9684.0803,1.6874.0985,2.1934.1062,6.4645.0083,4.2722-.0072,4.7782-.0814,6.4651-.0679,1.5599-.3266,2.4075-.5443,2.9726-.2893.747-.6351,1.2805-1.1939,1.8419-.5588.5594-1.0907.9082-1.8377,1.2001-.563.2198-1.41.4821-2.9684.5563-1.6874.0793-2.1928.0975-6.4655.1052-4.2711.0083-4.7765-.0078-6.4644-.0809M22.6037,7.4473c.0021,1.0596.8636,1.9176,1.9232,1.9155,1.0601-.0021,1.9181-.8632,1.9165-1.9228-.0021-1.0596-.8637-1.9181-1.9238-1.916-1.0601.0021-1.9181.8637-1.916,1.9233m-14.819,8.5682c.0088,4.5376,3.6941,8.208,8.2306,8.1991,4.5371-.0088,8.2094-3.6931,8.2006-8.2308-.0088-4.5361-3.6947-8.2085-8.2322-8.1997-4.5365.0088-8.2078,3.6947-8.199,8.2313m2.8818-.0057c-.0052-2.9451,2.3784-5.3375,5.3229-5.3427,2.9451-.0057,5.338,2.3769,5.3437,5.3225.0057,2.9456-2.3779,5.3375-5.3234,5.3432-2.9445.0057-5.3375-2.3774-5.3432-5.323" style="fill:#f0f;"/></svg>