<svg id="b480b36e-9089-42fd-b6fe-6eec8072ae75" data-name="レイヤー 1" xmlns="http://www.w3.org/2000/svg" width="195.1488" height="22.6578" viewBox="0 0 195.1488 22.6578">
  <path d="M52.409,18.6031H49.9955l-3.7105-6.69-2.32,2.42v4.27H41.8788V4.8243h2.0864V11.93l5.6489-7.1059h2.4644l-4.481,5.51Z" style="fill: #f0f"/>
  <path d="M64.0809,13.6627A4.6393,4.6393,0,0,1,61.03,18.4254a5.0129,5.0129,0,0,1-1.85.374,5.0977,5.0977,0,0,1-1.8208-.3643,4.9462,4.9462,0,0,1-1.5844-.9345,4.9549,4.9549,0,0,1-1.4961-3.8379V9.7647A4.641,4.641,0,0,1,57.33,5.0015a5.0089,5.0089,0,0,1,1.85-.374,5.1119,5.1119,0,0,1,1.8208.3643,4.983,4.983,0,0,1,1.5845.935,4.9578,4.9578,0,0,1,1.4956,3.8379Zm-2.0864.1181V9.6466a3.197,3.197,0,0,0-.7578-2.1846,2.8753,2.8753,0,0,0-4.1138,0,3.1965,3.1965,0,0,0-.7578,2.1846v4.1342a3.1714,3.1714,0,0,0,.7676,2.1846,2.8637,2.8637,0,0,0,4.104,0A3.1963,3.1963,0,0,0,61.9945,13.7808Z" style="fill: #f0f"/>
  <path d="M78.9613,18.6031H76.8749v-8.74l-2.9331,6.771H72.1507l-2.9326-6.77v8.7388H67.1317V4.8243H69.03l3.9937,8.9731h.0454l3.9936-8.9731h1.8985Z" style="fill: #f0f"/>
  <path d="M84.1966,18.6031H82.11V4.8243h2.0864Z" style="fill: #f0f"/>
  <path d="M97.4427,18.6031H95.4745l-6.0425-9.9v9.9H87.3456V4.8243h1.979l6.0317,9.8823V4.8243h2.0864Z" style="fill: #f0f"/>
  <path d="M110.2953,13.6627a4.6387,4.6387,0,0,1-3.0508,4.7627,5.0064,5.0064,0,0,1-1.85.374,5.0952,5.0952,0,0,1-1.8208-.3643,4.9467,4.9467,0,0,1-1.5845-.9345,4.9549,4.9549,0,0,1-1.4961-3.8379V9.7647a4.6409,4.6409,0,0,1,3.0513-4.7632,5.0109,5.0109,0,0,1,1.85-.374,5.11,5.11,0,0,1,1.82.3643,4.9851,4.9851,0,0,1,1.5849.935,4.9575,4.9575,0,0,1,1.4952,3.8379Zm-2.086.1181V9.6466a3.1941,3.1941,0,0,0-.7578-2.1846,2.8753,2.8753,0,0,0-4.1138,0,3.197,3.197,0,0,0-.7578,2.1846v4.1342a3.1719,3.1719,0,0,0,.7676,2.1846,2.8637,2.8637,0,0,0,4.104,0A3.1934,3.1934,0,0,0,108.2093,13.7808Z" style="fill: #f0f"/>
  <path d="M123.7191,18.6031h-2.6367l-2.9531-5.8267H115.433v5.8267h-2.087V4.8243h5.5118a4.573,4.573,0,0,1,3.1,1.063,3.6254,3.6254,0,0,1,1.23,2.8935,3.7232,3.7232,0,0,1-1.1015,2.7754,3.8067,3.8067,0,0,1-1.7129.9248ZM121.1019,8.8a1.9194,1.9194,0,0,0-.6309-1.501,2.2667,2.2667,0,0,0-1.5742-.5659H115.433v4.1338h3.4443a2.2809,2.2809,0,0,0,1.584-.5752A1.9123,1.9123,0,0,0,121.1019,8.8Z" style="fill: #f0f"/>
  <path d="M135.8246,13.859a4.82,4.82,0,0,1-1.3877,3.5429,4.9412,4.9412,0,0,1-8.4541-3.5429V4.8243H128.07v9.1333a2.811,2.811,0,0,0,.8076,2.0469,2.7107,2.7107,0,0,0,2.0273.8271,2.7559,2.7559,0,0,0,2.0664-.7871,2.8623,2.8623,0,0,0,.7676-2.0869V4.8243h2.086Z" style="fill: #f0f"/>
  <path d="M150.6849,18.6031h-1.89V17.54a2.9963,2.9963,0,0,1-2.5586,1.2207,3.2773,3.2773,0,0,1-1.9883-.5908,2.8628,2.8628,0,0,1-1.1406-1.7119,7.5183,7.5183,0,0,1-.1387-1.6934V13.2886q0-4.4882,3.11-4.4882a3.59,3.59,0,0,1,1.7315.3935,4.5771,4.5771,0,0,1,.9844.7876V4.9424h1.89Zm-1.89-4.4658v-.7129q0-2.7151-1.9678-2.7149t-1.9688,2.7149v.7129q0,2.7143,1.9688,2.7138Q148.7948,16.8511,148.7953,14.1373Z" style="fill: #f0f"/>
  <path d="M160.5267,14.4693h-6.0625v.1758a2.1321,2.1321,0,0,0,.62,1.6006,2.223,2.223,0,0,0,1.6241.6054,3.0435,3.0435,0,0,0,2.2041-.9052l1.3984,1.1806a4.2974,4.2974,0,0,1-3.5234,1.6338,3.8745,3.8745,0,0,1-3.2481-1.3779,5.5263,5.5263,0,0,1-.9844-3.4834,6.1353,6.1353,0,0,1,.9258-3.5239A3.5125,3.5125,0,0,1,156.59,8.8a3.4741,3.4741,0,0,1,3.07,1.4565,5.8216,5.8216,0,0,1,.8662,3.3862Zm-1.89-1.5947a2.4028,2.4028,0,0,0-.5313-1.6333,1.8354,1.8354,0,0,0-1.4961-.67,1.91,1.91,0,0,0-1.5449.64,2.7453,2.7453,0,0,0-.6006,1.6631Z" style="fill: #f0f"/>
  <path d="M170.4076,15.5914a2.7685,2.7685,0,0,1-1.2393,2.4013,4.5157,4.5157,0,0,1-2.6777.7676,5.8541,5.8541,0,0,1-4.291-1.791l1.3584-1.2988a4.7325,4.7325,0,0,0,3.1689,1.3183,2.4272,2.4272,0,0,0,1.2012-.2754,1.0712,1.0712,0,0,0,.59-.9843.9047.9047,0,0,0-.6689-.8858,5.3519,5.3519,0,0,0-1.2-.1972q-1.0445-.0983-1.5362-.1963a2.47,2.47,0,0,1-2.2236-2.6182,2.6855,2.6855,0,0,1,1.0625-2.3027,3.9862,3.9862,0,0,1,2.5-.7285,5.3558,5.3558,0,0,1,3.7988,1.3188L169.03,11.4971a4.1713,4.1713,0,0,0-2.5976-.9253q-1.6539,0-1.6543,1.2007a.7946.7946,0,0,0,.4922.7285,4.7969,4.7969,0,0,0,1.5556.295,6.0348,6.0348,0,0,1,2.4991.65A2.3314,2.3314,0,0,1,170.4076,15.5914Z" style="fill: #f0f"/>
  <path d="M174.5218,6.97h-1.8906V5.0606h1.8906Zm0,11.6333h-1.8906V8.9581h1.8906Z" style="fill: #f0f"/>
  <path d="M184.8539,17.7564q0,4.9014-4.0938,4.9014a4.3312,4.3312,0,0,1-3.4834-1.5947l1.4951-1.22a2.7972,2.7972,0,0,0,1.9688.9053q2.2236,0,2.2246-2.3672V17.56a3.1557,3.1557,0,0,1-2.5586,1.2,2.9267,2.9267,0,0,1-2.5-1.1611,4.4192,4.4192,0,0,1-.7676-2.7168v-2.106a4.6677,4.6677,0,0,1,.7676-2.7949A3.0018,3.0018,0,0,1,180.4652,8.8a3.0419,3.0419,0,0,1,2.5,1.1811V8.9581h1.8887Zm-1.8887-3.164V12.8887a2.3429,2.3429,0,0,0-.5215-1.5551,1.7848,1.7848,0,0,0-1.4473-.6241,1.9018,1.9018,0,0,0-1.4072.565,1.927,1.927,0,0,0-.5615,1.416V14.87a1.9294,1.9294,0,0,0,.5615,1.417,1.9032,1.9032,0,0,0,1.4072.5644,1.8171,1.8171,0,0,0,1.4961-.6543A2.5578,2.5578,0,0,0,182.9652,14.5924Z" style="fill: #f0f"/>
  <path d="M195.1488,18.6031h-1.89v-5.812a2.22,2.22,0,0,0-.5019-1.4927A1.7276,1.7276,0,0,0,191.37,10.71a1.7677,1.7677,0,0,0-1.3477.58,1.98,1.98,0,0,0-.541,1.4038v5.91H187.59V8.9581h1.8906V9.942A3.1308,3.1308,0,0,1,191.92,8.8a2.9529,2.9529,0,0,1,2.4023,1.0434,3.7676,3.7676,0,0,1,.8262,2.5391Z" style="fill: #f0f"/>
  <rect x="6.0342" y="-1.7722" width="16.8336" height="27.1021" transform="translate(26.2299 -2.6722) rotate(90)" style="fill: none;stroke: #f0f;stroke-miterlimit: 10;stroke-width: 1.79999995231628px"/>
  <polyline points="0.9 20.196 17.673 3.423 17.673 20.196" style="fill: none;stroke: #f0f;stroke-linejoin: bevel;stroke-width: 1.79999995231628px"/>
</svg>
