<?xml version="1.0" encoding="UTF-8"?>
<svg id="uuid-80f87b98-4d5a-49b4-a50b-1d9b1ffa53e4" data-name="レイヤー 1" xmlns="http://www.w3.org/2000/svg" viewBox="0 0 705.1655 62.585">
  <path d="M2.4805.9219c.9927,0,5.3159.3545,7.0879.3545,3.4023,0,6.875-.1416,7.6548-.1416.5669,0,1.9136.3545,1.9136,1.1338,0,.8506-1.2046,1.4883-1.772,1.6299-3.1895.7803-3.7563,1.7012-3.7563,2.835,0,.9219-.3545,12.0498-.1416,13.6797.0708.3545.2832.5664.7793.5664.2837,0,.8506-.1416,1.7012-.9209,4.6069-3.8984,12.687-11.624,14.6714-13.9629.5674-.709.2837-1.4883-2.126-1.9844-1.3467-.2832-2.0557-.8506-2.0557-1.6299,0-.3545.4961-1.2051,1.772-1.2051h3.8276c4.1108-.0713,7.4419-.4961,10.2061-.4961,2.1265,0,2.6226.6377,2.6226,1.3467,0,.4961-.709,1.2051-2.2681,1.4883-3.1187.5664-5.8828,1.9131-8.7178,4.1816-2.9062,2.2676-5.5996,4.5361-12.8999,11.4111-.2124.1416-.2124.709,0,.9922,5.9536,6.7334,13.9629,14.7422,16.8687,17.5068,2.7646,2.6221,4.5361,3.4727,7.6548,4.4648,1.5596.4961,2.0557.8506,2.0557,1.7012,0,.3545-.7798,1.2051-2.0557,1.2051-3.3311,0-9.71-.4961-12.4033-.4961h-3.6147c-.9922,0-1.7012-.6377-1.7012-1.2754,0-.5674.5674-1.1348,1.8428-1.4893,1.7012-.4961,1.9849-1.2754.9922-2.4092-2.6221-2.9766-11.1982-11.9072-14.6006-15.3096-.7793-.709-1.4883-.9922-1.772-.9922-.4961,0-.7793.5664-.7793,1.3467,0,3.2598-.0708,9.9229.2124,13.5371.2837,3.1191,1.6304,3.4023,4.2529,3.9697,1.9844.4248,2.4097,1.0625,2.4097,1.6299,0,.709-1.063,1.2754-1.9136,1.2754s-4.9614-.2832-7.1587-.2832c-3.3315,0-7.9385.4248-9.2139.4248-.8506,0-2.0557-.4248-2.0557-1.2041,0-.8506.709-1.2764,1.9136-1.5596,3.7568-.9219,4.749-1.7012,4.9614-4.6777.1416-2.4102.2837-5.1738.2837-17.1523,0-10.915,0-11.9072-.1421-13.3252-.1416-1.2754-.2124-2.3389-4.1108-3.2598-1.5591-.3545-2.3389-.9932-2.3389-1.6309,0-.5664.8506-1.2754,1.9136-1.2754Z" fill="#f0f" stroke-width="0"/>
  <path d="M105.6724,22.752c0,7.5127-3.9692,15.7344-11.7656,20.1289-3.0479,1.7012-7.3003,2.9766-11.8364,2.9766-13.2539,0-23.5312-10.2764-23.5312-22.751,0-5.5283,2.1973-11.4824,6.3789-15.7354,4.3237-4.3232,10.8442-7.3711,17.1523-7.3711,13.1123,0,23.6021,9.498,23.6021,22.752ZM71.5098,7.0879c-3.0479,3.1895-5.2451,8.0801-5.2451,15.168,0,9.9229,6.5918,20.5547,17.436,20.5547,3.1895,0,6.3789-1.0635,8.7178-3.2607,2.835-2.6934,5.4575-7.8672,5.4575-16.5146,0-10.0645-6.5918-20.0576-17.0815-20.0576-3.4019,0-7.1587,2.0547-9.2847,4.1104Z" fill="#f0f" stroke-width="0"/>
  <path d="M123.3867.9922c1.772,0,9.4268.2842,9.8521.2842s1.063.6377,1.2051.9922c.2832,1.0635,1.063,2.7637,2.5513,6.2373,1.5596,3.6143,9.8521,20.9082,11.9077,24.7354.1416.2842.5669.2129.9922-.6377.4961-.9209,10.5605-21.1211,12.2617-24.4521,1.4883-3.1191,2.1973-4.6074,2.5513-5.8125.0713-.4248.8506-1.0625,1.2759-1.0625,1.2051,0,6.875-.3545,9.1431-.3545.709,0,2.2681.2832,2.2681,1.3467,0,.6377-.4253.9922-2.1968,1.417-4.2529.9219-5.2451,2.1973-5.2451,3.4023,0,11.4824.4961,23.6025.7798,28.3506.2124,5.1748,1.5591,5.7412,4.4653,6.7334,1.5591.4961,2.1968,1.1348,2.1968,1.5596,0,.709-.7085,1.2754-2.0552,1.2754-.8506,0-7.584-.4248-9.4976-.4248-2.1265,0-3.4731.2129-5.1738.2129-1.1343,0-2.1973-.4961-2.1973-1.2051,0-.7793.9214-1.2764,2.4097-1.6299,2.5518-.709,2.9771-1.4893,3.0479-5.3867.0708-1.8428.0708-17.3652.0708-24.1689,0-.4971-.7798-.1426-.8506,0-1.4883,2.6924-9.1431,19.207-10.2065,21.4043-.8501,1.7725-3.0474,6.7334-3.7563,8.7891-.5669,1.7012-1.6299,2.4805-2.4805,2.4805-.6382,0-1.2759-1.2051-1.772-2.4102-.8506-1.8428-2.9062-7.6543-3.6147-9.4971-2.6226-6.4502-7.0879-15.5225-9.1431-20.5547-.0708-.0703-.6382-.6377-.709-.0703-.6377,6.2373-1.2759,20.2705-1.2759,23.8857,0,4.252.9214,4.6777,4.2529,5.5283,1.6299.3535,1.9136.9922,1.9136,1.6299,0,.7793-1.2051,1.2051-2.2681,1.2051-.9922,0-3.4731-.2129-5.5283-.2129-2.2681,0-6.8042.3545-7.7256.3545-1.3467,0-2.2681-.3545-2.2681-1.2764,0-.6377.4961-1.1338,2.1973-1.5586,3.2603-.7803,4.7485-2.4805,5.2446-5.458.8506-4.8906,2.6226-25.6572,2.6226-27.3584,0-4.04-.709-4.8193-5.3867-5.6699-1.063-.1416-1.9136-.6377-1.9136-1.1338,0-.7803,1.2046-1.4893,2.0552-1.4893Z" fill="#f0f" stroke-width="0"/>
  <path d="M196.2427,11.5537c0-6.0254-.3545-6.7334-4.8906-7.7969-1.2051-.2832-1.772-.9922-1.772-1.6299,0-.4258,1.2051-1.0635,2.2681-1.0635,1.3467,0,3.9692.2129,7.0879.2129,4.2524,0,6.166-.2842,8.2217-.2842.8506,0,1.7012.5674,1.7012,1.2764,0,.6377-.9214,1.1338-1.4888,1.2754-4.1108,1.0635-4.394,1.8428-4.5361,5.458-.1416,2.9053-.1416,10.6318-.1416,15.4512,0,7.7256.0708,11.6943.0708,12.6162.1421,3.3311,1.0635,3.9688,5.3159,5.0322,1.3467.3545,1.8428.8506,1.8428,1.417,0,.9219-1.4883,1.3467-2.3389,1.3467-.709,0-5.812-.2832-8.2217-.2832-2.481,0-6.6626.4248-7.9385.4248-.9214,0-1.9136-.4961-1.9136-1.0625,0-.6377.8506-1.2764,1.772-1.6309,3.6855-1.2754,4.2524-1.9131,4.4653-3.3311.2124-1.4883.4961-11.9072.4961-17.7188v-9.71Z" fill="#f0f" stroke-width="0"/>
  <path d="M221.6846.8506c2.835,0,8.2925.4258,10.4189.4258.3545,0,1.3467.9209,1.4175,1.0625.7085,1.2051,3.4019,4.5361,6.8042,8.2227,3.7563,4.0391,17.0815,19.2783,19.7744,21.7588.2129.2129.6382-.1416.709-.4961.1416-1.418.4961-14.2461.1416-19.9873-.354-5.9541-.4253-6.875-5.2446-7.9385-1.7012-.3545-1.9849-1.1338-1.9849-1.5596,0-.4961.6382-1.1338,2.1265-1.1338,2.5518,0,3.1187.0713,4.9614.0713,2.9058,0,6.5918-.4258,8.0093-.4258,1.4883,0,2.1973.709,2.1973,1.2764,0,.4248-.2129.9209-2.6226,1.6299-2.4102.7793-3.4023,1.9844-3.5439,3.5439-.2129,2.2676-.6377,17.2227-.6377,24.0977,0,3.1191.1416,7.7969.1416,11.0576,0,2.9766-.6382,3.4727-1.4883,3.4727-.3545,0-1.8433-.7793-2.6934-2.0557-1.772-2.4805-5.4575-7.1582-7.4424-9.3555-2.6934-3.1191-16.3726-18.8535-19.4912-22.2559-.4253-.3545-.7085,0-.7793.709-.0713,1.5596-.2837,4.6074-.2837,7.6553,0,3.1895.2124,10.9854.2837,12.8994.2124,6.2373.5669,6.9453,4.5361,8.2217,1.6299.4961,2.3389.9922,2.3389,1.9131,0,.8506-1.3467,1.2051-2.2681,1.2051-1.9849,0-3.4023-.2832-5.1035-.2832-3.3311,0-7.6543.4248-8.5757.4248-1.1343,0-2.2681-.2832-2.2681-1.2041,0-.6387.6377-1.2051,1.9136-1.5596,4.6069-1.2051,5.0322-2.9766,5.2446-5.8115.3545-4.749.9214-25.0205.9214-27.2881,0-.9219-.4961-1.9844-2.4097-3.7568-.9922-1.0625-3.1187-1.6299-4.4653-1.8428-1.1338-.1416-2.1265-.9922-2.1265-1.8428,0-.4961.5674-.8506,1.4888-.8506Z" fill="#f0f" stroke-width="0"/>
  <path d="M330.7583,22.752c0,7.5127-3.9692,15.7344-11.7656,20.1289-3.0479,1.7012-7.3003,2.9766-11.8364,2.9766-13.2539,0-23.5312-10.2764-23.5312-22.751,0-5.5283,2.1973-11.4824,6.3789-15.7354,4.3237-4.3232,10.8442-7.3711,17.1523-7.3711,13.1123,0,23.6021,9.498,23.6021,22.752ZM296.5957,7.0879c-3.0479,3.1895-5.2451,8.0801-5.2451,15.168,0,9.9229,6.5918,20.5547,17.436,20.5547,3.1895,0,6.3789-1.0635,8.7178-3.2607,2.835-2.6934,5.4575-7.8672,5.4575-16.5146,0-10.0645-6.5918-20.0576-17.0815-20.0576-3.4019,0-7.1587,2.0547-9.2847,4.1104Z" fill="#f0f" stroke-width="0"/>
  <path d="M374.4849,19.7754c-.5674.5664-3.6855,2.6221-4.3232,2.9053-.2842.0713-.3545.709-.2129,1.0635.9922,1.9844,6.166,9.9229,9.4971,13.6797,3.4736,3.8975,5.458,4.8896,8.3643,5.5986.708.1416.9922.6377.9922,1.0635,0,1.3467-3.2607,1.7012-4.1113,1.7012-3.1182,0-7.2998-.4258-12.5449-7.2295-2.5518-3.3311-6.6631-9.4268-8.0098-11.3408-1.6299-2.2676-3.4014-2.3389-5.8115-2.3389-.5674,0-.9922.6377-.9922,1.0635,0,5.6699.0703,9.2852.2832,11.7656.2129,2.5518,1.1338,3.4727,4.3945,4.3232,1.3467.3545,1.9141.7803,1.9141,1.5596,0,.8506-1.2051,1.2754-2.2686,1.2754-1.7715,0-5.457-.2832-7.9385-.2832-2.1968,0-3.4019.2832-6.0239.2832-1.7012,0-2.5518-.4961-2.5518-1.2051,0-.6377.709-1.0625,1.9844-1.4883,2.7642-.9209,3.6855-1.2754,3.8276-4.8193.0708-2.5518.0708-4.8906.0708-17.6484,0-8.5762-.1416-11.624-.2837-13.1123-.1416-1.417-1.2046-2.1973-3.8979-2.6934-1.2051-.2129-2.0557-.7793-2.0557-1.417,0-1.0635,1.3467-1.3467,2.835-1.3467h6.2378c2.6934,0,5.5986-.3545,9.001-.3545,6.2373,0,8.8594,1.417,10.5605,2.6934,3.3311,2.5508,4.3945,5.5986,4.3945,8.7178,0,2.6221-1.2754,5.6699-3.3311,7.584ZM361.1597,3.6152c-.9209,0-2.4805.2832-3.1895.5664-.4248.1426-.7793.7803-.7793,1.418-.1416,3.8984,0,11.5527.1416,15.0967,0,.4258.2129.709.5674.8506,1.5586.4258,2.9053.6377,4.252.6377,1.0635,0,5.0322-1.2754,6.5918-2.6934,1.1338-1.1338,2.3389-3.5439,2.3389-6.3789,0-5.1025-2.6934-9.4971-9.9229-9.4971Z" fill="#f0f" stroke-width="0"/>
  <path d="M398.9321.9219c2.1973,0,5.5986.3545,7.9385.3545,3.1182,0,5.3857-.2129,6.3789-.2129,1.5586,0,2.1963.5674,2.1963,1.2754,0,.6387-1.0625,1.2764-2.126,1.4893-3.6143.708-4.1104,1.3467-4.3945,5.3154-.2832,3.8271-.2119,10.7021.0713,17.4355.2832,6.9463,1.8428,9.1436,3.6143,11.1279,1.8428,1.9844,5.8828,3.6855,9.3564,3.6855,6.0947,0,10.9854-3.3311,12.1201-12.4033.4248-3.0479.5664-11.0566.5664-15.168,0-8.1504-.5664-9.0723-5.1025-9.9932-1.418-.2842-1.9854-.9932-1.9854-1.4893,0-.5664.709-1.2754,2.1973-1.2754,1.418,0,2.623.2129,5.3164.2129,2.5508,0,6.6621-.3545,8.2217-.3545.8506,0,1.9131.2832,1.9131,1.2051,0,.4248-.6377,1.2754-2.0547,1.6299-3.6152.9219-3.9697,1.418-4.3945,4.8906-.1416.8506-.4961,9.3555-.7803,14.8135-.5664,10.4893-2.4805,15.0254-5.9531,18.3564-2.9062,2.8359-7.6553,4.04-11.8369,4.04-5.3154,0-11.0566-2.1973-13.8916-5.8828-3.9688-5.2441-3.8271-12.5449-3.8271-17.0098,0-6.7334-.2842-12.2617-.4258-15.2393-.1416-2.9766-1.417-3.3311-4.1104-4.04-1.418-.3535-1.9844-.9209-1.9844-1.5586,0-.9922,1.0625-1.2051,2.9766-1.2051Z" fill="#f0f" stroke-width="0"/>
  <path d="M485.6772,1.2764c2.4814,0,7.4424-.5674,12.4043-.5674,6.8037,0,13.3955,1.418,18.6406,5.8828,5.9531,4.9619,7.2998,11.5527,7.2998,15.9473,0,10.8447-6.7334,16.7275-10.5605,18.8535-5.0322,2.6934-11.1279,3.7568-16.3721,3.7568-2.9062,0-9.3564-.5674-11.624-.5674s-6.3789.3545-7.9385.3545c-.4961,0-1.1338-.4258-1.1338-.9219,0-.7793.8506-1.6299,2.6221-2.126,2.0557-.5674,4.4658-1.2051,4.8193-4.3945.2842-3.2598.4961-6.875.4961-16.2305,0-9.6396-.1416-13.2539-.4248-14.5303-.1416-.7793-.5674-2.0547-4.3945-2.5518-1.7012-.2119-2.5518-.9209-2.5518-1.5586,0-.7803,1.0635-1.3467,2.9062-1.3467h5.8115ZM490.7808,23.248c0,9.0723.1416,10.3477.4258,12.5449.4961,3.1191,1.7715,4.3242,2.4092,4.6777.8506.4971,4.2529,1.6309,6.5205,1.6309,1.7012,0,8.0098-1.8428,11.1992-5.0322,3.3311-3.3311,5.2451-8.1514,5.2451-14.3174,0-5.3867-1.7012-10.3477-5.3164-13.8916-3.3311-3.2607-8.8594-5.1748-14.0332-5.1748-.709,0-4.04.3545-5.0322.709-.3545.0713-1.1348.9922-1.2051,1.418-.0713,1.8428-.2129,7.3711-.2129,12.6865v4.749Z" fill="#f0f" stroke-width="0"/>
  <path d="M560.519,19.208c.9219,1.3467,1.2051,3.1895,1.2051,4.9609,0,.7803-1.2051,2.127-1.9141,2.127-.4961,0-13.9629.2129-15.2383.2129-.2129,0-.9922.4248-1.1338.7793-.2842.4961-.3545,1.7715-.3545,2.1973,0,6.3076,4.749,11.1279,10.8438,11.1279,2.7646,0,5.8125-1.7725,7.1592-2.6934.2832-.2129.8506.1416.8506.9209,0,.7803-.3545,1.5596-.9219,2.1973-2.6221,2.7646-6.3789,4.3945-10.1357,4.3945-8.8594,0-13.8916-6.0244-13.8916-14.6719,0-5.7412,2.623-10.6309,6.875-13.3955,2.3389-1.5596,5.3164-2.4102,8.293-2.4102,3.4023,0,6.6621,1.4883,8.3633,4.2529ZM543.9341,23.248c-.0713.2832.2832.709.4248.709.7803.0703,3.1191.1416,5.1738.1416,2.6934,0,5.9541-.1416,5.9541-2.5518,0-2.126-1.7012-4.04-5.457-4.04-1.7725,0-5.1748,2.1973-6.0957,5.7412Z" fill="#f0f" stroke-width="0"/>
  <path d="M589.7866,15.5225c.7793.2129,1.6299.4248,2.2686.6377.3535.1416,1.1338,1.1338,1.2041,1.418.1416.4248.1416,3.1182.1416,3.8984,0,.4961-.5664,2.0547-1.5586,2.0547-.2842,0-.9219-.6377-1.5596-1.9131-1.5596-2.9062-3.8984-4.1113-5.3867-4.1113-1.6299,0-4.1104,1.5596-4.1104,4.1816,0,3.4736,3.0469,4.3945,6.7324,6.3086,3.6865,1.9131,6.8047,4.1104,6.8047,8.292,0,4.04-2.6221,6.5918-5.3154,7.7969-2.0557.9922-4.3242,1.3467-6.0957,1.3467-4.3232,0-6.4502-.9922-7.2295-1.7725-.709-.708-1.418-3.8271-1.418-5.1025,0-1.8428.4961-2.3389,1.2764-2.3389.4248,0,.9209.4961,1.8428,1.9131,2.0557,3.1895,4.5361,4.5361,6.4492,4.5361,3.1895,0,4.9619-2.126,4.9619-4.3936,0-1.3467-.7793-2.8359-2.5518-3.9697-1.8428-1.1338-3.4727-1.9131-5.5996-3.1182-2.3389-1.3467-5.1025-3.5439-5.1025-7.7256,0-3.4023,1.9131-5.3867,3.6143-6.6631,1.6309-1.0625,4.6074-1.8428,6.167-1.8428,1.8428,0,3.4727.2129,4.4648.5674Z" fill="#f0f" stroke-width="0"/>
  <path d="M608.2837,17.2236c3.543-1.2764,6.4492-2.3389,7.6543-2.3389.2832,0,.709.9209.709,1.1338v12.9707c.0703,9.2852.2119,10.6318.2832,11.2695.0713.5664.3545,1.2754,2.9062,1.9844.9922.2832,1.7012.9209,1.7012,1.6299,0,.6377-1.1348.9219-2.0557.9219-1.4883,0-4.3945-.2129-5.9541-.2129-3.6143,0-4.9609.2129-5.9531.2129-1.418,0-2.127-.4258-2.127-1.0635s.709-1.1338,1.7012-1.418c3.1191-.7793,3.2607-1.3457,3.5439-4.252.1416-1.4883.2842-6.3086.2842-10.3486,0-1.417,0-5.1025-.0713-5.5283-.0713-.5664-.709-1.3467-2.7646-2.6934-.4961-.2832-.7793-1.1338-.7793-1.417,0-.3545.4961-.709.9219-.8506ZM615.7251,1.1348c.8506.9922,1.2051,2.3389,1.2051,2.9053,0,2.835-2.4805,4.04-3.7568,4.04-1.0625,0-2.2676-.709-3.0469-1.6299-.4258-.709-.709-1.2051-.709-2.126,0-2.3389,1.6299-4.04,4.1104-4.04.9922,0,1.6309.3545,2.1973.8506Z" fill="#f0f" stroke-width="0"/>
  <path d="M650.5239,16.0186c.9209.2832,1.9131.4961,2.6221.4961.8506,0,7.3008-.0713,7.7256-.0713.5674,0,1.0635,1.9141,1.0635,2.9062,0,.709-.7803,1.2051-.8506,1.2051-1.5596,0-4.6074-.3545-6.166-.4248.7793,1.3467,1.3457,3.2598,1.3457,4.9609,0,3.1895-1.1338,5.8115-3.8271,8.0801-2.1973,1.8428-5.8828,2.835-8.9307,2.835-.4248,0-1.4883-.0713-1.9131-.0713-.5674,0-.709.1426-1.0635.3545-.709.3545-1.6299,1.5596-1.6299,2.1973,0,2.0557,2.3389,2.4102,2.6934,2.4102,4.2529,0,9.3555.2832,11.5527.2832,1.2754,0,3.3311.2842,5.458,2.0557,1.4883,1.2051,2.7637,3.6855,2.7637,5.9541,0,4.4648-3.1182,8.2217-6.166,10.1348-2.7646,1.6309-6.2373,3.2607-11.9785,3.2607-4.5361,0-12.7578-2.2686-12.7578-9.0723,0-1.1338.7793-3.1895,1.4883-3.6855,1.1338-.8506,3.1895-2.4102,4.3945-3.4736.2832-.1416.3545-.6377.1416-.708-.5664-.1416-1.3467-.4258-2.0557-.9922-.7793-.709-2.0547-1.9141-2.0547-4.8203,0-.2119.1416-.6377.3545-.709,1.5586-.708,4.3232-2.7637,5.0322-3.6143.2119-.2832.2119-.5674,0-.6377-2.9062-1.8428-5.3164-4.3945-5.3164-8.7891,0-3.7568,1.3467-6.0957,3.9697-8.3633,1.4883-1.2051,5.3867-2.7646,8.2217-2.7646,2.5508,0,4.748.709,5.8828,1.0635ZM652.5083,57.4814c2.0557-1.2051,3.6143-2.9766,3.5439-5.8828-.0713-3.1895-2.623-4.5361-5.1035-4.9609-1.2754-.2129-3.5439-.4258-6.0957-.4258-3.4727,0-5.5283.9922-5.6699,1.0635-2.3389,1.418-2.9766,2.9766-2.9766,4.6777,0,4.8906,5.3154,7.0166,10.2773,7.0166,1.417,0,4.3945-.4248,6.0244-1.4883ZM638.4741,24.666c0,6.2363,3.8281,8.4336,6.8047,8.4336,1.6299,0,3.2598-.9209,3.6855-1.4883.4961-.709,1.6299-3.0479,1.6299-6.166,0-3.4727-1.8428-7.7256-6.9453-7.7256-3.5439,0-5.1748,3.7568-5.1748,6.9463Z" fill="#f0f" stroke-width="0"/>
  <path d="M674.2632,17.082c1.3467-.6387,3.1895-1.2764,4.6074-1.9854.8506-.4248,1.7012-.708,1.8428-.708.2129,0,1.2051.2832,1.2051.8506,0,.3545-.0713,2.4092-.1416,3.1182-.0713.3545.2832.3545.4961.2129,2.1973-1.4883,5.5986-3.6152,10.0645-3.6152,3.6143,0,5.457,1.7725,6.5205,3.332,1.1338,1.6299,2.0557,4.5361,2.126,9.4258.0713,3.4736.0713,7.4424.2129,10.6318.0713,2.0557.5674,2.6934,1.8428,3.3311,1.6299.6377,2.126,1.3467,2.126,1.9844,0,.709-1.1338,1.1348-2.0547,1.1348-.9219,0-3.1895-.2129-5.3164-.2129-2.0547,0-3.6143.2129-4.4648.2129-.9219,0-1.9141-.2129-1.9141-1.1348,0-.4248.3545-.9922,1.5596-1.4883,1.7715-.6377,2.2686-1.2754,2.3389-3.0479.0713-3.4727.0713-6.5205.0713-9.6387,0-5.3164-.6387-7.4424-1.3467-8.3633-.709-.9219-2.127-1.9141-5.0322-1.9141-2.6934,0-4.749.6377-6.0957,1.5596-.1416.1416-.8506.9209-.8506,1.7715v16.4434c0,1.0635-.0713,1.9141,2.7646,2.9775,1.2754.4961,1.8428,1.1338,1.8428,1.7002,0,.5674-.709,1.1348-1.9854,1.1348-2.3389,0-4.4648-.2129-6.166-.2129-2.1973,0-4.4648.2129-5.5996.2129-1.2754,0-2.0547-.3545-2.0547-1.0635s.8506-1.2754,1.5586-1.4883c3.1191-.9922,3.5439-1.8428,3.6152-3.4023.2129-3.4023.4248-8.7178.4248-15.9473,0-1.1338-.708-1.9141-2.4805-2.9766-.8506-.6377-.9922-.9219-.9922-1.0635,0-.4961.6377-1.4883,1.2754-1.7715Z" fill="#f0f" stroke-width="0"/>
</svg>