<?xml version="1.0" encoding="UTF-8"?>
<svg id="uuid-f3760290-8aad-4e90-8ab6-dbedccbf280b" data-name="レイヤー 1" xmlns="http://www.w3.org/2000/svg" viewBox="0 0 1301.1904 114.2666">
  <path d="M43.6836,29.7393c2.5908-3.5786,3.4551-4.6895,6.1699-8.021,4.6885,3.7017,6.0459,4.936,10.7354,9.0078.2471.3701.4932.8638.4932,1.1108,0,.3701-.6162.7402-1.4805.7402h-26.7773v26.4072h8.2676c1.8506-1.7275,3.332-3.4551,4.8125-4.8125,3.085,2.4678,3.9492,3.3315,6.9102,6.0464.8643.8638.9873,1.1108.9873,1.3574,0,.6172-.8633,1.2339-4.0723,3.085v16.6587q0,7.2803.124,19.8672c0,.7402-.2471.9873-.7412,1.2344-.6162.2461-4.1953.6172-5.5527.6172-1.2334,0-1.7275-.4941-1.7275-1.8516v-4.5654H15.0547v9.1309c0,.6172-.3701.9873-.9873,1.2344-.6162.123-4.1953.4932-6.0459.4932-.9873,0-1.3574-.3701-1.3574-1.2334v-.2471c.3701-9.1309.4932-17.2754.4932-25.543,0-12.0928-.2461-22.3354-.4932-27.5181,4.0723,2.3442,5.3057,3.208,9.2549,6.0464h8.8848v-26.4072h-13.9443c-3.4551,0-7.1572.2471-10.1182.7402l-.7412-4.4419c4.0723.6167,6.9111.8638,10.8594.8638h13.9443v-9.2549c0-10.3657,0-11.4761-.4941-17.8931,2.8379.3706,5.3066.6172,6.6641.7407,6.0459.6167,7.5273,1.1104,7.5273,2.2212s-1.1113,1.7275-5.6768,2.9614v21.2246h10.8594ZM15.0547,93.7832h26.7773v-31.9609H15.0547v31.9609ZM71.3242,68.3633c-1.1104,9.1309-4.0723,17.6455-8.6377,25.79-5.3057,9.1309-9.9951,14.3135-18.5098,20.1133l-1.1104-1.1104c8.8848-8.8848,13.8203-17.2754,17.2754-28.998,3.5791-12.2168,4.5654-24.6802,4.5654-59.9722,0-10.9824,0-13.3267-.4932-20.2373,4.3193,2.2212,5.6768,2.8384,9.625,5.3062h21.5947c2.2207-2.3442,2.8379-3.085,4.9355-5.1826l7.4043,5.1826c.8633.7407,1.2334,1.2339,1.2334,1.6045,0,.7402-.8633,1.3574-3.9482,3.085v57.0098c-.123,6.417-.123,10.8594-.123,13.4502,0,4.4424,0,7.4043.123,18.0166,0,3.8252-.7402,5.5527-3.332,7.1572-2.3447,1.6035-5.1826,2.5908-10.3652,3.5781-.8633-3.8252-1.6045-4.9355-3.7021-5.7998-2.0977-.7402-3.8252-1.1104-16.165-2.9619l.124-2.0977c3.3311.124,6.0459.124,7.7734.2471,9.2549.3701,9.502.3701,15.3018.3701,1.4805,0,1.9746-.4932,1.9746-1.7275v-32.8232h-25.5439ZM96.8682,39.8579h-23.9395c-.124,13.0801-.2471,16.2881-1.2344,25.6665h25.1738v-25.6665ZM96.8682,12.0933h-23.6924v4.689c0,.4937-.124,9.7485-.124,20.2373h23.8164V12.0933Z" fill="#f0f" stroke-width="0"/>
  <path d="M175.3438,41.3384c-2.0977,0-3.085,0-10.9824.6172l-1.2344-4.3188q2.7148.3701,12.0928.8638h24.4336v-6.0469c0-3.4551-.124-5.1826-.4941-8.7612q13.3271,1.481,13.3271,2.5913c0,.4937-.2471.9873-1.2344,1.6045,0,0-.4932.2466-1.4805.8638-.3701.2466-.7402.4937-1.1104.7402q0,5.3062-.123,9.0083h21.7178l6.416-7.6509c4.6895,3.7021,6.1699,4.936,10.8594,8.7612.3701.3701.4941.6172.4941.8638,0,.4937-.4941.8638-1.1113.8638h-38.5c-.123,5.0596-.2471,7.6509-.6172,13.2036h21.8418l6.6631-8.021c4.8125,3.9487,6.2939,5.1831,11.2295,9.502.123.123.2471.3701.2471.4937,0,.3701-.4941.8638-1.1104.8638h-39.1172c-.4941,5.6763-.9873,8.7612-1.9746,13.6968h31.96c3.332-3.9482,4.3193-5.1826,7.8975-8.6377,5.1826,3.9492,6.7871,5.3066,11.9697,9.749.4932.4932.7402.8633.7402,1.1104,0,.3701-.3701.6172-.7402.6172h-50.7168c4.9355,7.0332,10.1191,11.7227,19.0029,16.7822,9.749,5.6758,21.4717,8.6377,37.2666,9.748v1.3574c-4.4424,1.6045-6.54,4.1953-7.8975,9.625-14.5605-3.332-25.543-8.8848-35.5391-18.0166-7.0332-6.293-10.9814-10.9814-15.1777-18.1387-2.5908,7.6504-6.6631,13.4502-13.2031,19.0029-11.1064,9.502-23.4453,14.8076-42.8193,18.5098l-.4932-1.6045c14.1904-4.4424,23.8154-9.501,33.0703-17.0283,7.8975-6.6641,12.3398-12.5869,14.8076-20.2373h-30.2324c-5.5527,0-7.4033.123-11.7227.8633l-1.2344-4.6885c3.8252.4932,9.502.9863,12.957.9863h31.0967c1.2334-4.9355,1.6035-7.6504,2.0977-13.6968h-22.7051c-2.7148,0-5.0596.123-10.7363.6167l-1.4805-4.4424c2.5918.3701,10.4893.9873,12.0928.9873h23.0752c.3711-5.5527.4941-7.4038.6172-13.2036h-24.1855ZM244.0762,16.7822l5.6768-6.4165c4.6885,3.085,6.0459,4.0718,10.7354,7.0337,1.1104.9868,1.8506,1.7275,1.8506,2.3442,0,.3706-.2471.7407-.6172.9873-.4932.2471-1.7275.6172-3.208.9873-2.8379.7402-4.3193,1.1104-4.5654,1.2339-4.8125,4.1958-7.1572,6.1699-12.3398,10.2422l-1.4805-.8638c2.7139-5.0596,3.7012-7.4038,5.5527-12.71h-80.8262c-.8633,9.1313-6.0459,18.7563-9.9951,18.7563-1.8506,0-3.9482-3.8252-3.9482-7.0337,0-1.481.6162-2.4678,2.8379-4.0723,5.5527-4.0723,7.1572-6.9102,9.3779-16.9053h2.0977q0,4.5654-.123,6.4165h34.5518v-7.7739c0-2.8384-.124-4.5659-.3701-8.3911,5.1826.4937,10.8584,1.2339,12.71,1.7275,1.2334.2466,1.7275.6172,1.7275,1.1108,0,.8638-.124.9868-5.1826,3.5781v9.7485h35.5381Z" fill="#f0f" stroke-width="0"/>
  <path d="M295.8984,111.0586c8.3906-8.5146,12.4629-14.4375,16.7822-24.3096-3.4551-5.1826-6.54-11.9697-9.1318-20.2373-1.2344-4.0723-1.8506-5.4297-3.208-7.1572l5.1826-1.604c-.2471.8638-.2471,1.3574-.2471,1.8511,0,4.9355,4.1953,15.1777,9.2549,22.8291,4.1953-10.8594,6.1699-20.2378,7.2803-33.8115h-11.8457c-.6172.9868-.9873,1.8506-1.3574,2.3442-.7402,1.3574-1.4814,1.7275-4.0723,1.8511h-1.3574c-1.9746,0-3.085-.4937-3.085-1.481v-.3701c9.1318-17.646,13.8203-27.8877,17.7695-38.7466h-12.71c-2.2217,0-3.8252.123-7.0342.8638l-1.1104-4.5659c1.1104.1235,3.8252.4937,8.1445.8638h12.71c1.8506-2.3447,2.4678-3.085,4.5654-5.3062,3.5781,2.8384,4.6895,3.7021,8.1445,6.2935.3701.3701.4932.6167.4932.8638,0,.8638-.4932,1.2339-5.6758,3.4551-4.9365,12.2163-7.5273,18.0161-14.0674,31.0962h9.9951c1.8506-2.4678,2.4678-3.2085,4.4424-5.6763,3.3311,2.3447,4.3184,3.085,7.5273,5.6763.8633.7402,1.1104,1.1104,1.1104,1.3574,0,.6172-1.6045,1.8511-4.9365,3.7021-2.5908,18.7563-4.3184,24.9263-10.2412,37.019,3.3311,3.209,5.7998,5.0596,9.625,6.9102,9.1309,4.6895,20.3604,6.6641,37.5127,6.6641,12.3398,0,25.2969-.6172,46.7676-1.9746v1.6045c-3.208.7402-4.9355,1.7275-6.54,3.4551-1.1104,1.3574-1.6045,2.7148-1.6045,5.4297-7.8975.4932-13.0801.6162-21.1006.6162-26.1602,0-39.1172-1.7275-50.9629-7.0332-6.2939-2.8379-11.4766-6.54-16.166-11.4756-5.4287,8.6377-10.6113,14.0674-19.6201,20.2363l-1.2334-1.2334ZM399.9229,28.8755c1.9736-3.2085,2.5908-4.0723,4.9355-7.2808,3.085,3.332,3.9492,4.3188,6.7871,8.021.3701.6167.6172,1.1104.6172,1.3574,0,.4937-.3701.7402-.7412.7402h-13.3262c0,1.8511.123,3.332.123,3.332q0,11.8457.2471,15.1777c0,1.7275-.6172,2.0977-3.9492,2.3447-.4932.123-1.3574.2466-2.5908.3701h-.2471c-.9873,0-1.4805-.6172-1.4805-1.8511v-2.8384h-18.7568l.123,14.0674h18.0166c2.5908-2.9614,3.332-3.9487,5.7998-7.0337,4.3184,3.2085,5.7998,4.3193,10.3652,8.2681.2471.3701.4932.7402.4932.8638,0,.3701-.4932.7402-1.2334.7402h-33.4414l.124,13.5742h19.9902c2.9619-3.5791,3.9482-4.5664,6.54-8.0215,4.0723,3.4551,5.5527,4.8125,10.3652,8.8848.2471.3701.3701.7402.3701.8643,0,.6172-.6172,1.1104-1.2334,1.1104h-36.0322c0,8.1445,0,11.1055.123,15.4248-.2471.6172-.3701.7402-.8633.9873-.4941.123-4.3193.4932-6.0469.4932-.8643,0-1.1104-.2461-1.3574-.8633q0-2.7148.2471-12.957v-3.085h-20.6074c-4.1963,0-5.7998.123-9.625.7402l-1.6045-4.3184q5.1826.7402,11.2295.7402h20.7305v-13.5742h-17.8926c-3.208,0-5.0596.124-8.7617.7402l-1.2334-4.689c3.5781.6167,7.2803,1.1104,9.9951,1.1104h17.8926v-14.0674h-14.9307c-3.9492,0-5.5537.1235-9.1318.8638l-1.6045-4.689c3.4551.4937,8.3916.9873,10.2422.9873h15.4248v-13.6973h-20.7305c-3.9492,0-5.6768.1235-9.625.9873l-1.3574-4.936c5.0586.8638,7.5273,1.1108,10.9824,1.1108h20.6074v-13.8208h-16.165c-2.2217,0-3.9492.1235-7.2812.6172l-1.3574-4.5659c4.4424.7402,7.0342,1.1108,8.6387,1.1108h16.041q0-4.6895-.3701-11.7231c5.9238.6172,10.7363,1.3574,11.7227,1.8511.4941.1235.7412.6172.7412.9873,0,1.1104-.9873,1.7275-4.5664,2.7148v6.1699h19.0039c1.4805-2.3447,1.9736-2.9619,3.8252-5.3062,3.4551,2.3442,4.4424,3.085,7.4033,5.3062.4941.3701.6172.7402.6172,1.1104s-.2471.9873-.6172,1.3574c-.123.1235-.6162.3701-1.4805.9873-.9873.4937-1.1104.6167-1.9746,1.2339v3.3315l.124,4.6895v3.9487h1.7275ZM390.2979,15.0547h-18.8799v13.8208h18.8799v-13.8208ZM371.418,31.7134l.123,13.6973h18.7568v-13.6973h-18.8799Z" fill="#f0f" stroke-width="0"/>
  <path d="M486.1729,13.4507c2.0977-2.4683,4.0713-4.8125,5.9229-6.9106,4.0723,3.4556,5.1826,4.5659,9.0078,8.1445.3701.3701.4941.7402.4941.8638,0,.4937-.4941.7402-1.3574.7402h-25.5439c6.9102,4.0723,9.502,6.54,9.502,9.2549,0,2.4683-2.4678,6.0464-4.1953,6.0464-1.1113,0-1.6045-.8638-2.2217-3.5781-.7402-3.4556-2.4678-7.2808-5.1826-11.7231h-7.4033c-6.2939,8.6382-11.5996,13.9438-20.7314,20.731l-1.2334-1.1104c8.0205-9.0083,11.3525-13.9443,15.3008-22.3354,2.9619-6.4165,3.9492-9.1313,4.6895-13.4502,11.4756,2.2212,14.0674,2.9614,14.0674,4.1958,0,1.1104-.8643,1.3569-5.7998,2.0977-1.9746,3.4551-2.5918,4.5654-4.3193,7.0337h19.0039ZM536.8887,77.001c2.8389-3.4551,3.5791-4.4424,6.2939-7.6514,4.9355,3.7021,6.416,4.8125,11.1055,8.7617.3701.4932.4932.7402.4932,1.1104s-.4932.6172-.9863.6172h-48.249c5.3057,4.8125,9.502,7.6504,16.2881,10.9824,10.8594,5.3057,18.7568,7.1572,36.1562,8.5146v1.8506c-2.8389.4941-3.7021.9873-5.6768,2.9619-1.8506,1.7275-2.3447,2.5908-3.085,5.0586-9.625-2.2207-16.7822-5.3057-26.4072-11.4756-7.8975-4.9355-13.0801-9.502-19.126-16.9053v10.2422c0,4.3184.2461,14.1904.4932,20.2373-.123.8633-.2471,1.2334-.8633,1.6035-.8643.3701-3.4561.7402-5.5537.7402-1.1104,0-1.6035-.3701-1.9736-1.4805.4932-14.6846.4932-14.9307.4932-21.1006v-8.0215c-7.2803,7.4043-15.0547,12.5869-28.1348,19.127-7.7744,3.8252-13.6973,6.0469-23.5693,8.8848l-.7402-1.7275c10.4893-4.5654,21.4717-10.4893,29.8623-16.165,6.2939-4.3193,10.7363-7.8975,15.9189-13.3271h-29.2461c-2.8379,0-5.6758.2471-10.7354,1.1104l-.8633-5.1826c4.1953.9873,7.0332,1.2344,11.5986,1.2344h35.9092v-2.5918c0-2.9609-.123-4.5654-.4932-8.3906,4.5654.4932,10.1182,1.2334,11.4756,1.4805.8643.2471,1.3574.6172,1.3574,1.2344,0,.9863-1.3574,1.6035-4.9355,2.4678v5.7998h33.1934ZM461.4932,38.0068c-2.4678,0-2.9619.123-7.8975.8638l-.8643-4.936c3.4551.8638,6.0469,1.2339,8.7617,1.2339h21.7178c1.9746-2.4678,2.5918-3.208,4.6895-5.5527,3.208,2.9614,4.1953,3.8252,7.0332,6.7866.2471.3706.3701.6172.3701.8638,0,.2471-.4932.7407-.8633.7407h-18.2637v17.1523c5.4297-.9873,6.2939-1.2344,17.2764-3.5786l.3701,1.604c-9.625,3.7021-15.5479,5.6763-21.5947,7.2808q-14.0674,3.9487-17.7695,4.936c-.4932,3.5781-.9873,4.6895-1.9746,4.6895q-.9863,0-4.4414-11.4766,4.9355-.1235,20.9775-2.3447v-18.2627h-7.5273ZM535.4082,57.9971v1.1108c0,.9868,1.6045,1.4805,4.6895,1.4805,4.5654,0,6.1699-.4937,7.1562-2.2212.9873-2.0977,1.6045-4.5654,4.6895-18.2627l1.7275.1235-.6172,15.3013c0,.7402-.123,1.2339-.123,1.3574v.4937c0,1.2339.3701,1.604,1.7275,1.8506,1.6045.3706,2.5918,1.3574,2.5918,2.7148,0,1.9746-1.6045,3.3325-4.6895,3.8257-3.7021.4932-6.417.7402-10.6123.7402-6.54,0-9.8721-.2471-10.9824-.6172-1.9746-.9873-2.9619-2.7148-2.9619-5.0591v-24.0625h-20.7305c-.2471,7.7739-.4932,10.4888-1.4805,13.9438-1.7275,6.293-6.6641,12.0928-14.1914,16.6592-4.4424,2.8379-7.2803,4.0723-13.3262,5.9229l-.9873-1.4805c9.3779-4.6895,14.5605-8.8853,18.3857-14.5615,3.332-5.0596,4.4424-10.4888,4.4424-21.7183,0-2.0977-.123-3.4551-.4932-6.54,3.9482,2.0977,5.1826,2.7148,8.7607,4.936h19.374c1.7275-1.9741,2.2207-2.5913,3.9482-4.4424q3.332,2.4683,6.2939,4.689c.9863.7407,1.3564,1.2344,1.3564,1.6045,0,.7402-1.2334,1.604-3.9482,2.8379v19.3735ZM538.2461,13.4507c2.9619-3.7021,3.8252-4.8125,6.6641-8.2676,4.6885,3.9487,6.0459,5.1826,10.4883,9.3779.3701.3701.6172.6172.6172.8638,0,.3701-.6172.8638-.9873.8638h-34.4277c6.293,3.7021,8.6377,6.1699,8.6377,8.6382,0,2.8379-2.8379,7.0337-4.5654,7.0337-.8643,0-1.3574-.6172-1.6045-2.0981-1.2344-6.7866-2.3447-9.8716-4.6895-13.5737h-7.8975c-5.4287,6.9102-9.501,10.8594-16.041,15.7949l-1.2344-1.2339c5.1826-5.6763,7.8975-9.8716,11.7227-17.769,2.8379-5.9233,3.7021-8.5146,4.4424-12.71q4.5654.9868,11.1064,2.3442c1.4805.3701,2.3438.8638,2.3438,1.481,0,1.1104-1.3574,1.604-5.7998,2.0977-1.9736,3.5786-2.7139,4.689-4.4414,7.1572h25.666ZM509.6182,43.0659c8.7607,4.6895,14.1904,9.8721,14.1904,13.5737,0,2.8384-2.3447,6.54-4.0723,6.54-.9873,0-1.2334-.3701-2.2207-3.208-2.0977-6.54-3.332-8.7612-8.5146-16.042l.6172-.8638Z" fill="#f0f" stroke-width="0"/>
  <path d="M592.5361,22.7056c4.9365.9868,7.5273,1.2339,13.2041,1.2339h22.458c1.9746-2.3447,4.0723-4.689,6.0469-7.0337,4.6885,3.3315,6.1699,4.4424,10.4883,8.021.2471.4932.4941.8638.4941,1.1104,0,.4937-.4941.7402-1.3574.7402h-38.1299c-5.9238,0-7.6514.1235-12.0938.8638l-1.1104-4.9355ZM597.2256,6.9106c3.8252.8638,7.1572,1.2339,10.2422,1.2339h15.6709c2.5918-3.2085,3.332-4.0723,5.9238-7.0337,4.4414,3.3315,5.6758,4.4424,9.8711,8.144.2471.3701.4941.8638.4941.9873,0,.4937-.4941.7402-1.2344.7402h-30.7256c-2.5918,0-4.6895.1235-9.3789.6172l-.8633-4.689ZM598.7061,55.0356c4.3193.9873,6.9102,1.2339,10.4893,1.2339h11.5986c2.4688-3.085,3.332-4.0723,6.2939-7.0337,4.1953,3.332,5.4297,4.3188,9.2549,7.7739.3701.4937.7402,1.1108.7402,1.2344,0,.4937-.4941.8638-.8643.8638h-27.0234c-3.9492,0-5.5537.123-9.502.6167l-.9873-4.689ZM598.8291,38.9937c4.4424.8643,7.0342,1.1108,10.3662,1.1108h13.0801c2.0977-2.4678,4.1953-4.8125,6.1699-7.1572,4.1953,3.4551,5.5527,4.5659,9.3779,8.1445.2471.3701.4932.8638.4932,1.1104,0,.3701-.4932.7407-1.3564.7407h-27.7646c-4.1963,0-5.6768.123-9.3789.7402l-.9873-4.6895ZM606.9736,111.4287c-.123.9873-.4932,1.2344-1.3574,1.4805-.9873.2471-2.9609.3701-4.0723.3701-1.8506,0-2.4678-.4932-2.7148-1.8506.3711-13.6973.3711-16.6592.3711-21.5947,0-6.54-.124-15.918-.3711-21.8418,4.1963,2.3447,5.3066,3.085,9.1318,5.5537h16.7822c1.4805-1.6045,3.085-3.332,4.6895-5.0596,3.085,2.0977,3.9482,2.8379,6.54,5.0596.8633.7402,1.4805,1.6035,1.4805,2.0977,0,.7402-.4932,1.1104-3.9492,3.208-.123,2.8379-.123,4.4424-.123,6.293,0,3.4551.2471,16.042.3701,19.25-.123.8643-.2471,1.2344-.8633,1.4814-.8643.4932-3.5791.8633-5.6768.8633-1.4805,0-1.8506-.3701-1.8506-1.4805v-1.9746h-18.3867v8.1445ZM606.9736,100.4463h18.3867v-24.0625h-18.3867v24.0625ZM708.2832,103.2842c-2.3447.4941-3.4551.9873-5.1826,2.5918-2.0977,1.8506-2.9609,3.208-3.9482,6.416-12.3398-5.4287-21.2246-11.3525-29.4922-19.7432-11.4766,10.1182-23.3223,16.4121-40.4746,21.4717l-.7402-1.8516c14.5605-6.293,25.4199-13.4502,36.7725-24.5557-7.0342-8.8848-10.9824-17.2764-14.0674-30.1099h-2.3447c-2.9619.1235-3.7021.2471-6.1699.7407l-.9873-4.8125c3.7021.8638,6.9102,1.1104,11.4766,1.1104h30.2324c2.0977-2.3447,2.8379-3.085,4.8125-5.3062,4.0723,2.8384,5.3057,3.7021,9.0078,6.54.8633.7407,1.2334,1.2339,1.2334,1.7275,0,.7407-1.6035,1.481-6.1689,2.8384-6.7871,13.9443-10.9824,20.2373-17.7695,27.3945,9.625,7.2803,18.6328,10.7354,33.9346,13.4502l-.124,2.0977ZM636.8359,52.1973c10.9824-11.1055,14.0674-20.3604,14.0674-41.7085,0-3.085-.123-4.5654-.4932-8.5142,4.3184,2.4678,5.5527,3.3315,9.3779,6.1699h16.4121c2.0977-2.3447,2.8379-3.085,4.9355-5.5532,3.209,2.4683,4.1953,3.2085,6.9102,5.5532,1.1113,1.1104,1.3574,1.604,1.3574,2.0977,0,.8638-.7402,1.481-4.5654,3.4551v22.4585c0,2.0977.4932,2.2212,6.6631,2.2212,3.9492,0,5.1826-.3701,6.1699-1.7275.9873-1.481,1.3574-2.9614,5.1826-18.0161l1.6045.1235-1.1104,15.918v.4937c0,1.8511.123,1.9746,2.5908,3.2085.8643.4937,1.4814,1.481,1.4814,2.5913,0,3.4551-3.332,4.3188-16.6592,4.3188-7.8975,0-10.3652-.2466-11.8457-1.1104-1.6045-.9873-2.0977-2.4683-2.0977-5.6763v-.3706c.123-3.208.123-4.3188.123-7.6504V10.9824h-17.7695c-.8633,15.3013-2.0977,20.978-6.293,27.7646-3.7021,6.0464-7.5273,9.7485-15.0547,14.6846l-.9873-1.2344ZM654.1113,57.3804c2.5918,10.1187,7.4043,18.1392,15.3018,25.9136,6.417-7.5273,9.9951-13.8203,14.5605-25.9136h-29.8623Z" fill="#f0f" stroke-width="0"/>
  <path d="M741.7188,23.8159c3.332.6172,7.2812.9873,10.7363.9873h26.6533c2.9619-3.332,3.9492-4.4424,6.9102-7.6509,4.5664,3.7021,5.9238,4.936,10.1191,8.7612.3701.3701.4932.7407.4932.8638,0,.3706-.4932.8638-.8633.8638h-43.9297c-4.3193,0-5.9229.1235-9.3779.6172l-.7412-4.4424ZM746.9014,40.3511c3.9492.7407,6.417.9873,9.625.9873h15.9189c2.7148-2.9614,3.4551-3.9487,6.1699-6.7866,4.1953,3.085,5.4297,4.1953,9.2549,7.7739.3701.3701.4932.8638.4932,1.1104,0,.3706-.4932.7407-.9873.7407h-30.8496c-3.7012,0-5.3057.123-8.8838.3701l-.7412-4.1958ZM747.2725,7.0337c2.7139.4937,6.6631.8638,9.2539.8638h17.0293c2.9619-3.3315,3.8252-4.3188,6.9102-7.2803,4.3193,3.4551,5.6768,4.5659,9.9951,8.021.4941.6167.7402.9868.7402,1.2339,0,.4937-.4932.8638-1.2334.8638h-33.4414c-3.7012,0-5.3057.1235-8.5137.4937l-.7402-4.1958ZM747.2725,57.2568c3.208.7402,5.1826.8638,9.2539.8638h16.166c2.7139-3.2085,3.5781-4.1958,6.293-7.4038,3.9482,3.4551,5.1826,4.5654,8.8848,8.144.4932.6172.7402.9873.7402,1.2339,0,.4937-.4941.8638-.9873.8638h-31.0967c-2.8379,0-4.8125.1235-8.6377.4937l-.6162-4.1953ZM756.4033,109.9482c0,1.9736-1.1104,2.3438-6.417,2.3438-1.4805,0-1.9736-.3701-2.0977-1.6035.2471-6.1699.4941-21.3477.4941-32.7002,0-3.5791-.124-5.1836-.4941-9.3789,4.1963,2.5918,5.4297,3.4551,9.502,6.417h17.6455c1.7275-1.9746,3.5791-3.9492,5.3066-5.9229l7.4033,5.9229c.124.3701.2471.6172.2471.7402.123.3701.2471.6172.2471.8643,0,.7402-1.3574,2.2207-3.8252,3.9482v3.4551c0,9.1318.123,20.6074.3701,24.4326-.124,1.1113-.3701,1.6045-1.3574,1.8516-.9873.2461-3.5791.4932-5.0596.4932-1.3574,0-1.9746-.4932-2.0977-1.6045v-5.3057h-19.8672v6.0469ZM756.4033,101.0635h19.8672v-23.1992h-19.8672v23.1992ZM836.6123,44.1768c3.208-4.1958,4.3184-5.4297,8.0205-9.3784,4.8125,3.9487,6.293,5.1826,10.7354,9.3784.4941.6167.7412,1.2339.7412,1.604,0,.6172-.7412,1.1104-1.4814,1.1104h-30.4795c0,34.4282,0,39.1177.7412,63.0571-.124.9873-.3701,1.4805-1.1113,1.7275-.8633.3701-3.9482.7402-6.293.7402-1.7275,0-2.3447-.3701-2.3447-1.7275.3701-14.5615.6172-33.4414.6172-55.7764,0-.9873,0-4.5654-.123-8.021h-15.1787c-4.5654,0-6.1699.1235-9.9951.6172l-.7402-4.4424c3.332.7407,7.0342,1.1108,10.7354,1.1108h15.1787c-.124-34.7983-.124-36.1558-.9873-41.4619,2.8379.2471,5.0586.3701,6.416.4937,6.54.4937,8.5146.9873,8.5146,2.2212,0,1.1104-.6172,1.481-5.4297,3.2085v35.5386h12.4639Z" fill="#f0f" stroke-width="0"/>
  <path d="M948.4062,46.0273v9.9956h26.9004c1.8506-2.0981,2.4678-2.7148,4.4424-4.8125,3.332,2.0977,4.3184,2.8379,7.4033,5.0591.7412.6172,1.1113.9873,1.1113,1.481,0,.7402-.3701,1.1104-3.5791,3.085l.124,9.5015h2.3438c2.9619-3.208,3.8262-4.1953,6.7871-7.4038,4.0723,3.4556,5.3066,4.5659,9.2549,8.3911.4941.4941.7402.8643.7402,1.1104,0,.3701-.4932.7412-1.1104.7412h-18.0156c.123,11.1055.2461,18.2627.3701,21.2236,0,.8643-.2471,1.2344-.8643,1.4814-.8633.2461-3.8252.6162-5.9229.6162-1.3574,0-1.9746-.3701-1.9746-1.2334v-6.9102h-27.8877q.123,1.4805.123,6.0459l.2471,9.1318c0,3.332-.123,4.1953-.7402,5.1826-1.2344,1.9746-4.3193,3.332-12.71,5.1826-.2471-5.9229-.9873-6.293-19.25-9.2549v-1.8506c14.0674.8633,15.4248.8633,19.0029.8633h3.4551c1.4805,0,1.8516-.3701,1.8516-1.4805v-13.8203h-30.8496c-3.209,0-4.6895.123-7.6514.6172l-.4932-4.4424c3.208.7402,4.9355.9863,8.3906.9863h30.6035v-12.3389h-42.8193c-3.4551,0-4.4424.123-7.0342.4932l-.6162-4.1953c2.7139.6172,4.3184.8633,7.6504.8633h42.8193v-11.4761h-32.207c-3.332,0-4.3193.1235-6.2939.4937l-.4932-4.1953c2.3447.7402,3.7021.8638,6.7871.8638h32.207v-9.9956h-25.791v2.9619c0,.8638-.2461,1.2339-.8633,1.4805-.4932.1235-3.8252.4937-5.5527.4937-.9873,0-1.3574-.2466-1.3574-1.1104.2471-7.5273.3701-11.2295.3701-18.2632,0-4.0718,0-5.0591-.123-8.3911,3.5781,1.8511,4.6885,2.4683,8.0205,4.4424h25.2969v-9.625h-40.9688c-4.0723,0-5.1826.1235-7.6504.4937l-.4932-4.1953c2.9609.7402,4.4414.8638,8.2676.8638h40.8447c-.124-8.021-.124-9.0083-.6172-14.4375,12.4629,1.604,13.3271,1.8506,13.3271,3.208,0,.9873-1.1113,1.6045-4.8125,2.7148v8.5146h35.415c3.085-3.5786,3.9482-4.5659,7.0332-7.8975,4.8125,3.7017,6.1699,4.936,10.4893,9.0078.2461.3701.4932.7407.4932,1.1108,0,.2466-.4932.6167-.9873.6167h-52.4434v9.625h25.543c1.8506-1.8506,2.4678-2.4678,4.5654-4.4424,3.085,2.0981,3.9492,2.7148,6.7871,4.936.8643.6172,1.1104.9873,1.1104,1.3574,0,.8638-.4932,1.2339-3.5781,2.8384,0,9.0078,0,9.2549.2471,14.8076,0,1.481-.7412,1.8511-4.0723,1.9741-.9873,0-1.7275.1235-2.2217.1235h-.3701c-.9873,0-1.3574-.2466-1.3574-1.2339v-1.9746h-26.6533ZM940.5088,30.4795h-25.791v12.71h25.791v-12.71ZM975.0596,30.4795h-26.6533v12.71h26.6533v-12.71ZM976.417,58.8608h-28.0107v11.4761h28.0107v-11.4761ZM948.4062,73.1758v8.0205l.123,4.3184h27.8877v-12.3389h-28.0107Z" fill="#f0f" stroke-width="0"/>
  <path d="M1075.5,8.7612c1.7285-2.3442,2.3447-3.085,4.3193-5.1826,4.0723,2.7148,5.1826,3.5786,9.0078,6.54.6172.7407.8643,1.1108.8643,1.6045,0,.9868-1.1104,1.3574-5.0596,1.604-8.7607,7.6509-11.8457,9.9951-17.1523,13.2036,2.3447,1.8511,3.208,3.4551,3.208,5.4297,0,1.4805-.4932,2.9614-1.3564,4.689-.7412,1.3574-1.1113,1.7275-2.3447,2.5913h10.2422c2.0977-2.2212,2.7139-2.8384,5.0586-4.936,3.332,2.3447,4.3193,3.085,7.5273,5.4297.9873.8638,1.4805,1.4805,1.4805,1.9741v.1235q-.123.8638-5.9229,1.9746c-5.5527,8.0205-7.4033,10.1182-12.5859,15.6714l-1.3574-.8638c2.7148-5.6763,2.7148-5.7998,5.7998-16.5356h-9.749v30.2329c0,17.7695.123,27.6416.123,29.4922,0,6.1699-2.7139,8.5146-12.4629,10.6123-.4932-7.0342-1.9746-8.0215-14.1904-9.502l.2471-1.9746c2.2207.124,3.9482.2471,5.0586.2471,7.0342.4941,7.1572.4941,11.8467.6172,1.4805-.123,1.8506-.4941,1.8506-1.6045v-40.9683c-7.5273,14.8081-12.71,21.2251-25.2959,31.0972l-1.2344-1.3574c8.1445-8.7617,12.833-15.3018,17.6455-24.4336,3.8252-7.2803,5.3066-11.3525,8.6377-22.4585h-12.2158q-4.8125,0-10.4893.6172l-1.1104-4.3188c4.8125.7402,6.7871.8638,10.9824.8638h19.127q-.9873-.8638-2.4678-3.7021c-4.3193-8.5142-6.1699-10.6118-15.1787-18.2627l1.2344-1.3574c8.5146,4.1958,12.0928,6.2935,15.6719,8.8848,4.3184-4.4424,6.1699-6.7871,10.2412-13.2036h-25.9131c-4.1953,0-7.2803.1235-10.9824.6172l-.9873-4.3193c5.3066.7407,7.4043.8638,11.9697.8638h25.9131ZM1104.1289,69.4736c.9873-4.5664,1.4805-8.2681,1.4805-11.7231,0-.2471,0-1.3574-.123-2.3447,10.9824.9873,13.0801,1.481,13.0801,2.7148,0,.3701-.3701.7402-.7402.9873-.3701.2466-1.8516.7402-4.1953,1.604-.7412,4.6895-1.1113,6.417-1.6045,8.7617h20.4844c1.8506-2.5918,2.4678-3.332,4.3184-5.6768,3.4551,2.3447,4.5654,3.085,7.7744,5.5527,1.2334.8643,1.6035,1.3574,1.6035,1.8516,0,.9873-1.4805,1.9746-4.6885,3.208-1.3574,16.5352-3.085,24.6797-6.417,30.4795-2.4678,4.3184-6.54,6.1699-14.1904,6.6631-1.1113-6.54-3.209-7.7734-18.0166-10.2422l.2471-2.0977c2.7148.2471,4.8125.4941,6.1699.7412,8.0205.8633,13.3271,1.3564,16.5352,1.3564,1.9746,0,2.8379-.8633,3.8252-4.0713,1.9746-5.9238,3.332-14.9316,3.7021-24.9268h-21.9648c-2.5908,9.3779-6.293,16.2881-12.3398,22.9521-5.3057,5.7998-11.9697,10.4883-19.4971,13.8203-3.4551,1.4805-6.0459,2.3447-11.9697,3.9492l-1.1104-1.9746c7.1572-2.7148,10.8594-4.6895,16.4121-8.6377,11.1055-8.0215,16.9053-16.4121,20.4844-30.1094h-12.834c-3.9482,0-7.2803.123-11.8457.6172l-.7402-4.3193q7.4033.8643,12.5859.8643h13.5742ZM1138.6797,20.2373c-4.8125,8.6382-9.0078,13.8208-17.2754,21.4712,9.502,5.3062,18.2627,7.7744,31.5898,8.8848v1.7275c-4.6885.9873-6.293,2.7148-7.7734,8.021-12.957-4.5659-20.1143-8.2676-28.2588-14.8076-10.3652,8.2676-22.7051,13.5737-42.2021,18.1392l-.7402-2.0977c17.0293-5.7998,27.5176-11.4761,38.0068-20.6074-6.1699-6.1699-9.8721-11.3525-13.4502-18.6333-4.5664,5.6768-7.0342,8.1445-12.71,12.8335l-1.2344-1.3574c9.0078-11.4761,13.3271-20.1138,17.1523-33.811,2.7148.7407,4.9355,1.481,6.293,1.8511,5.1826,1.481,6.0469,1.8511,6.0469,2.9614s-1.4805,1.7275-5.5527,2.0981c-3.085,5.1826-4.1953,7.1567-6.417,10.4888h31.7129c2.9619-3.2085,3.9492-4.1958,6.6641-7.4038,4.6895,3.4551,6.0459,4.689,10.6123,8.3906.123.3706.3701.8643.3701.9873,0,.4937-.4941.8638-1.1104.8638h-11.7236ZM1115.4814,37.7598c6.0469-5.9229,9.2549-10.2417,13.2031-17.5225h-28.5049c3.4551,6.6636,7.7744,11.5996,15.3018,17.5225Z" fill="#f0f" stroke-width="0"/>
  <path d="M1202.7188,61.3291c-.6172,9.0078-2.0977,16.6592-4.5664,24.3096-3.4551,10.2422-6.7861,16.165-14.3135,25.0498l-1.4814-1.3574c4.3193-6.9102,5.5537-10.1191,8.1445-19.8672,3.085-11.5996,3.9492-18.8799,4.3193-36.896.123-8.7612.123-11.7231.123-17.3994,0-4.3188-.123-7.1567-.6172-11.9697,4.5664,2.0981,5.9238,2.8384,10.2422,5.5532h19.9902c2.0977-2.4683,2.7148-3.2085,4.8125-5.5532,3.209,2.2212,4.1963,2.9619,7.1572,5.5532.4941.3701.8643.8638.8643,1.2339s-1.3574,1.604-2.9619,2.5913v5.5527c0,2.3447.123,7.6509.2471,13.6973q.123,8.021.2471,14.6846c0,.9873-.2471,1.3574-.8643,1.7275-.7402.2471-4.6895.7402-6.6631.7402-.8643,0-1.2344-.3701-1.2344-1.6035v-6.0469h-23.4453ZM1187.0469,8.1445c4.8125.7402,8.7617.9873,14.0674.9873h25.0498c2.9619-3.2085,3.8252-4.1958,6.9102-7.5273,4.3193,3.4551,5.5527,4.689,9.8721,8.7612.2471.4937.3701.8638.3701.9873,0,.4932-.6172.9868-1.2344.9868h-40.9678c-7.1572,0-8.6377.1235-13.0801.7407l-.9873-4.936ZM1226.1641,31.5898h-22.7051q-.3701,22.0884-.4941,26.9009h23.1992v-26.9009ZM1253.3115,44.4233c-.123,1.604-.123,3.085-.123,3.9487-.4941,16.9062-3.332,28.875-9.749,39.6113-3.9482,6.7861-9.0078,12.4629-14.9307,17.0283-2.3447,1.8516-4.5654,3.209-9.2549,5.9238l-1.1104-1.8516c7.7734-6.1699,11.2285-9.748,15.1777-15.5479,7.2803-10.4893,10.6123-22.335,11.3525-39.9814.3701-8.2676.6172-22.4585.6172-30.8491,0-4.3193-.124-6.417-.3701-11.3525,4.6885,2.5913,6.0459,3.4551,10.6123,6.54,7.0332-2.3447,12.5859-4.936,19.6201-9.2549,4.8125-2.9619,6.54-4.3188,9.3779-7.4038,2.5918,1.4805,4.5654,2.5913,5.9229,3.3315,3.7021,2.0977,5.9238,3.8252,5.9238,4.8125,0,.7402-.9873,1.2339-2.5918,1.2339-.7402,0-1.9746-.1235-4.0723-.6167-12.957,5.6763-21.4707,8.144-35.9082,10.4888q-.124,6.54-.4941,21.1011h30.2324c2.8379-3.7021,3.7021-4.936,6.7871-8.6382,4.5654,4.1958,5.9229,5.5532,10.2422,9.7485.4932.4937.6172.8638.6172,1.1108,0,.3701-.4941.6167-1.4814.6167h-21.2246v31.5903c0,8.8848.124,19.0029.4941,32.207,0,1.1104-.2471,1.4805-1.1104,1.7275-1.3574.3701-3.209.6162-5.5537.6162-1.7275,0-2.2207-.2461-2.4678-1.1104.3701-9.0078.4941-16.042.4941-32.5771v-32.4536h-17.0293Z" fill="#f0f" stroke-width="0"/>
</svg>