<?xml version="1.0" encoding="UTF-8"?>
<svg id="uuid-e53b3fac-a053-47a1-911a-d71ce4183415" data-name="レイヤー 1" xmlns="http://www.w3.org/2000/svg" viewBox="0 0 1301.1904 252.9961">
  <g>
    <path d="M43.6836,29.7393c2.5908-3.5786,3.4551-4.6895,6.1699-8.021,4.6885,3.7017,6.0459,4.936,10.7354,9.0078.2471.3701.4932.8638.4932,1.1108,0,.3701-.6162.7402-1.4805.7402h-26.7773v26.4072h8.2676c1.8506-1.7275,3.332-3.4551,4.8125-4.8125,3.085,2.4678,3.9492,3.3315,6.9102,6.0464.8643.8638.9873,1.1108.9873,1.3574,0,.6172-.8633,1.2339-4.0723,3.085v16.6587q0,7.2803.124,19.8672c0,.7402-.2471.9873-.7412,1.2344-.6162.2461-4.1953.6172-5.5527.6172-1.2334,0-1.7275-.4941-1.7275-1.8516v-4.5654H15.0547v9.1309c0,.6172-.3701.9873-.9873,1.2344-.6162.123-4.1953.4932-6.0459.4932-.9873,0-1.3574-.3701-1.3574-1.2334v-.2471c.3701-9.1309.4932-17.2754.4932-25.543,0-12.0928-.2461-22.3354-.4932-27.5181,4.0723,2.3442,5.3057,3.208,9.2549,6.0464h8.8848v-26.4072h-13.9443c-3.4551,0-7.1572.2471-10.1182.7402l-.7412-4.4419c4.0723.6167,6.9111.8638,10.8594.8638h13.9443v-9.2549c0-10.3657,0-11.4761-.4941-17.8931,2.8379.3706,5.3066.6172,6.6641.7407,6.0459.6167,7.5273,1.1104,7.5273,2.2212s-1.1113,1.7275-5.6768,2.9614v21.2246h10.8594ZM15.0547,93.7832h26.7773v-31.9609H15.0547v31.9609ZM71.3242,68.3633c-1.1104,9.1309-4.0723,17.6455-8.6377,25.79-5.3057,9.1309-9.9951,14.3135-18.5098,20.1133l-1.1104-1.1104c8.8848-8.8848,13.8203-17.2754,17.2754-28.998,3.5791-12.2168,4.5654-24.6802,4.5654-59.9722,0-10.9824,0-13.3267-.4932-20.2373,4.3193,2.2212,5.6768,2.8384,9.625,5.3062h21.5947c2.2207-2.3442,2.8379-3.085,4.9355-5.1826l7.4043,5.1826c.8633.7407,1.2334,1.2339,1.2334,1.6045,0,.7402-.8633,1.3574-3.9482,3.085v57.0098c-.123,6.417-.123,10.8594-.123,13.4502,0,4.4424,0,7.4043.123,18.0166,0,3.8252-.7402,5.5527-3.332,7.1572-2.3447,1.6035-5.1826,2.5908-10.3652,3.5781-.8633-3.8252-1.6045-4.9355-3.7021-5.7998-2.0977-.7402-3.8252-1.1104-16.165-2.9619l.124-2.0977c3.3311.124,6.0459.124,7.7734.2471,9.2549.3701,9.502.3701,15.3018.3701,1.4805,0,1.9746-.4932,1.9746-1.7275v-32.8232h-25.5439ZM96.8682,39.8579h-23.9395c-.124,13.0801-.2471,16.2881-1.2344,25.6665h25.1738v-25.6665ZM96.8682,12.0933h-23.6924v4.689c0,.4937-.124,9.7485-.124,20.2373h23.8164V12.0933Z" fill="#f0f" stroke-width="0"/>
    <path d="M175.3438,41.3384c-2.0977,0-3.085,0-10.9824.6172l-1.2344-4.3188q2.7148.3701,12.0928.8638h24.4336v-6.0469c0-3.4551-.124-5.1826-.4941-8.7612q13.3271,1.481,13.3271,2.5913c0,.4937-.2471.9873-1.2344,1.6045,0,0-.4932.2466-1.4805.8638-.3701.2466-.7402.4937-1.1104.7402q0,5.3062-.123,9.0083h21.7178l6.416-7.6509c4.6895,3.7021,6.1699,4.936,10.8594,8.7612.3701.3701.4941.6172.4941.8638,0,.4937-.4941.8638-1.1113.8638h-38.5c-.123,5.0596-.2471,7.6509-.6172,13.2036h21.8418l6.6631-8.021c4.8125,3.9487,6.2939,5.1831,11.2295,9.502.123.123.2471.3701.2471.4937,0,.3701-.4941.8638-1.1104.8638h-39.1172c-.4941,5.6763-.9873,8.7612-1.9746,13.6968h31.96c3.332-3.9482,4.3193-5.1826,7.8975-8.6377,5.1826,3.9492,6.7871,5.3066,11.9697,9.749.4932.4932.7402.8633.7402,1.1104,0,.3701-.3701.6172-.7402.6172h-50.7168c4.9355,7.0332,10.1191,11.7227,19.0029,16.7822,9.749,5.6758,21.4717,8.6377,37.2666,9.748v1.3574c-4.4424,1.6045-6.54,4.1953-7.8975,9.625-14.5605-3.332-25.543-8.8848-35.5391-18.0166-7.0332-6.293-10.9814-10.9814-15.1777-18.1387-2.5908,7.6504-6.6631,13.4502-13.2031,19.0029-11.1064,9.502-23.4453,14.8076-42.8193,18.5098l-.4932-1.6045c14.1904-4.4424,23.8154-9.501,33.0703-17.0283,7.8975-6.6641,12.3398-12.5869,14.8076-20.2373h-30.2324c-5.5527,0-7.4033.123-11.7227.8633l-1.2344-4.6885c3.8252.4932,9.502.9863,12.957.9863h31.0967c1.2334-4.9355,1.6035-7.6504,2.0977-13.6968h-22.7051c-2.7148,0-5.0596.123-10.7363.6167l-1.4805-4.4424c2.5918.3701,10.4893.9873,12.0928.9873h23.0752c.3711-5.5527.4941-7.4038.6172-13.2036h-24.1855ZM244.0762,16.7822l5.6768-6.4165c4.6885,3.085,6.0459,4.0718,10.7354,7.0337,1.1104.9868,1.8506,1.7275,1.8506,2.3442,0,.3706-.2471.7407-.6172.9873-.4932.2471-1.7275.6172-3.208.9873-2.8379.7402-4.3193,1.1104-4.5654,1.2339-4.8125,4.1958-7.1572,6.1699-12.3398,10.2422l-1.4805-.8638c2.7139-5.0596,3.7012-7.4038,5.5527-12.71h-80.8262c-.8633,9.1313-6.0459,18.7563-9.9951,18.7563-1.8506,0-3.9482-3.8252-3.9482-7.0337,0-1.481.6162-2.4678,2.8379-4.0723,5.5527-4.0723,7.1572-6.9102,9.3779-16.9053h2.0977q0,4.5654-.123,6.4165h34.5518v-7.7739c0-2.8384-.124-4.5659-.3701-8.3911,5.1826.4937,10.8584,1.2339,12.71,1.7275,1.2334.2466,1.7275.6172,1.7275,1.1108,0,.8638-.124.9868-5.1826,3.5781v9.7485h35.5381Z" fill="#f0f" stroke-width="0"/>
    <path d="M295.8984,111.0586c8.3906-8.5146,12.4629-14.4375,16.7822-24.3096-3.4551-5.1826-6.54-11.9697-9.1318-20.2373-1.2344-4.0723-1.8506-5.4297-3.208-7.1572l5.1826-1.604c-.2471.8638-.2471,1.3574-.2471,1.8511,0,4.9355,4.1953,15.1777,9.2549,22.8291,4.1953-10.8594,6.1699-20.2378,7.2803-33.8115h-11.8457c-.6172.9868-.9873,1.8506-1.3574,2.3442-.7402,1.3574-1.4814,1.7275-4.0723,1.8511h-1.3574c-1.9746,0-3.085-.4937-3.085-1.481v-.3701c9.1318-17.646,13.8203-27.8877,17.7695-38.7466h-12.71c-2.2217,0-3.8252.123-7.0342.8638l-1.1104-4.5659c1.1104.1235,3.8252.4937,8.1445.8638h12.71c1.8506-2.3447,2.4678-3.085,4.5654-5.3062,3.5781,2.8384,4.6895,3.7021,8.1445,6.2935.3701.3701.4932.6167.4932.8638,0,.8638-.4932,1.2339-5.6758,3.4551-4.9365,12.2163-7.5273,18.0161-14.0674,31.0962h9.9951c1.8506-2.4678,2.4678-3.2085,4.4424-5.6763,3.3311,2.3447,4.3184,3.085,7.5273,5.6763.8633.7402,1.1104,1.1104,1.1104,1.3574,0,.6172-1.6045,1.8511-4.9365,3.7021-2.5908,18.7563-4.3184,24.9263-10.2412,37.019,3.3311,3.209,5.7998,5.0596,9.625,6.9102,9.1309,4.6895,20.3604,6.6641,37.5127,6.6641,12.3398,0,25.2969-.6172,46.7676-1.9746v1.6045c-3.208.7402-4.9355,1.7275-6.54,3.4551-1.1104,1.3574-1.6045,2.7148-1.6045,5.4297-7.8975.4932-13.0801.6162-21.1006.6162-26.1602,0-39.1172-1.7275-50.9629-7.0332-6.2939-2.8379-11.4766-6.54-16.166-11.4756-5.4287,8.6377-10.6113,14.0674-19.6201,20.2363l-1.2334-1.2334ZM399.9229,28.8755c1.9736-3.2085,2.5908-4.0723,4.9355-7.2808,3.085,3.332,3.9492,4.3188,6.7871,8.021.3701.6167.6172,1.1104.6172,1.3574,0,.4937-.3701.7402-.7412.7402h-13.3262c0,1.8511.123,3.332.123,3.332q0,11.8457.2471,15.1777c0,1.7275-.6172,2.0977-3.9492,2.3447-.4932.123-1.3574.2466-2.5908.3701h-.2471c-.9873,0-1.4805-.6172-1.4805-1.8511v-2.8384h-18.7568l.123,14.0674h18.0166c2.5908-2.9614,3.332-3.9487,5.7998-7.0337,4.3184,3.2085,5.7998,4.3193,10.3652,8.2681.2471.3701.4932.7402.4932.8638,0,.3701-.4932.7402-1.2334.7402h-33.4414l.124,13.5742h19.9902c2.9619-3.5791,3.9482-4.5664,6.54-8.0215,4.0723,3.4551,5.5527,4.8125,10.3652,8.8848.2471.3701.3701.7402.3701.8643,0,.6172-.6172,1.1104-1.2334,1.1104h-36.0322c0,8.1445,0,11.1055.123,15.4248-.2471.6172-.3701.7402-.8633.9873-.4941.123-4.3193.4932-6.0469.4932-.8643,0-1.1104-.2461-1.3574-.8633q0-2.7148.2471-12.957v-3.085h-20.6074c-4.1963,0-5.7998.123-9.625.7402l-1.6045-4.3184q5.1826.7402,11.2295.7402h20.7305v-13.5742h-17.8926c-3.208,0-5.0596.124-8.7617.7402l-1.2334-4.689c3.5781.6167,7.2803,1.1104,9.9951,1.1104h17.8926v-14.0674h-14.9307c-3.9492,0-5.5537.1235-9.1318.8638l-1.6045-4.689c3.4551.4937,8.3916.9873,10.2422.9873h15.4248v-13.6973h-20.7305c-3.9492,0-5.6768.1235-9.625.9873l-1.3574-4.936c5.0586.8638,7.5273,1.1108,10.9824,1.1108h20.6074v-13.8208h-16.165c-2.2217,0-3.9492.1235-7.2812.6172l-1.3574-4.5659c4.4424.7402,7.0342,1.1108,8.6387,1.1108h16.041q0-4.6895-.3701-11.7231c5.9238.6172,10.7363,1.3574,11.7227,1.8511.4941.1235.7412.6172.7412.9873,0,1.1104-.9873,1.7275-4.5664,2.7148v6.1699h19.0039c1.4805-2.3447,1.9736-2.9619,3.8252-5.3062,3.4551,2.3442,4.4424,3.085,7.4033,5.3062.4941.3701.6172.7402.6172,1.1104s-.2471.9873-.6172,1.3574c-.123.1235-.6162.3701-1.4805.9873-.9873.4937-1.1104.6167-1.9746,1.2339v3.3315l.124,4.6895v3.9487h1.7275ZM390.2979,15.0547h-18.8799v13.8208h18.8799v-13.8208ZM371.418,31.7134l.123,13.6973h18.7568v-13.6973h-18.8799Z" fill="#f0f" stroke-width="0"/>
    <path d="M486.1729,13.4507c2.0977-2.4683,4.0713-4.8125,5.9229-6.9106,4.0723,3.4556,5.1826,4.5659,9.0078,8.1445.3701.3701.4941.7402.4941.8638,0,.4937-.4941.7402-1.3574.7402h-25.5439c6.9102,4.0723,9.502,6.54,9.502,9.2549,0,2.4683-2.4678,6.0464-4.1953,6.0464-1.1113,0-1.6045-.8638-2.2217-3.5781-.7402-3.4556-2.4678-7.2808-5.1826-11.7231h-7.4033c-6.2939,8.6382-11.5996,13.9438-20.7314,20.731l-1.2334-1.1104c8.0205-9.0083,11.3525-13.9443,15.3008-22.3354,2.9619-6.4165,3.9492-9.1313,4.6895-13.4502,11.4756,2.2212,14.0674,2.9614,14.0674,4.1958,0,1.1104-.8643,1.3569-5.7998,2.0977-1.9746,3.4551-2.5918,4.5654-4.3193,7.0337h19.0039ZM536.8887,77.001c2.8389-3.4551,3.5791-4.4424,6.2939-7.6514,4.9355,3.7021,6.416,4.8125,11.1055,8.7617.3701.4932.4932.7402.4932,1.1104s-.4932.6172-.9863.6172h-48.249c5.3057,4.8125,9.502,7.6504,16.2881,10.9824,10.8594,5.3057,18.7568,7.1572,36.1562,8.5146v1.8506c-2.8389.4941-3.7021.9873-5.6768,2.9619-1.8506,1.7275-2.3447,2.5908-3.085,5.0586-9.625-2.2207-16.7822-5.3057-26.4072-11.4756-7.8975-4.9355-13.0801-9.502-19.126-16.9053v10.2422c0,4.3184.2461,14.1904.4932,20.2373-.123.8633-.2471,1.2334-.8633,1.6035-.8643.3701-3.4561.7402-5.5537.7402-1.1104,0-1.6035-.3701-1.9736-1.4805.4932-14.6846.4932-14.9307.4932-21.1006v-8.0215c-7.2803,7.4043-15.0547,12.5869-28.1348,19.127-7.7744,3.8252-13.6973,6.0469-23.5693,8.8848l-.7402-1.7275c10.4893-4.5654,21.4717-10.4893,29.8623-16.165,6.2939-4.3193,10.7363-7.8975,15.9189-13.3271h-29.2461c-2.8379,0-5.6758.2471-10.7354,1.1104l-.8633-5.1826c4.1953.9873,7.0332,1.2344,11.5986,1.2344h35.9092v-2.5918c0-2.9609-.123-4.5654-.4932-8.3906,4.5654.4932,10.1182,1.2334,11.4756,1.4805.8643.2471,1.3574.6172,1.3574,1.2344,0,.9863-1.3574,1.6035-4.9355,2.4678v5.7998h33.1934ZM461.4932,38.0068c-2.4678,0-2.9619.123-7.8975.8638l-.8643-4.936c3.4551.8638,6.0469,1.2339,8.7617,1.2339h21.7178c1.9746-2.4678,2.5918-3.208,4.6895-5.5527,3.208,2.9614,4.1953,3.8252,7.0332,6.7866.2471.3706.3701.6172.3701.8638,0,.2471-.4932.7407-.8633.7407h-18.2637v17.1523c5.4297-.9873,6.2939-1.2344,17.2764-3.5786l.3701,1.604c-9.625,3.7021-15.5479,5.6763-21.5947,7.2808q-14.0674,3.9487-17.7695,4.936c-.4932,3.5781-.9873,4.6895-1.9746,4.6895q-.9863,0-4.4414-11.4766,4.9355-.1235,20.9775-2.3447v-18.2627h-7.5273ZM535.4082,57.9971v1.1108c0,.9868,1.6045,1.4805,4.6895,1.4805,4.5654,0,6.1699-.4937,7.1562-2.2212.9873-2.0977,1.6045-4.5654,4.6895-18.2627l1.7275.1235-.6172,15.3013c0,.7402-.123,1.2339-.123,1.3574v.4937c0,1.2339.3701,1.604,1.7275,1.8506,1.6045.3706,2.5918,1.3574,2.5918,2.7148,0,1.9746-1.6045,3.3325-4.6895,3.8257-3.7021.4932-6.417.7402-10.6123.7402-6.54,0-9.8721-.2471-10.9824-.6172-1.9746-.9873-2.9619-2.7148-2.9619-5.0591v-24.0625h-20.7305c-.2471,7.7739-.4932,10.4888-1.4805,13.9438-1.7275,6.293-6.6641,12.0928-14.1914,16.6592-4.4424,2.8379-7.2803,4.0723-13.3262,5.9229l-.9873-1.4805c9.3779-4.6895,14.5605-8.8853,18.3857-14.5615,3.332-5.0596,4.4424-10.4888,4.4424-21.7183,0-2.0977-.123-3.4551-.4932-6.54,3.9482,2.0977,5.1826,2.7148,8.7607,4.936h19.374c1.7275-1.9741,2.2207-2.5913,3.9482-4.4424q3.332,2.4683,6.2939,4.689c.9863.7407,1.3564,1.2344,1.3564,1.6045,0,.7402-1.2334,1.604-3.9482,2.8379v19.3735ZM538.2461,13.4507c2.9619-3.7021,3.8252-4.8125,6.6641-8.2676,4.6885,3.9487,6.0459,5.1826,10.4883,9.3779.3701.3701.6172.6172.6172.8638,0,.3701-.6172.8638-.9873.8638h-34.4277c6.293,3.7021,8.6377,6.1699,8.6377,8.6382,0,2.8379-2.8379,7.0337-4.5654,7.0337-.8643,0-1.3574-.6172-1.6045-2.0981-1.2344-6.7866-2.3447-9.8716-4.6895-13.5737h-7.8975c-5.4287,6.9102-9.501,10.8594-16.041,15.7949l-1.2344-1.2339c5.1826-5.6763,7.8975-9.8716,11.7227-17.769,2.8379-5.9233,3.7021-8.5146,4.4424-12.71q4.5654.9868,11.1064,2.3442c1.4805.3701,2.3438.8638,2.3438,1.481,0,1.1104-1.3574,1.604-5.7998,2.0977-1.9736,3.5786-2.7139,4.689-4.4414,7.1572h25.666ZM509.6182,43.0659c8.7607,4.6895,14.1904,9.8721,14.1904,13.5737,0,2.8384-2.3447,6.54-4.0723,6.54-.9873,0-1.2334-.3701-2.2207-3.208-2.0977-6.54-3.332-8.7612-8.5146-16.042l.6172-.8638Z" fill="#f0f" stroke-width="0"/>
    <path d="M592.5361,22.7056c4.9365.9868,7.5273,1.2339,13.2041,1.2339h22.458c1.9746-2.3447,4.0723-4.689,6.0469-7.0337,4.6885,3.3315,6.1699,4.4424,10.4883,8.021.2471.4932.4941.8638.4941,1.1104,0,.4937-.4941.7402-1.3574.7402h-38.1299c-5.9238,0-7.6514.1235-12.0938.8638l-1.1104-4.9355ZM597.2256,6.9106c3.8252.8638,7.1572,1.2339,10.2422,1.2339h15.6709c2.5918-3.2085,3.332-4.0723,5.9238-7.0337,4.4414,3.3315,5.6758,4.4424,9.8711,8.144.2471.3701.4941.8638.4941.9873,0,.4937-.4941.7402-1.2344.7402h-30.7256c-2.5918,0-4.6895.1235-9.3789.6172l-.8633-4.689ZM598.7061,55.0356c4.3193.9873,6.9102,1.2339,10.4893,1.2339h11.5986c2.4688-3.085,3.332-4.0723,6.2939-7.0337,4.1953,3.332,5.4297,4.3188,9.2549,7.7739.3701.4937.7402,1.1108.7402,1.2344,0,.4937-.4941.8638-.8643.8638h-27.0234c-3.9492,0-5.5537.123-9.502.6167l-.9873-4.689ZM598.8291,38.9937c4.4424.8643,7.0342,1.1108,10.3662,1.1108h13.0801c2.0977-2.4678,4.1953-4.8125,6.1699-7.1572,4.1953,3.4551,5.5527,4.5659,9.3779,8.1445.2471.3701.4932.8638.4932,1.1104,0,.3701-.4932.7407-1.3564.7407h-27.7646c-4.1963,0-5.6768.123-9.3789.7402l-.9873-4.6895ZM606.9736,111.4287c-.123.9873-.4932,1.2344-1.3574,1.4805-.9873.2471-2.9609.3701-4.0723.3701-1.8506,0-2.4678-.4932-2.7148-1.8506.3711-13.6973.3711-16.6592.3711-21.5947,0-6.54-.124-15.918-.3711-21.8418,4.1963,2.3447,5.3066,3.085,9.1318,5.5537h16.7822c1.4805-1.6045,3.085-3.332,4.6895-5.0596,3.085,2.0977,3.9482,2.8379,6.54,5.0596.8633.7402,1.4805,1.6035,1.4805,2.0977,0,.7402-.4932,1.1104-3.9492,3.208-.123,2.8379-.123,4.4424-.123,6.293,0,3.4551.2471,16.042.3701,19.25-.123.8643-.2471,1.2344-.8633,1.4814-.8643.4932-3.5791.8633-5.6768.8633-1.4805,0-1.8506-.3701-1.8506-1.4805v-1.9746h-18.3867v8.1445ZM606.9736,100.4463h18.3867v-24.0625h-18.3867v24.0625ZM708.2832,103.2842c-2.3447.4941-3.4551.9873-5.1826,2.5918-2.0977,1.8506-2.9609,3.208-3.9482,6.416-12.3398-5.4287-21.2246-11.3525-29.4922-19.7432-11.4766,10.1182-23.3223,16.4121-40.4746,21.4717l-.7402-1.8516c14.5605-6.293,25.4199-13.4502,36.7725-24.5557-7.0342-8.8848-10.9824-17.2764-14.0674-30.1099h-2.3447c-2.9619.1235-3.7021.2471-6.1699.7407l-.9873-4.8125c3.7021.8638,6.9102,1.1104,11.4766,1.1104h30.2324c2.0977-2.3447,2.8379-3.085,4.8125-5.3062,4.0723,2.8384,5.3057,3.7021,9.0078,6.54.8633.7407,1.2334,1.2339,1.2334,1.7275,0,.7407-1.6035,1.481-6.1689,2.8384-6.7871,13.9443-10.9824,20.2373-17.7695,27.3945,9.625,7.2803,18.6328,10.7354,33.9346,13.4502l-.124,2.0977ZM636.8359,52.1973c10.9824-11.1055,14.0674-20.3604,14.0674-41.7085,0-3.085-.123-4.5654-.4932-8.5142,4.3184,2.4678,5.5527,3.3315,9.3779,6.1699h16.4121c2.0977-2.3447,2.8379-3.085,4.9355-5.5532,3.209,2.4683,4.1953,3.2085,6.9102,5.5532,1.1113,1.1104,1.3574,1.604,1.3574,2.0977,0,.8638-.7402,1.481-4.5654,3.4551v22.4585c0,2.0977.4932,2.2212,6.6631,2.2212,3.9492,0,5.1826-.3701,6.1699-1.7275.9873-1.481,1.3574-2.9614,5.1826-18.0161l1.6045.1235-1.1104,15.918v.4937c0,1.8511.123,1.9746,2.5908,3.2085.8643.4937,1.4814,1.481,1.4814,2.5913,0,3.4551-3.332,4.3188-16.6592,4.3188-7.8975,0-10.3652-.2466-11.8457-1.1104-1.6045-.9873-2.0977-2.4683-2.0977-5.6763v-.3706c.123-3.208.123-4.3188.123-7.6504V10.9824h-17.7695c-.8633,15.3013-2.0977,20.978-6.293,27.7646-3.7021,6.0464-7.5273,9.7485-15.0547,14.6846l-.9873-1.2344ZM654.1113,57.3804c2.5918,10.1187,7.4043,18.1392,15.3018,25.9136,6.417-7.5273,9.9951-13.8203,14.5605-25.9136h-29.8623Z" fill="#f0f" stroke-width="0"/>
    <path d="M741.7188,23.8159c3.332.6172,7.2812.9873,10.7363.9873h26.6533c2.9619-3.332,3.9492-4.4424,6.9102-7.6509,4.5664,3.7021,5.9238,4.936,10.1191,8.7612.3701.3701.4932.7407.4932.8638,0,.3706-.4932.8638-.8633.8638h-43.9297c-4.3193,0-5.9229.1235-9.3779.6172l-.7412-4.4424ZM746.9014,40.3511c3.9492.7407,6.417.9873,9.625.9873h15.9189c2.7148-2.9614,3.4551-3.9487,6.1699-6.7866,4.1953,3.085,5.4297,4.1953,9.2549,7.7739.3701.3701.4932.8638.4932,1.1104,0,.3706-.4932.7407-.9873.7407h-30.8496c-3.7012,0-5.3057.123-8.8838.3701l-.7412-4.1958ZM747.2725,7.0337c2.7139.4937,6.6631.8638,9.2539.8638h17.0293c2.9619-3.3315,3.8252-4.3188,6.9102-7.2803,4.3193,3.4551,5.6768,4.5659,9.9951,8.021.4941.6167.7402.9868.7402,1.2339,0,.4937-.4932.8638-1.2334.8638h-33.4414c-3.7012,0-5.3057.1235-8.5137.4937l-.7402-4.1958ZM747.2725,57.2568c3.208.7402,5.1826.8638,9.2539.8638h16.166c2.7139-3.2085,3.5781-4.1958,6.293-7.4038,3.9482,3.4551,5.1826,4.5654,8.8848,8.144.4932.6172.7402.9873.7402,1.2339,0,.4937-.4941.8638-.9873.8638h-31.0967c-2.8379,0-4.8125.1235-8.6377.4937l-.6162-4.1953ZM756.4033,109.9482c0,1.9736-1.1104,2.3438-6.417,2.3438-1.4805,0-1.9736-.3701-2.0977-1.6035.2471-6.1699.4941-21.3477.4941-32.7002,0-3.5791-.124-5.1836-.4941-9.3789,4.1963,2.5918,5.4297,3.4551,9.502,6.417h17.6455c1.7275-1.9746,3.5791-3.9492,5.3066-5.9229l7.4033,5.9229c.124.3701.2471.6172.2471.7402.123.3701.2471.6172.2471.8643,0,.7402-1.3574,2.2207-3.8252,3.9482v3.4551c0,9.1318.123,20.6074.3701,24.4326-.124,1.1113-.3701,1.6045-1.3574,1.8516-.9873.2461-3.5791.4932-5.0596.4932-1.3574,0-1.9746-.4932-2.0977-1.6045v-5.3057h-19.8672v6.0469ZM756.4033,101.0635h19.8672v-23.1992h-19.8672v23.1992ZM836.6123,44.1768c3.208-4.1958,4.3184-5.4297,8.0205-9.3784,4.8125,3.9487,6.293,5.1826,10.7354,9.3784.4941.6167.7412,1.2339.7412,1.604,0,.6172-.7412,1.1104-1.4814,1.1104h-30.4795c0,34.4282,0,39.1177.7412,63.0571-.124.9873-.3701,1.4805-1.1113,1.7275-.8633.3701-3.9482.7402-6.293.7402-1.7275,0-2.3447-.3701-2.3447-1.7275.3701-14.5615.6172-33.4414.6172-55.7764,0-.9873,0-4.5654-.123-8.021h-15.1787c-4.5654,0-6.1699.1235-9.9951.6172l-.7402-4.4424c3.332.7407,7.0342,1.1108,10.7354,1.1108h15.1787c-.124-34.7983-.124-36.1558-.9873-41.4619,2.8379.2471,5.0586.3701,6.416.4937,6.54.4937,8.5146.9873,8.5146,2.2212,0,1.1104-.6172,1.481-5.4297,3.2085v35.5386h12.4639Z" fill="#f0f" stroke-width="0"/>
    <path d="M948.4062,46.0273v9.9956h26.9004c1.8506-2.0981,2.4678-2.7148,4.4424-4.8125,3.332,2.0977,4.3184,2.8379,7.4033,5.0591.7412.6172,1.1113.9873,1.1113,1.481,0,.7402-.3701,1.1104-3.5791,3.085l.124,9.5015h2.3438c2.9619-3.208,3.8262-4.1953,6.7871-7.4038,4.0723,3.4556,5.3066,4.5659,9.2549,8.3911.4941.4941.7402.8643.7402,1.1104,0,.3701-.4932.7412-1.1104.7412h-18.0156c.123,11.1055.2461,18.2627.3701,21.2236,0,.8643-.2471,1.2344-.8643,1.4814-.8633.2461-3.8252.6162-5.9229.6162-1.3574,0-1.9746-.3701-1.9746-1.2334v-6.9102h-27.8877q.123,1.4805.123,6.0459l.2471,9.1318c0,3.332-.123,4.1953-.7402,5.1826-1.2344,1.9746-4.3193,3.332-12.71,5.1826-.2471-5.9229-.9873-6.293-19.25-9.2549v-1.8506c14.0674.8633,15.4248.8633,19.0029.8633h3.4551c1.4805,0,1.8516-.3701,1.8516-1.4805v-13.8203h-30.8496c-3.209,0-4.6895.123-7.6514.6172l-.4932-4.4424c3.208.7402,4.9355.9863,8.3906.9863h30.6035v-12.3389h-42.8193c-3.4551,0-4.4424.123-7.0342.4932l-.6162-4.1953c2.7139.6172,4.3184.8633,7.6504.8633h42.8193v-11.4761h-32.207c-3.332,0-4.3193.1235-6.2939.4937l-.4932-4.1953c2.3447.7402,3.7021.8638,6.7871.8638h32.207v-9.9956h-25.791v2.9619c0,.8638-.2461,1.2339-.8633,1.4805-.4932.1235-3.8252.4937-5.5527.4937-.9873,0-1.3574-.2466-1.3574-1.1104.2471-7.5273.3701-11.2295.3701-18.2632,0-4.0718,0-5.0591-.123-8.3911,3.5781,1.8511,4.6885,2.4683,8.0205,4.4424h25.2969v-9.625h-40.9688c-4.0723,0-5.1826.1235-7.6504.4937l-.4932-4.1953c2.9609.7402,4.4414.8638,8.2676.8638h40.8447c-.124-8.021-.124-9.0083-.6172-14.4375,12.4629,1.604,13.3271,1.8506,13.3271,3.208,0,.9873-1.1113,1.6045-4.8125,2.7148v8.5146h35.415c3.085-3.5786,3.9482-4.5659,7.0332-7.8975,4.8125,3.7017,6.1699,4.936,10.4893,9.0078.2461.3701.4932.7407.4932,1.1108,0,.2466-.4932.6167-.9873.6167h-52.4434v9.625h25.543c1.8506-1.8506,2.4678-2.4678,4.5654-4.4424,3.085,2.0981,3.9492,2.7148,6.7871,4.936.8643.6172,1.1104.9873,1.1104,1.3574,0,.8638-.4932,1.2339-3.5781,2.8384,0,9.0078,0,9.2549.2471,14.8076,0,1.481-.7412,1.8511-4.0723,1.9741-.9873,0-1.7275.1235-2.2217.1235h-.3701c-.9873,0-1.3574-.2466-1.3574-1.2339v-1.9746h-26.6533ZM940.5088,30.4795h-25.791v12.71h25.791v-12.71ZM975.0596,30.4795h-26.6533v12.71h26.6533v-12.71ZM976.417,58.8608h-28.0107v11.4761h28.0107v-11.4761ZM948.4062,73.1758v8.0205l.123,4.3184h27.8877v-12.3389h-28.0107Z" fill="#f0f" stroke-width="0"/>
    <path d="M1075.5,8.7612c1.7285-2.3442,2.3447-3.085,4.3193-5.1826,4.0723,2.7148,5.1826,3.5786,9.0078,6.54.6172.7407.8643,1.1108.8643,1.6045,0,.9868-1.1104,1.3574-5.0596,1.604-8.7607,7.6509-11.8457,9.9951-17.1523,13.2036,2.3447,1.8511,3.208,3.4551,3.208,5.4297,0,1.4805-.4932,2.9614-1.3564,4.689-.7412,1.3574-1.1113,1.7275-2.3447,2.5913h10.2422c2.0977-2.2212,2.7139-2.8384,5.0586-4.936,3.332,2.3447,4.3193,3.085,7.5273,5.4297.9873.8638,1.4805,1.4805,1.4805,1.9741v.1235q-.123.8638-5.9229,1.9746c-5.5527,8.0205-7.4033,10.1182-12.5859,15.6714l-1.3574-.8638c2.7148-5.6763,2.7148-5.7998,5.7998-16.5356h-9.749v30.2329c0,17.7695.123,27.6416.123,29.4922,0,6.1699-2.7139,8.5146-12.4629,10.6123-.4932-7.0342-1.9746-8.0215-14.1904-9.502l.2471-1.9746c2.2207.124,3.9482.2471,5.0586.2471,7.0342.4941,7.1572.4941,11.8467.6172,1.4805-.123,1.8506-.4941,1.8506-1.6045v-40.9683c-7.5273,14.8081-12.71,21.2251-25.2959,31.0972l-1.2344-1.3574c8.1445-8.7617,12.833-15.3018,17.6455-24.4336,3.8252-7.2803,5.3066-11.3525,8.6377-22.4585h-12.2158q-4.8125,0-10.4893.6172l-1.1104-4.3188c4.8125.7402,6.7871.8638,10.9824.8638h19.127q-.9873-.8638-2.4678-3.7021c-4.3193-8.5142-6.1699-10.6118-15.1787-18.2627l1.2344-1.3574c8.5146,4.1958,12.0928,6.2935,15.6719,8.8848,4.3184-4.4424,6.1699-6.7871,10.2412-13.2036h-25.9131c-4.1953,0-7.2803.1235-10.9824.6172l-.9873-4.3193c5.3066.7407,7.4043.8638,11.9697.8638h25.9131ZM1104.1289,69.4736c.9873-4.5664,1.4805-8.2681,1.4805-11.7231,0-.2471,0-1.3574-.123-2.3447,10.9824.9873,13.0801,1.481,13.0801,2.7148,0,.3701-.3701.7402-.7402.9873-.3701.2466-1.8516.7402-4.1953,1.604-.7412,4.6895-1.1113,6.417-1.6045,8.7617h20.4844c1.8506-2.5918,2.4678-3.332,4.3184-5.6768,3.4551,2.3447,4.5654,3.085,7.7744,5.5527,1.2334.8643,1.6035,1.3574,1.6035,1.8516,0,.9873-1.4805,1.9746-4.6885,3.208-1.3574,16.5352-3.085,24.6797-6.417,30.4795-2.4678,4.3184-6.54,6.1699-14.1904,6.6631-1.1113-6.54-3.209-7.7734-18.0166-10.2422l.2471-2.0977c2.7148.2471,4.8125.4941,6.1699.7412,8.0205.8633,13.3271,1.3564,16.5352,1.3564,1.9746,0,2.8379-.8633,3.8252-4.0713,1.9746-5.9238,3.332-14.9316,3.7021-24.9268h-21.9648c-2.5908,9.3779-6.293,16.2881-12.3398,22.9521-5.3057,5.7998-11.9697,10.4883-19.4971,13.8203-3.4551,1.4805-6.0459,2.3447-11.9697,3.9492l-1.1104-1.9746c7.1572-2.7148,10.8594-4.6895,16.4121-8.6377,11.1055-8.0215,16.9053-16.4121,20.4844-30.1094h-12.834c-3.9482,0-7.2803.123-11.8457.6172l-.7402-4.3193q7.4033.8643,12.5859.8643h13.5742ZM1138.6797,20.2373c-4.8125,8.6382-9.0078,13.8208-17.2754,21.4712,9.502,5.3062,18.2627,7.7744,31.5898,8.8848v1.7275c-4.6885.9873-6.293,2.7148-7.7734,8.021-12.957-4.5659-20.1143-8.2676-28.2588-14.8076-10.3652,8.2676-22.7051,13.5737-42.2021,18.1392l-.7402-2.0977c17.0293-5.7998,27.5176-11.4761,38.0068-20.6074-6.1699-6.1699-9.8721-11.3525-13.4502-18.6333-4.5664,5.6768-7.0342,8.1445-12.71,12.8335l-1.2344-1.3574c9.0078-11.4761,13.3271-20.1138,17.1523-33.811,2.7148.7407,4.9355,1.481,6.293,1.8511,5.1826,1.481,6.0469,1.8511,6.0469,2.9614s-1.4805,1.7275-5.5527,2.0981c-3.085,5.1826-4.1953,7.1567-6.417,10.4888h31.7129c2.9619-3.2085,3.9492-4.1958,6.6641-7.4038,4.6895,3.4551,6.0459,4.689,10.6123,8.3906.123.3706.3701.8643.3701.9873,0,.4937-.4941.8638-1.1104.8638h-11.7236ZM1115.4814,37.7598c6.0469-5.9229,9.2549-10.2417,13.2031-17.5225h-28.5049c3.4551,6.6636,7.7744,11.5996,15.3018,17.5225Z" fill="#f0f" stroke-width="0"/>
    <path d="M1202.7188,61.3291c-.6172,9.0078-2.0977,16.6592-4.5664,24.3096-3.4551,10.2422-6.7861,16.165-14.3135,25.0498l-1.4814-1.3574c4.3193-6.9102,5.5537-10.1191,8.1445-19.8672,3.085-11.5996,3.9492-18.8799,4.3193-36.896.123-8.7612.123-11.7231.123-17.3994,0-4.3188-.123-7.1567-.6172-11.9697,4.5664,2.0981,5.9238,2.8384,10.2422,5.5532h19.9902c2.0977-2.4683,2.7148-3.2085,4.8125-5.5532,3.209,2.2212,4.1963,2.9619,7.1572,5.5532.4941.3701.8643.8638.8643,1.2339s-1.3574,1.604-2.9619,2.5913v5.5527c0,2.3447.123,7.6509.2471,13.6973q.123,8.021.2471,14.6846c0,.9873-.2471,1.3574-.8643,1.7275-.7402.2471-4.6895.7402-6.6631.7402-.8643,0-1.2344-.3701-1.2344-1.6035v-6.0469h-23.4453ZM1187.0469,8.1445c4.8125.7402,8.7617.9873,14.0674.9873h25.0498c2.9619-3.2085,3.8252-4.1958,6.9102-7.5273,4.3193,3.4551,5.5527,4.689,9.8721,8.7612.2471.4937.3701.8638.3701.9873,0,.4932-.6172.9868-1.2344.9868h-40.9678c-7.1572,0-8.6377.1235-13.0801.7407l-.9873-4.936ZM1226.1641,31.5898h-22.7051q-.3701,22.0884-.4941,26.9009h23.1992v-26.9009ZM1253.3115,44.4233c-.123,1.604-.123,3.085-.123,3.9487-.4941,16.9062-3.332,28.875-9.749,39.6113-3.9482,6.7861-9.0078,12.4629-14.9307,17.0283-2.3447,1.8516-4.5654,3.209-9.2549,5.9238l-1.1104-1.8516c7.7734-6.1699,11.2285-9.748,15.1777-15.5479,7.2803-10.4893,10.6123-22.335,11.3525-39.9814.3701-8.2676.6172-22.4585.6172-30.8491,0-4.3193-.124-6.417-.3701-11.3525,4.6885,2.5913,6.0459,3.4551,10.6123,6.54,7.0332-2.3447,12.5859-4.936,19.6201-9.2549,4.8125-2.9619,6.54-4.3188,9.3779-7.4038,2.5918,1.4805,4.5654,2.5913,5.9229,3.3315,3.7021,2.0977,5.9238,3.8252,5.9238,4.8125,0,.7402-.9873,1.2339-2.5918,1.2339-.7402,0-1.9746-.1235-4.0723-.6167-12.957,5.6763-21.4707,8.144-35.9082,10.4888q-.124,6.54-.4941,21.1011h30.2324c2.8379-3.7021,3.7021-4.936,6.7871-8.6382,4.5654,4.1958,5.9229,5.5532,10.2422,9.7485.4932.4937.6172.8638.6172,1.1108,0,.3701-.4941.6167-1.4814.6167h-21.2246v31.5903c0,8.8848.124,19.0029.4941,32.207,0,1.1104-.2471,1.4805-1.1104,1.7275-1.3574.3701-3.209.6162-5.5537.6162-1.7275,0-2.2207-.2461-2.4678-1.1104.3701-9.0078.4941-16.042.4941-32.5771v-32.4536h-17.0293Z" fill="#f0f" stroke-width="0"/>
  </g>
  <g>
    <path d="M299.3755,191.333c.9927,0,5.3159.3545,7.0879.3545,3.4023,0,6.875-.1416,7.6548-.1416.5669,0,1.9136.3545,1.9136,1.1338,0,.8506-1.2046,1.4883-1.772,1.6299-3.1895.7803-3.7563,1.7012-3.7563,2.835,0,.9219-.3545,12.0498-.1416,13.6797.0708.3545.2832.5664.7793.5664.2837,0,.8506-.1416,1.7012-.9209,4.6069-3.8984,12.687-11.624,14.6714-13.9629.5674-.709.2837-1.4883-2.126-1.9844-1.3467-.2832-2.0557-.8506-2.0557-1.6299,0-.3545.4961-1.2051,1.772-1.2051h3.8276c4.1108-.0713,7.4419-.4961,10.2061-.4961,2.1265,0,2.6226.6377,2.6226,1.3467,0,.4961-.709,1.2051-2.2681,1.4883-3.1187.5664-5.8828,1.9131-8.7178,4.1816-2.9062,2.2676-5.5996,4.5361-12.8999,11.4111-.2124.1416-.2124.709,0,.9922,5.9536,6.7334,13.9629,14.7422,16.8687,17.5068,2.7646,2.6221,4.5361,3.4727,7.6548,4.4648,1.5596.4961,2.0557.8506,2.0557,1.7012,0,.3545-.7798,1.2051-2.0557,1.2051-3.3311,0-9.71-.4961-12.4033-.4961h-3.6147c-.9922,0-1.7012-.6377-1.7012-1.2754,0-.5674.5674-1.1348,1.8428-1.4893,1.7012-.4961,1.9849-1.2754.9922-2.4092-2.6221-2.9766-11.1982-11.9072-14.6006-15.3096-.7793-.709-1.4883-.9922-1.772-.9922-.4961,0-.7793.5664-.7793,1.3467,0,3.2598-.0708,9.9229.2124,13.5371.2837,3.1191,1.6304,3.4023,4.2529,3.9697,1.9844.4248,2.4097,1.0625,2.4097,1.6299,0,.709-1.063,1.2754-1.9136,1.2754s-4.9614-.2832-7.1587-.2832c-3.3315,0-7.9385.4248-9.2139.4248-.8506,0-2.0557-.4248-2.0557-1.2041,0-.8506.709-1.2764,1.9136-1.5596,3.7568-.9219,4.749-1.7012,4.9614-4.6777.1416-2.4102.2837-5.1738.2837-17.1523,0-10.915,0-11.9072-.1421-13.3252-.1416-1.2754-.2124-2.3389-4.1108-3.2598-1.5591-.3545-2.3389-.9932-2.3389-1.6309,0-.5664.8506-1.2754,1.9136-1.2754Z" fill="#f0f" stroke-width="0"/>
    <path d="M402.5674,213.1631c0,7.5127-3.9692,15.7344-11.7656,20.1289-3.0479,1.7012-7.3003,2.9766-11.8364,2.9766-13.2539,0-23.5312-10.2764-23.5312-22.751,0-5.5283,2.1973-11.4824,6.3789-15.7354,4.3237-4.3232,10.8442-7.3711,17.1523-7.3711,13.1123,0,23.6021,9.498,23.6021,22.752ZM368.4048,197.499c-3.0479,3.1895-5.2451,8.0801-5.2451,15.168,0,9.9229,6.5918,20.5547,17.436,20.5547,3.1895,0,6.3789-1.0635,8.7178-3.2607,2.835-2.6934,5.4575-7.8672,5.4575-16.5146,0-10.0645-6.5918-20.0576-17.0815-20.0576-3.4019,0-7.1587,2.0547-9.2847,4.1104Z" fill="#f0f" stroke-width="0"/>
    <path d="M420.2817,191.4033c1.772,0,9.4268.2842,9.8521.2842s1.063.6377,1.2051.9922c.2832,1.0635,1.063,2.7637,2.5513,6.2373,1.5596,3.6143,9.8521,20.9082,11.9077,24.7354.1416.2842.5669.2129.9922-.6377.4961-.9209,10.5605-21.1211,12.2617-24.4521,1.4883-3.1191,2.1973-4.6074,2.5513-5.8125.0713-.4248.8506-1.0625,1.2759-1.0625,1.2051,0,6.875-.3545,9.1431-.3545.709,0,2.2681.2832,2.2681,1.3467,0,.6377-.4253.9922-2.1968,1.417-4.2529.9219-5.2451,2.1973-5.2451,3.4023,0,11.4824.4961,23.6025.7798,28.3506.2124,5.1748,1.5591,5.7412,4.4653,6.7334,1.5591.4961,2.1968,1.1348,2.1968,1.5596,0,.709-.7085,1.2754-2.0552,1.2754-.8506,0-7.584-.4248-9.4976-.4248-2.1265,0-3.4731.2129-5.1738.2129-1.1343,0-2.1973-.4961-2.1973-1.2051,0-.7793.9214-1.2764,2.4097-1.6299,2.5518-.709,2.9771-1.4893,3.0479-5.3867.0708-1.8428.0708-17.3652.0708-24.1689,0-.4971-.7798-.1426-.8506,0-1.4883,2.6924-9.1431,19.207-10.2065,21.4043-.8501,1.7725-3.0474,6.7334-3.7563,8.7891-.5669,1.7012-1.6299,2.4805-2.4805,2.4805-.6382,0-1.2759-1.2051-1.772-2.4102-.8506-1.8428-2.9062-7.6543-3.6147-9.4971-2.6226-6.4502-7.0879-15.5225-9.1431-20.5547-.0708-.0703-.6382-.6377-.709-.0703-.6377,6.2373-1.2759,20.2705-1.2759,23.8857,0,4.252.9214,4.6777,4.2529,5.5283,1.6299.3535,1.9136.9922,1.9136,1.6299,0,.7793-1.2051,1.2051-2.2681,1.2051-.9922,0-3.4731-.2129-5.5283-.2129-2.2681,0-6.8042.3545-7.7256.3545-1.3467,0-2.2681-.3545-2.2681-1.2764,0-.6377.4961-1.1338,2.1973-1.5586,3.2603-.7803,4.7485-2.4805,5.2446-5.458.8506-4.8906,2.6226-25.6572,2.6226-27.3584,0-4.04-.709-4.8193-5.3867-5.6699-1.063-.1416-1.9136-.6377-1.9136-1.1338,0-.7803,1.2046-1.4893,2.0552-1.4893Z" fill="#f0f" stroke-width="0"/>
    <path d="M493.1377,201.9648c0-6.0254-.3545-6.7334-4.8906-7.7969-1.2051-.2832-1.772-.9922-1.772-1.6299,0-.4258,1.2051-1.0635,2.2681-1.0635,1.3467,0,3.9692.2129,7.0879.2129,4.2524,0,6.166-.2842,8.2217-.2842.8506,0,1.7012.5674,1.7012,1.2764,0,.6377-.9214,1.1338-1.4888,1.2754-4.1108,1.0635-4.394,1.8428-4.5361,5.458-.1416,2.9053-.1416,10.6318-.1416,15.4512,0,7.7256.0708,11.6943.0708,12.6162.1421,3.3311,1.0635,3.9688,5.3159,5.0322,1.3467.3545,1.8428.8506,1.8428,1.417,0,.9219-1.4883,1.3467-2.3389,1.3467-.709,0-5.812-.2832-8.2217-.2832-2.481,0-6.6626.4248-7.9385.4248-.9214,0-1.9136-.4961-1.9136-1.0625,0-.6377.8506-1.2764,1.772-1.6309,3.6855-1.2754,4.2524-1.9131,4.4653-3.3311.2124-1.4883.4961-11.9072.4961-17.7188v-9.71Z" fill="#f0f" stroke-width="0"/>
    <path d="M518.5796,191.2617c2.835,0,8.2925.4258,10.4189.4258.3545,0,1.3467.9209,1.4175,1.0625.7085,1.2051,3.4019,4.5361,6.8042,8.2227,3.7563,4.0391,17.0815,19.2783,19.7744,21.7588.2129.2129.6382-.1416.709-.4961.1416-1.418.4961-14.2461.1416-19.9873-.354-5.9541-.4253-6.875-5.2446-7.9385-1.7012-.3545-1.9849-1.1338-1.9849-1.5596,0-.4961.6382-1.1338,2.1265-1.1338,2.5518,0,3.1187.0713,4.9614.0713,2.9058,0,6.5918-.4258,8.0093-.4258,1.4883,0,2.1973.709,2.1973,1.2764,0,.4248-.2129.9209-2.6226,1.6299-2.4102.7793-3.4023,1.9844-3.5439,3.5439-.2129,2.2676-.6377,17.2227-.6377,24.0977,0,3.1191.1416,7.7969.1416,11.0576,0,2.9766-.6382,3.4727-1.4883,3.4727-.3545,0-1.8433-.7793-2.6934-2.0557-1.772-2.4805-5.4575-7.1582-7.4424-9.3555-2.6934-3.1191-16.3726-18.8535-19.4912-22.2559-.4253-.3545-.7085,0-.7793.709-.0713,1.5596-.2837,4.6074-.2837,7.6553,0,3.1895.2124,10.9854.2837,12.8994.2124,6.2373.5669,6.9453,4.5361,8.2217,1.6299.4961,2.3389.9922,2.3389,1.9131,0,.8506-1.3467,1.2051-2.2681,1.2051-1.9849,0-3.4023-.2832-5.1035-.2832-3.3311,0-7.6543.4248-8.5757.4248-1.1343,0-2.2681-.2832-2.2681-1.2041,0-.6387.6377-1.2051,1.9136-1.5596,4.6069-1.2051,5.0322-2.9766,5.2446-5.8115.3545-4.749.9214-25.0205.9214-27.2881,0-.9219-.4961-1.9844-2.4097-3.7568-.9922-1.0625-3.1187-1.6299-4.4653-1.8428-1.1338-.1416-2.1265-.9922-2.1265-1.8428,0-.4961.5674-.8506,1.4888-.8506Z" fill="#f0f" stroke-width="0"/>
    <path d="M627.6533,213.1631c0,7.5127-3.9692,15.7344-11.7656,20.1289-3.0479,1.7012-7.3003,2.9766-11.8364,2.9766-13.2539,0-23.5312-10.2764-23.5312-22.751,0-5.5283,2.1973-11.4824,6.3789-15.7354,4.3237-4.3232,10.8442-7.3711,17.1523-7.3711,13.1123,0,23.6021,9.498,23.6021,22.752ZM593.4907,197.499c-3.0479,3.1895-5.2451,8.0801-5.2451,15.168,0,9.9229,6.5918,20.5547,17.436,20.5547,3.1895,0,6.3789-1.0635,8.7178-3.2607,2.835-2.6934,5.4575-7.8672,5.4575-16.5146,0-10.0645-6.5918-20.0576-17.0815-20.0576-3.4019,0-7.1587,2.0547-9.2847,4.1104Z" fill="#f0f" stroke-width="0"/>
    <path d="M671.3799,210.1865c-.5674.5664-3.6855,2.6221-4.3232,2.9053-.2842.0713-.3545.709-.2129,1.0635.9922,1.9844,6.166,9.9229,9.4971,13.6797,3.4736,3.8975,5.458,4.8896,8.3643,5.5986.708.1416.9922.6377.9922,1.0635,0,1.3467-3.2607,1.7012-4.1113,1.7012-3.1182,0-7.2998-.4258-12.5449-7.2295-2.5518-3.3311-6.6631-9.4268-8.0098-11.3408-1.6299-2.2676-3.4014-2.3389-5.8115-2.3389-.5674,0-.9922.6377-.9922,1.0635,0,5.6699.0703,9.2852.2832,11.7656.2129,2.5518,1.1338,3.4727,4.3945,4.3232,1.3467.3545,1.9141.7803,1.9141,1.5596,0,.8506-1.2051,1.2754-2.2686,1.2754-1.7715,0-5.457-.2832-7.9385-.2832-2.1968,0-3.4019.2832-6.0239.2832-1.7012,0-2.5518-.4961-2.5518-1.2051,0-.6377.709-1.0625,1.9844-1.4883,2.7642-.9209,3.6855-1.2754,3.8276-4.8193.0708-2.5518.0708-4.8906.0708-17.6484,0-8.5762-.1416-11.624-.2837-13.1123-.1416-1.417-1.2046-2.1973-3.8979-2.6934-1.2051-.2129-2.0557-.7793-2.0557-1.417,0-1.0635,1.3467-1.3467,2.835-1.3467h6.2378c2.6934,0,5.5986-.3545,9.001-.3545,6.2373,0,8.8594,1.417,10.5605,2.6934,3.3311,2.5508,4.3945,5.5986,4.3945,8.7178,0,2.6221-1.2754,5.6699-3.3311,7.584ZM658.0547,194.0264c-.9209,0-2.4805.2832-3.1895.5664-.4248.1426-.7793.7803-.7793,1.418-.1416,3.8984,0,11.5527.1416,15.0967,0,.4258.2129.709.5674.8506,1.5586.4258,2.9053.6377,4.252.6377,1.0635,0,5.0322-1.2754,6.5918-2.6934,1.1338-1.1338,2.3389-3.5439,2.3389-6.3789,0-5.1025-2.6934-9.4971-9.9229-9.4971Z" fill="#f0f" stroke-width="0"/>
    <path d="M695.8271,191.333c2.1973,0,5.5986.3545,7.9385.3545,3.1182,0,5.3857-.2129,6.3789-.2129,1.5586,0,2.1963.5674,2.1963,1.2754,0,.6387-1.0625,1.2764-2.126,1.4893-3.6143.708-4.1104,1.3467-4.3945,5.3154-.2832,3.8271-.2119,10.7021.0713,17.4355.2832,6.9463,1.8428,9.1436,3.6143,11.1279,1.8428,1.9844,5.8828,3.6855,9.3564,3.6855,6.0947,0,10.9854-3.3311,12.1201-12.4033.4248-3.0479.5664-11.0566.5664-15.168,0-8.1504-.5664-9.0723-5.1025-9.9932-1.418-.2842-1.9854-.9932-1.9854-1.4893,0-.5664.709-1.2754,2.1973-1.2754,1.418,0,2.623.2129,5.3164.2129,2.5508,0,6.6621-.3545,8.2217-.3545.8506,0,1.9131.2832,1.9131,1.2051,0,.4248-.6377,1.2754-2.0547,1.6299-3.6152.9219-3.9697,1.418-4.3945,4.8906-.1416.8506-.4961,9.3555-.7803,14.8135-.5664,10.4893-2.4805,15.0254-5.9531,18.3564-2.9062,2.8359-7.6553,4.04-11.8369,4.04-5.3154,0-11.0566-2.1973-13.8916-5.8828-3.9688-5.2441-3.8271-12.5449-3.8271-17.0098,0-6.7334-.2842-12.2617-.4258-15.2393-.1416-2.9766-1.417-3.3311-4.1104-4.04-1.418-.3535-1.9844-.9209-1.9844-1.5586,0-.9922,1.0625-1.2051,2.9766-1.2051Z" fill="#f0f" stroke-width="0"/>
    <path d="M782.5723,191.6875c2.4814,0,7.4424-.5674,12.4043-.5674,6.8037,0,13.3955,1.418,18.6406,5.8828,5.9531,4.9619,7.2998,11.5527,7.2998,15.9473,0,10.8447-6.7334,16.7275-10.5605,18.8535-5.0322,2.6934-11.1279,3.7568-16.3721,3.7568-2.9062,0-9.3564-.5674-11.624-.5674s-6.3789.3545-7.9385.3545c-.4961,0-1.1338-.4258-1.1338-.9219,0-.7793.8506-1.6299,2.6221-2.126,2.0557-.5674,4.4658-1.2051,4.8193-4.3945.2842-3.2598.4961-6.875.4961-16.2305,0-9.6396-.1416-13.2539-.4248-14.5303-.1416-.7793-.5674-2.0547-4.3945-2.5518-1.7012-.2119-2.5518-.9209-2.5518-1.5586,0-.7803,1.0635-1.3467,2.9062-1.3467h5.8115ZM787.6758,213.6592c0,9.0723.1416,10.3477.4258,12.5449.4961,3.1191,1.7715,4.3242,2.4092,4.6777.8506.4971,4.2529,1.6309,6.5205,1.6309,1.7012,0,8.0098-1.8428,11.1992-5.0322,3.3311-3.3311,5.2451-8.1514,5.2451-14.3174,0-5.3867-1.7012-10.3477-5.3164-13.8916-3.3311-3.2607-8.8594-5.1748-14.0332-5.1748-.709,0-4.04.3545-5.0322.709-.3545.0713-1.1348.9922-1.2051,1.418-.0713,1.8428-.2129,7.3711-.2129,12.6865v4.749Z" fill="#f0f" stroke-width="0"/>
    <path d="M857.4141,209.6191c.9219,1.3467,1.2051,3.1895,1.2051,4.9609,0,.7803-1.2051,2.127-1.9141,2.127-.4961,0-13.9629.2129-15.2383.2129-.2129,0-.9922.4248-1.1338.7793-.2842.4961-.3545,1.7715-.3545,2.1973,0,6.3076,4.749,11.1279,10.8438,11.1279,2.7646,0,5.8125-1.7725,7.1592-2.6934.2832-.2129.8506.1416.8506.9209,0,.7803-.3545,1.5596-.9219,2.1973-2.6221,2.7646-6.3789,4.3945-10.1357,4.3945-8.8594,0-13.8916-6.0244-13.8916-14.6719,0-5.7412,2.623-10.6309,6.875-13.3955,2.3389-1.5596,5.3164-2.4102,8.293-2.4102,3.4023,0,6.6621,1.4883,8.3633,4.2529ZM840.8291,213.6592c-.0713.2832.2832.709.4248.709.7803.0703,3.1191.1416,5.1738.1416,2.6934,0,5.9541-.1416,5.9541-2.5518,0-2.126-1.7012-4.04-5.457-4.04-1.7725,0-5.1748,2.1973-6.0957,5.7412Z" fill="#f0f" stroke-width="0"/>
    <path d="M886.6816,205.9336c.7793.2129,1.6299.4248,2.2686.6377.3535.1416,1.1338,1.1338,1.2041,1.418.1416.4248.1416,3.1182.1416,3.8984,0,.4961-.5664,2.0547-1.5586,2.0547-.2842,0-.9219-.6377-1.5596-1.9131-1.5596-2.9062-3.8984-4.1113-5.3867-4.1113-1.6299,0-4.1104,1.5596-4.1104,4.1816,0,3.4736,3.0469,4.3945,6.7324,6.3086,3.6865,1.9131,6.8047,4.1104,6.8047,8.292,0,4.04-2.6221,6.5918-5.3154,7.7969-2.0557.9922-4.3242,1.3467-6.0957,1.3467-4.3232,0-6.4502-.9922-7.2295-1.7725-.709-.708-1.418-3.8271-1.418-5.1025,0-1.8428.4961-2.3389,1.2764-2.3389.4248,0,.9209.4961,1.8428,1.9131,2.0557,3.1895,4.5361,4.5361,6.4492,4.5361,3.1895,0,4.9619-2.126,4.9619-4.3936,0-1.3467-.7793-2.8359-2.5518-3.9697-1.8428-1.1338-3.4727-1.9131-5.5996-3.1182-2.3389-1.3467-5.1025-3.5439-5.1025-7.7256,0-3.4023,1.9131-5.3867,3.6143-6.6631,1.6309-1.0625,4.6074-1.8428,6.167-1.8428,1.8428,0,3.4727.2129,4.4648.5674Z" fill="#f0f" stroke-width="0"/>
    <path d="M905.1787,207.6348c3.543-1.2764,6.4492-2.3389,7.6543-2.3389.2832,0,.709.9209.709,1.1338v12.9707c.0703,9.2852.2119,10.6318.2832,11.2695.0713.5664.3545,1.2754,2.9062,1.9844.9922.2832,1.7012.9209,1.7012,1.6299,0,.6377-1.1348.9219-2.0557.9219-1.4883,0-4.3945-.2129-5.9541-.2129-3.6143,0-4.9609.2129-5.9531.2129-1.418,0-2.127-.4258-2.127-1.0635s.709-1.1338,1.7012-1.418c3.1191-.7793,3.2607-1.3457,3.5439-4.252.1416-1.4883.2842-6.3086.2842-10.3486,0-1.417,0-5.1025-.0713-5.5283-.0713-.5664-.709-1.3467-2.7646-2.6934-.4961-.2832-.7793-1.1338-.7793-1.417,0-.3545.4961-.709.9219-.8506ZM912.6201,191.5459c.8506.9922,1.2051,2.3389,1.2051,2.9053,0,2.835-2.4805,4.04-3.7568,4.04-1.0625,0-2.2676-.709-3.0469-1.6299-.4258-.709-.709-1.2051-.709-2.126,0-2.3389,1.6299-4.04,4.1104-4.04.9922,0,1.6309.3545,2.1973.8506Z" fill="#f0f" stroke-width="0"/>
    <path d="M947.4189,206.4297c.9209.2832,1.9131.4961,2.6221.4961.8506,0,7.3008-.0713,7.7256-.0713.5674,0,1.0635,1.9141,1.0635,2.9062,0,.709-.7803,1.2051-.8506,1.2051-1.5596,0-4.6074-.3545-6.166-.4248.7793,1.3467,1.3457,3.2598,1.3457,4.9609,0,3.1895-1.1338,5.8115-3.8271,8.0801-2.1973,1.8428-5.8828,2.835-8.9307,2.835-.4248,0-1.4883-.0713-1.9131-.0713-.5674,0-.709.1426-1.0635.3545-.709.3545-1.6299,1.5596-1.6299,2.1973,0,2.0557,2.3389,2.4102,2.6934,2.4102,4.2529,0,9.3555.2832,11.5527.2832,1.2754,0,3.3311.2842,5.458,2.0557,1.4883,1.2051,2.7637,3.6855,2.7637,5.9541,0,4.4648-3.1182,8.2217-6.166,10.1348-2.7646,1.6309-6.2373,3.2607-11.9785,3.2607-4.5361,0-12.7578-2.2686-12.7578-9.0723,0-1.1338.7793-3.1895,1.4883-3.6855,1.1338-.8506,3.1895-2.4102,4.3945-3.4736.2832-.1416.3545-.6377.1416-.708-.5664-.1416-1.3467-.4258-2.0557-.9922-.7793-.709-2.0547-1.9141-2.0547-4.8203,0-.2119.1416-.6377.3545-.709,1.5586-.708,4.3232-2.7637,5.0322-3.6143.2119-.2832.2119-.5674,0-.6377-2.9062-1.8428-5.3164-4.3945-5.3164-8.7891,0-3.7568,1.3467-6.0957,3.9697-8.3633,1.4883-1.2051,5.3867-2.7646,8.2217-2.7646,2.5508,0,4.748.709,5.8828,1.0635ZM949.4033,247.8926c2.0557-1.2051,3.6143-2.9766,3.5439-5.8828-.0713-3.1895-2.623-4.5361-5.1035-4.9609-1.2754-.2129-3.5439-.4258-6.0957-.4258-3.4727,0-5.5283.9922-5.6699,1.0635-2.3389,1.418-2.9766,2.9766-2.9766,4.6777,0,4.8906,5.3154,7.0166,10.2773,7.0166,1.417,0,4.3945-.4248,6.0244-1.4883ZM935.3691,215.0771c0,6.2363,3.8281,8.4336,6.8047,8.4336,1.6299,0,3.2598-.9209,3.6855-1.4883.4961-.709,1.6299-3.0479,1.6299-6.166,0-3.4727-1.8428-7.7256-6.9453-7.7256-3.5439,0-5.1748,3.7568-5.1748,6.9463Z" fill="#f0f" stroke-width="0"/>
    <path d="M971.1582,207.4932c1.3467-.6387,3.1895-1.2764,4.6074-1.9854.8506-.4248,1.7012-.708,1.8428-.708.2129,0,1.2051.2832,1.2051.8506,0,.3545-.0713,2.4092-.1416,3.1182-.0713.3545.2832.3545.4961.2129,2.1973-1.4883,5.5986-3.6152,10.0645-3.6152,3.6143,0,5.457,1.7725,6.5205,3.332,1.1338,1.6299,2.0557,4.5361,2.126,9.4258.0713,3.4736.0713,7.4424.2129,10.6318.0713,2.0557.5674,2.6934,1.8428,3.3311,1.6299.6377,2.126,1.3467,2.126,1.9844,0,.709-1.1338,1.1348-2.0547,1.1348-.9219,0-3.1895-.2129-5.3164-.2129-2.0547,0-3.6143.2129-4.4648.2129-.9219,0-1.9141-.2129-1.9141-1.1348,0-.4248.3545-.9922,1.5596-1.4883,1.7715-.6377,2.2686-1.2754,2.3389-3.0479.0713-3.4727.0713-6.5205.0713-9.6387,0-5.3164-.6387-7.4424-1.3467-8.3633-.709-.9219-2.127-1.9141-5.0322-1.9141-2.6934,0-4.749.6377-6.0957,1.5596-.1416.1416-.8506.9209-.8506,1.7715v16.4434c0,1.0635-.0713,1.9141,2.7646,2.9775,1.2754.4961,1.8428,1.1338,1.8428,1.7002,0,.5674-.709,1.1348-1.9854,1.1348-2.3389,0-4.4648-.2129-6.166-.2129-2.1973,0-4.4648.2129-5.5996.2129-1.2754,0-2.0547-.3545-2.0547-1.0635s.8506-1.2754,1.5586-1.4883c3.1191-.9922,3.5439-1.8428,3.6152-3.4023.2129-3.4023.4248-8.7178.4248-15.9473,0-1.1338-.708-1.9141-2.4805-2.9766-.8506-.6377-.9922-.9219-.9922-1.0635,0-.4961.6377-1.4883,1.2754-1.7715Z" fill="#f0f" stroke-width="0"/>
  </g>
</svg>