<?xml version="1.0" encoding="UTF-8"?>
<svg id="uuid-978dfc90-125e-41b1-acf6-90c136bcdeb4" data-name="レイヤー 1" xmlns="http://www.w3.org/2000/svg" viewBox="0 0 1301.1899 114.2666">
  <path d="M43.6831,29.7393c2.5913-3.5786,3.4551-4.6895,6.1699-8.021,4.689,3.7017,6.0464,4.936,10.7354,9.0078.2471.3701.4937.8638.4937,1.1108,0,.3701-.6167.7402-1.481.7402h-26.7773v26.4072h8.2681c1.8506-1.7275,3.3315-3.4551,4.8125-4.8125,3.085,2.4678,3.9487,3.3315,6.9102,6.0464.8638.8638.9873,1.1108.9873,1.3574,0,.6172-.8638,1.2339-4.0723,3.085v16.6587q0,7.2803.1235,19.8672c0,.7402-.2471.9868-.7407,1.2339-.6167.2466-4.1953.6172-5.5527.6172-1.2339,0-1.7275-.4937-1.7275-1.8511v-4.5659H15.0547v9.1313c0,.6172-.3701.9873-.9873,1.2344-.6167.123-4.1953.4932-6.0464.4932-.9873,0-1.3574-.3701-1.3574-1.2339v-.2466c.3701-9.1313.4937-17.2759.4937-25.5435,0-12.0928-.2466-22.335-.4937-27.5176,4.0723,2.3442,5.3062,3.208,9.2549,6.0464h8.8848v-26.4072h-13.9438c-3.4556,0-7.1572.2471-10.1187.7402l-.7407-4.4419c4.0723.6167,6.9106.8638,10.8594.8638h13.9438v-9.2549c0-10.3657,0-11.4761-.4937-17.8931,2.8379.3706,5.3062.6172,6.6636.7407,6.0464.6167,7.5273,1.1104,7.5273,2.2212s-1.1108,1.7275-5.6768,2.9614v21.2246h10.8594ZM15.0547,93.7827h26.7773v-31.9604H15.0547v31.9604ZM71.3242,68.3628c-1.1108,9.1313-4.0723,17.6455-8.6382,25.79-5.3057,9.1313-9.9951,14.314-18.5093,20.1138l-1.1108-1.1108c8.8848-8.8843,13.8208-17.2754,17.2759-28.998,3.5786-12.2168,4.5654-24.6797,4.5654-59.9717,0-10.9824,0-13.3267-.4937-20.2373,4.3193,2.2212,5.6768,2.8384,9.6255,5.3062h21.5942c2.2212-2.3442,2.8384-3.085,4.936-5.1826l7.4038,5.1826c.8638.7407,1.2339,1.2339,1.2339,1.6045,0,.7402-.8638,1.3574-3.9487,3.085v57.0098c-.123,6.4165-.123,10.8589-.123,13.4502,0,4.4424,0,7.4038.123,18.0161,0,3.8252-.7402,5.5527-3.3315,7.1572-2.3447,1.604-5.1826,2.5913-10.3652,3.5781-.8638-3.8252-1.6045-4.9355-3.7021-5.7993-2.0977-.7407-3.8252-1.1108-16.165-2.9619l.1235-2.0977c3.3315.1235,6.0464.1235,7.7739.2471,9.2549.3701,9.5015.3701,15.3013.3701,1.481,0,1.9746-.4937,1.9746-1.7275v-32.8237h-25.5435ZM96.8677,39.8579h-23.9395c-.1235,13.0801-.2466,16.2881-1.2339,25.6665h25.1733v-25.6665ZM96.8677,12.0933h-23.6924v4.689c0,.4937-.1235,9.7485-.1235,20.2373h23.8159V12.0933Z" fill="#f0f" stroke-width="0"/>
  <path d="M175.3433,41.3384c-2.0977,0-3.085,0-10.9824.6172l-1.2339-4.3188q2.7148.3701,12.0928.8638h24.4331v-6.0469c0-3.4551-.1235-5.1826-.4937-8.7612q13.3267,1.481,13.3267,2.5913c0,.4937-.2466.9873-1.2339,1.6045,0,0-.4937.2466-1.4805.8638-.3701.2466-.7407.4937-1.1108.7402q0,5.3062-.123,9.0083h21.7178l6.4165-7.6509c4.6895,3.7021,6.1699,4.936,10.8594,8.7612.3701.3701.4937.6172.4937.8638,0,.4937-.4937.8638-1.1108.8638h-38.5c-.1235,5.0596-.2471,7.6509-.6172,13.2036h21.8413l6.6636-8.021c4.8125,3.9487,6.2935,5.1831,11.2295,9.502.123.123.2466.3701.2466.4937,0,.3701-.4937.8638-1.1104.8638h-39.1172c-.4937,5.6763-.9873,8.7612-1.9746,13.6968h31.96c3.332-3.9487,4.3193-5.1826,7.8975-8.6377,5.1831,3.9487,6.7871,5.3062,11.9697,9.7485.4937.4937.7402.8638.7402,1.1104,0,.3701-.3701.6172-.7402.6172h-50.7163c4.9355,7.0337,10.1187,11.7227,19.0029,16.7822,9.7485,5.6763,21.4712,8.6377,37.2661,9.748v1.3574c-4.4419,1.6045-6.54,4.1958-7.8975,9.625-14.5605-3.3315-25.543-8.8843-35.5386-18.0161-7.0337-6.293-10.9819-10.9819-15.1777-18.1392-2.5913,7.6504-6.6636,13.4502-13.2036,19.0029-11.106,9.502-23.4453,14.8081-42.8188,18.5098l-.4937-1.604c14.1909-4.4424,23.8159-9.5015,33.0703-17.0288,7.8975-6.6636,12.3398-12.5869,14.8081-20.2373h-30.2324c-5.5532,0-7.4038.1235-11.7231.8638l-1.2339-4.689c3.8252.4932,9.502.9868,12.957.9868h31.0962c1.2339-4.9355,1.604-7.6504,2.0977-13.6968h-22.7051c-2.7148,0-5.0596.123-10.7358.6167l-1.4805-4.4424c2.5913.3701,10.4888.9873,12.0928.9873h23.0752c.3706-5.5527.4937-7.4038.6172-13.2036h-24.186ZM244.0757,16.7822l5.6768-6.4165c4.689,3.085,6.0464,4.0718,10.7354,7.0337,1.1108.9868,1.8511,1.7275,1.8511,2.3442,0,.3706-.2471.7407-.6172.9873-.4937.2471-1.7275.6172-3.208.9873-2.8384.7402-4.3193,1.1104-4.5659,1.2339-4.8125,4.1958-7.1572,6.1699-12.3398,10.2422l-1.4805-.8638c2.7144-5.0596,3.7017-7.4038,5.5527-12.71h-80.8257c-.8638,9.1313-6.0464,18.7563-9.9951,18.7563-1.8511,0-3.9487-3.8252-3.9487-7.0337,0-1.481.6167-2.4678,2.8379-4.0723,5.5532-4.0723,7.1572-6.9102,9.3784-16.9053h2.0977q0,4.5654-.1235,6.4165h34.5518v-7.7739c0-2.8384-.1235-4.5659-.3701-8.3911,5.1826.4937,10.8589,1.2339,12.71,1.7275,1.2339.2466,1.7275.6172,1.7275,1.1108,0,.8638-.1235.9868-5.1826,3.5781v9.7485h35.5381Z" fill="#f0f" stroke-width="0"/>
  <path d="M295.8979,111.0581c8.3911-8.5142,12.4629-14.4375,16.7822-24.3091-3.4551-5.1831-6.54-11.9697-9.1318-20.2373-1.2339-4.0723-1.8506-5.4297-3.208-7.1572l5.1826-1.604c-.2471.8638-.2471,1.3574-.2471,1.8511,0,4.9355,4.1958,15.1777,9.2549,22.8286,4.1958-10.8594,6.1699-20.2373,7.2808-33.811h-11.8462c-.6172.9868-.9873,1.8506-1.3574,2.3442-.7402,1.3574-1.481,1.7275-4.0723,1.8511h-1.3574c-1.9741,0-3.085-.4937-3.085-1.481v-.3701c9.1318-17.646,13.8208-27.8877,17.7695-38.7466h-12.71c-2.2212,0-3.8252.123-7.0337.8638l-1.1108-4.5659c1.1108.1235,3.8257.4937,8.1445.8638h12.71c1.8511-2.3447,2.4678-3.085,4.5654-5.3062,3.5786,2.8384,4.6895,3.7021,8.1445,6.2935.3701.3701.4937.6167.4937.8638,0,.8638-.4937,1.2339-5.6763,3.4551-4.936,12.2163-7.5273,18.0161-14.0674,31.0962h9.9951c1.8511-2.4678,2.4678-3.2085,4.4424-5.6763,3.3315,2.3447,4.3188,3.085,7.5273,5.6763.8638.7402,1.1104,1.1104,1.1104,1.3574,0,.6172-1.604,1.8511-4.936,3.7021-2.5913,18.7563-4.3188,24.9263-10.2417,37.019,3.3315,3.2085,5.7998,5.0596,9.625,6.9102,9.1313,4.6895,20.3604,6.6636,37.5127,6.6636,12.3398,0,25.2969-.6167,46.7681-1.9741v1.604c-3.2085.7402-4.936,1.7275-6.54,3.4551-1.1108,1.3574-1.6045,2.7148-1.6045,5.4297-7.8975.4937-13.0801.6167-21.1011.6167-26.1602,0-39.1172-1.7275-50.9629-7.0337-6.2935-2.8379-11.4761-6.54-16.1655-11.4756-5.4292,8.6377-10.6118,14.0674-19.6201,20.2368l-1.2339-1.2339ZM399.9224,28.8755c1.9741-3.2085,2.5913-4.0723,4.936-7.2808,3.0845,3.332,3.9487,4.3188,6.7866,8.021.3701.6167.6172,1.1104.6172,1.3574,0,.4937-.3701.7402-.7407.7402h-13.3267c0,1.8511.123,3.332.123,3.332q0,11.8457.2471,15.1777c0,1.7275-.6172,2.0977-3.9487,2.3447-.4937.123-1.3574.2466-2.5913.3701h-.2471c-.9868,0-1.4805-.6172-1.4805-1.8511v-2.8384h-18.7568l.1235,14.0674h18.0161c2.5913-2.9614,3.332-3.9487,5.7998-7.0337,4.3188,3.2085,5.7998,4.3193,10.3652,8.2681.2471.3701.4937.7402.4937.8638,0,.3701-.4937.7402-1.2339.7402h-33.4409l.1235,13.5737h19.9902c2.9619-3.5786,3.9487-4.5659,6.54-8.021,4.0723,3.4551,5.5532,4.8125,10.3657,8.8848.2466.3701.3701.7402.3701.8638,0,.6172-.6172,1.1104-1.2339,1.1104h-36.0322c0,8.1445,0,11.106.1235,15.4248-.2471.6172-.3706.7407-.8638.9873-.4937.1235-4.3193.4937-6.0469.4937-.8638,0-1.1104-.2466-1.3574-.8638q0-2.7148.2471-12.957v-3.085h-20.6074c-4.1958,0-5.7998.1235-9.625.7407l-1.6045-4.3188q5.1831.7402,11.2295.7402h20.731v-13.5737h-17.8931c-3.208,0-5.0591.1235-8.7612.7402l-1.2339-4.689c3.5786.6167,7.2808,1.1104,9.9951,1.1104h17.8931v-14.0674h-14.9312c-3.9487,0-5.5532.1235-9.1318.8638l-1.604-4.689c3.4551.4937,8.3911.9873,10.2422.9873h15.4248v-13.6973h-20.731c-3.9487,0-5.6763.1235-9.625.9873l-1.3574-4.936c5.0591.8638,7.5273,1.1108,10.9824,1.1108h20.6074v-13.8208h-16.165c-2.2212,0-3.9487.1235-7.2808.6172l-1.3574-4.5659c4.4424.7402,7.0337,1.1108,8.6382,1.1108h16.0415q0-4.6895-.3701-11.7231c5.9233.6172,10.7358,1.3574,11.7227,1.8511.4937.1235.7407.6172.7407.9873,0,1.1104-.9873,1.7275-4.5659,2.7148v6.1699h19.0034c1.4805-2.3447,1.9741-2.9619,3.8252-5.3062,3.4551,2.3442,4.4424,3.085,7.4038,5.3062.4937.3701.6172.7402.6172,1.1104s-.2471.9873-.6172,1.3574c-.1235.1235-.6167.3701-1.481.9873-.9868.4937-1.1104.6167-1.9741,1.2339v3.3315l.1235,4.6895v3.9487h1.7275ZM390.2974,15.0547h-18.8799v13.8208h18.8799v-13.8208ZM371.4175,31.7134l.123,13.6973h18.7568v-13.6973h-18.8799Z" fill="#f0f" stroke-width="0"/>
  <path d="M486.1724,13.4507c2.0977-2.4683,4.0718-4.8125,5.9229-6.9106,4.0723,3.4556,5.1826,4.5659,9.0083,8.1445.3701.3701.4937.7402.4937.8638,0,.4937-.4937.7402-1.3574.7402h-25.5435c6.9102,4.0723,9.5015,6.54,9.5015,9.2549,0,2.4683-2.4678,6.0464-4.1953,6.0464-1.1108,0-1.6045-.8638-2.2212-3.5781-.7407-3.4556-2.4683-7.2808-5.1826-11.7231h-7.4038c-6.2935,8.6382-11.5996,13.9438-20.731,20.731l-1.2339-1.1104c8.0205-9.0083,11.3525-13.9443,15.3013-22.3354,2.9614-6.4165,3.9487-9.1313,4.689-13.4502,11.4761,2.2212,14.0674,2.9614,14.0674,4.1958,0,1.1104-.8638,1.3569-5.7998,2.0977-1.9741,3.4551-2.5913,4.5654-4.3188,7.0337h19.0034ZM536.8887,77.0005c2.8384-3.4551,3.5786-4.4424,6.2935-7.6509,4.9355,3.7021,6.4165,4.8125,11.1055,8.7612.3706.4937.4937.7407.4937,1.1108s-.4937.6167-.9868.6167h-48.2485c5.3057,4.8125,9.5015,7.6509,16.2881,10.9824,10.8594,5.3062,18.7568,7.1572,36.1558,8.5146v1.8511c-2.8384.4937-3.7021.9868-5.6763,2.9614-1.8511,1.7275-2.3447,2.5913-3.085,5.0591-9.625-2.2207-16.7822-5.3057-26.4072-11.4756-7.8975-4.936-13.0801-9.502-19.1265-16.9058v10.2422c0,4.3188.2466,14.1904.4937,20.2373-.1235.8638-.2471,1.2339-.8638,1.604-.8638.3701-3.4556.7402-5.5532.7402-1.1104,0-1.604-.3701-1.9741-1.4805.4937-14.6846.4937-14.9312.4937-21.1011v-8.021c-7.2808,7.4038-15.0547,12.5864-28.1348,19.1265-7.7744,3.8257-13.6973,6.0469-23.5693,8.8848l-.7402-1.7275c10.4888-4.5654,21.4712-10.4888,29.8623-16.165,6.2935-4.3188,10.7358-7.8975,15.9185-13.3271h-29.2456c-2.8379,0-5.6763.2471-10.7354,1.1108l-.8638-5.1826c4.1953.9868,7.0337,1.2339,11.5991,1.2339h35.9092v-2.5913c0-2.9614-.1235-4.5659-.4937-8.3911,4.5654.4937,10.1187,1.2339,11.4761,1.481.8638.2466,1.3569.6167,1.3569,1.2339,0,.9868-1.3569,1.604-4.9355,2.4678v5.7998h33.1938ZM461.4927,38.0068c-2.4678,0-2.9614.123-7.8975.8638l-.8638-4.936c3.4551.8638,6.0464,1.2339,8.7612,1.2339h21.7178c1.9746-2.4678,2.5918-3.208,4.6895-5.5527,3.208,2.9614,4.1953,3.8252,7.0337,6.7866.2466.3706.3701.6172.3701.8638,0,.2471-.4937.7407-.8638.7407h-18.2632v17.1523c5.4297-.9873,6.2935-1.2344,17.2759-3.5786l.3701,1.604c-9.625,3.7021-15.5479,5.6763-21.5947,7.2808q-14.0669,3.9487-17.769,4.9355c-.4937,3.5786-.9873,4.6895-1.9746,4.6895s-.9868,0-4.4419-11.4761q4.9355-.1235,20.9775-2.3447v-18.2627h-7.5273ZM535.4077,57.9971v1.1108c0,.9868,1.6045,1.4805,4.6895,1.4805,4.5654,0,6.1699-.4937,7.1567-2.2212.9873-2.0977,1.6045-4.5654,4.6895-18.2627l1.7275.1235-.6172,15.3013c0,.7402-.123,1.2339-.123,1.3574v.4937c0,1.2339.3701,1.604,1.7275,1.8506,1.604.3706,2.5913,1.3574,2.5913,2.7148,0,1.9746-1.6045,3.332-4.6895,3.8252-3.7017.4937-6.4165.7407-10.6118.7407-6.5405,0-9.8721-.2471-10.9824-.6172-1.9746-.9873-2.9619-2.7148-2.9619-5.0591v-24.0625h-20.7305c-.2471,7.7739-.4937,10.4888-1.481,13.9438-1.7275,6.293-6.6636,12.0928-14.1909,16.6587-4.4424,2.8379-7.2803,4.0723-13.3267,5.9229l-.9873-1.4805c9.3784-4.6895,14.561-8.8848,18.3862-14.561,3.3315-5.0596,4.4424-10.4888,4.4424-21.7183,0-2.0977-.1235-3.4551-.4937-6.54,3.9487,2.0977,5.1826,2.7148,8.7612,4.936h19.3735c1.7275-1.9741,2.2212-2.5913,3.9487-4.4424q3.3315,2.4683,6.2935,4.689c.9868.7407,1.3569,1.2344,1.3569,1.6045,0,.7402-1.2339,1.604-3.9487,2.8379v19.3735ZM538.2461,13.4507c2.9614-3.7021,3.8252-4.8125,6.6636-8.2676,4.689,3.9487,6.0464,5.1826,10.4888,9.3779.3701.3701.6167.6172.6167.8638,0,.3701-.6167.8638-.9868.8638h-34.4282c6.2935,3.7021,8.6382,6.1699,8.6382,8.6382,0,2.8379-2.8384,7.0337-4.5659,7.0337-.8638,0-1.3574-.6172-1.604-2.0981-1.2344-6.7866-2.3447-9.8716-4.6895-13.5737h-7.8975c-5.4292,6.9102-9.5015,10.8594-16.0415,15.7949l-1.2339-1.2339c5.1826-5.6763,7.8975-9.8716,11.7227-17.769,2.8379-5.9233,3.7017-8.5146,4.4424-12.71q4.5654.9868,11.106,2.3442c1.4805.3701,2.3442.8638,2.3442,1.481,0,1.1104-1.3574,1.604-5.7998,2.0977-1.9741,3.5786-2.7144,4.689-4.4419,7.1572h25.6665ZM509.6177,43.0659c8.7612,4.6895,14.1909,9.8721,14.1909,13.5737,0,2.8384-2.3447,6.54-4.0723,6.54-.9873,0-1.2339-.3701-2.2212-3.208-2.0977-6.54-3.3315-8.7612-8.5142-16.042l.6167-.8638Z" fill="#f0f" stroke-width="0"/>
  <path d="M592.5361,22.7056c4.936.9868,7.5273,1.2339,13.2036,1.2339h22.458c1.9746-2.3447,4.0723-4.689,6.0469-7.0337,4.689,3.3315,6.1699,4.4424,10.4888,8.021.2466.4932.4937.8638.4937,1.1104,0,.4937-.4937.7402-1.3574.7402h-38.1299c-5.9233,0-7.6509.1235-12.0933.8638l-1.1104-4.9355ZM597.2251,6.9106c3.8252.8638,7.1572,1.2339,10.2422,1.2339h15.6714c2.5913-3.2085,3.3315-4.0723,5.9233-7.0337,4.4419,3.3315,5.6763,4.4424,9.8716,8.144.2466.3701.4937.8638.4937.9873,0,.4937-.4937.7402-1.2339.7402h-30.7261c-2.5913,0-4.6895.1235-9.3784.6172l-.8638-4.689ZM598.7061,55.0356c4.3188.9873,6.9102,1.2339,10.4888,1.2339h11.5991c2.4683-3.085,3.332-4.0723,6.2935-7.0337,4.1953,3.332,5.4297,4.3188,9.2549,7.7739.3701.4937.7402,1.1108.7402,1.2344,0,.4937-.4937.8638-.8638.8638h-27.0239c-3.9487,0-5.5532.123-9.502.6167l-.9868-4.689ZM598.8291,38.9937c4.4424.8643,7.0337,1.1108,10.3657,1.1108h13.0801c2.0977-2.4678,4.1953-4.8125,6.1699-7.1572,4.1953,3.4551,5.5527,4.5659,9.3784,8.1445.2466.3701.4932.8638.4932,1.1104,0,.3701-.4932.7407-1.3569.7407h-27.7646c-4.1958,0-5.6763.123-9.3784.7402l-.9873-4.6895ZM606.9736,111.4282c-.1235.9873-.4937,1.2344-1.3574,1.481-.9873.2466-2.9614.3701-4.0723.3701-1.8511,0-2.4678-.4937-2.7148-1.8511.3706-13.6968.3706-16.6587.3706-21.5942,0-6.54-.1235-15.9185-.3706-21.8418,4.1958,2.3447,5.3062,3.085,9.1318,5.5532h16.7817c1.481-1.6045,3.085-3.332,4.6895-5.0596,3.085,2.0977,3.9487,2.8384,6.54,5.0596.8638.7402,1.4805,1.604,1.4805,2.0977,0,.7402-.4932,1.1104-3.9487,3.2085-.123,2.8379-.123,4.4424-.123,6.293,0,3.4551.2466,16.042.3701,19.25-.1235.8638-.2471,1.2344-.8638,1.481-.8638.4937-3.5786.8638-5.6763.8638-1.481,0-1.8511-.3701-1.8511-1.481v-1.9741h-18.3862v8.144ZM606.9736,100.4458h18.3862v-24.0625h-18.3862v24.0625ZM708.2832,103.2842c-2.3447.4937-3.4551.9873-5.1826,2.5913-2.0977,1.8511-2.9614,3.2085-3.9487,6.4165-12.3398-5.4292-21.2246-11.3525-29.4922-19.7437-11.4761,10.1187-23.3223,16.4121-40.4746,21.4717l-.7402-1.8511c14.561-6.2935,25.4199-13.4507,36.7725-24.5562-7.0337-8.8848-10.9824-17.2759-14.0674-30.1094h-2.3447c-2.9614.1235-3.7017.2471-6.1694.7407l-.9873-4.8125c3.7017.8638,6.9102,1.1104,11.4761,1.1104h30.2324c2.0977-2.3447,2.8379-3.085,4.8125-5.3062,4.0723,2.8384,5.3062,3.7021,9.0078,6.54.8638.7407,1.2339,1.2339,1.2339,1.7275,0,.7407-1.604,1.481-6.1694,2.8384-6.7871,13.9438-10.9824,20.2373-17.7695,27.394,9.625,7.2808,18.6333,10.7358,33.9346,13.4507l-.1235,2.0977ZM636.8359,52.1973c10.9824-11.1055,14.0674-20.3604,14.0674-41.7085,0-3.085-.1235-4.5654-.4937-8.5142,4.3188,2.4678,5.5527,3.3315,9.3779,6.1699h16.4121c2.0977-2.3447,2.8384-3.085,4.936-5.5532,3.2085,2.4683,4.1953,3.2085,6.9102,5.5532,1.1108,1.1104,1.3574,1.604,1.3574,2.0977,0,.8638-.7402,1.481-4.5659,3.4551v22.4585c0,2.0977.4937,2.2212,6.6636,2.2212,3.9487,0,5.1826-.3701,6.1699-1.7275.9873-1.481,1.3574-2.9614,5.1826-18.0161l1.6045.1235-1.1108,15.918v.4937c0,1.8511.1235,1.9746,2.5913,3.2085.8638.4937,1.481,1.481,1.481,2.5913,0,3.4551-3.332,4.3188-16.6587,4.3188-7.8975,0-10.3657-.2466-11.8462-1.1104-1.604-.9873-2.0977-2.4683-2.0977-5.6763v-.3706c.123-3.208.123-4.3188.123-7.6504V10.9824h-17.769c-.8638,15.3013-2.0977,20.978-6.2935,27.7646-3.7017,6.0464-7.5273,9.7485-15.0542,14.6846l-.9873-1.2344ZM654.1113,57.3804c2.5913,10.1187,7.4043,18.1392,15.3018,25.9136,6.4165-7.5273,9.9951-13.8208,14.5605-25.9136h-29.8623Z" fill="#f0f" stroke-width="0"/>
  <path d="M741.7188,23.8159c3.332.6172,7.2808.9873,10.7358.9873h26.6538c2.9614-3.332,3.9487-4.4424,6.9102-7.6509,4.5659,3.7021,5.9233,4.936,10.1187,8.7612.3701.3701.4937.7407.4937.8638,0,.3706-.4937.8638-.8638.8638h-43.9297c-4.3188,0-5.9229.1235-9.3779.6172l-.7407-4.4424ZM746.9014,40.3511c3.9487.7407,6.417.9873,9.625.9873h15.9185c2.7148-2.9614,3.4551-3.9487,6.1699-6.7866,4.1958,3.085,5.4297,4.1953,9.2549,7.7739.3701.3701.4937.8638.4937,1.1104,0,.3706-.4937.7407-.9873.7407h-30.8496c-3.7017,0-5.3057.123-8.8843.3701l-.7407-4.1958ZM747.272,7.0337c2.7144.4937,6.6631.8638,9.2544.8638h17.0293c2.9614-3.3315,3.8252-4.3188,6.9102-7.2803,4.3188,3.4551,5.6763,4.5659,9.9951,8.021.4937.6167.7402.9868.7402,1.2339,0,.4937-.4932.8638-1.2339.8638h-33.4409c-3.7017,0-5.3057.1235-8.5142.4937l-.7402-4.1958ZM747.272,57.2568c3.208.7402,5.1826.8638,9.2544.8638h16.1655c2.7144-3.2085,3.5781-4.1958,6.293-7.4038,3.9487,3.4551,5.1826,4.5654,8.8848,8.144.4937.6172.7402.9873.7402,1.2339,0,.4937-.4937.8638-.9868.8638h-31.0967c-2.8379,0-4.8125.1235-8.6377.4937l-.6167-4.1953ZM756.4033,109.9478c0,1.9741-1.1108,2.3442-6.417,2.3442-1.4805,0-1.9741-.3701-2.0977-1.604.2471-6.1699.4937-21.3477.4937-32.7002,0-3.5786-.1235-5.1831-.4937-9.3784,4.1958,2.5913,5.4297,3.4551,9.5015,6.4165h17.646c1.7275-1.9741,3.5786-3.9487,5.3062-5.9229l7.4038,5.9229c.1235.3706.2471.6172.2471.7407.123.3701.2466.6167.2466.8638,0,.7402-1.3574,2.2212-3.8252,3.9487v3.4551c0,9.1313.1235,20.6074.3701,24.4326-.1235,1.1108-.3701,1.604-1.3574,1.8511-.9873.2466-3.5786.4937-5.0591.4937-1.3574,0-1.9746-.4937-2.0981-1.6045v-5.3057h-19.8667v6.0464ZM756.4033,101.063h19.8667v-23.1987h-19.8667v23.1987ZM836.6118,44.1768c3.2085-4.1958,4.3188-5.4297,8.021-9.3784,4.8125,3.9487,6.293,5.1826,10.7354,9.3784.4937.6167.7407,1.2339.7407,1.604,0,.6172-.7407,1.1104-1.481,1.1104h-30.4795c0,34.4282,0,39.1172.7407,63.0566-.1235.9873-.3701,1.4805-1.1108,1.7275-.8638.3701-3.9487.7402-6.293.7402-1.728,0-2.3447-.3701-2.3447-1.7275.3701-14.561.6167-33.4409.6167-55.7759,0-.9873,0-4.5654-.123-8.021h-15.1782c-4.5654,0-6.1699.1235-9.9951.6172l-.7402-4.4424c3.3315.7407,7.0337,1.1108,10.7354,1.1108h15.1782c-.1235-34.7983-.1235-36.1558-.9873-41.4619,2.8384.2471,5.0591.3701,6.4165.4937,6.54.4937,8.5146.9873,8.5146,2.2212,0,1.1104-.6172,1.481-5.4297,3.2085v35.5386h12.4634Z" fill="#f0f" stroke-width="0"/>
  <path d="M948.4058,46.0273v9.9956h26.9004c1.8511-2.0981,2.4683-2.7148,4.4424-4.8125,3.332,2.0977,4.3188,2.8379,7.4038,5.0591.7407.6172,1.1108.9873,1.1108,1.481,0,.7402-.3701,1.1104-3.5786,3.085l.1235,9.5015h2.3442c2.9619-3.2085,3.8257-4.1953,6.7871-7.4038,4.0723,3.4551,5.3062,4.5659,9.2549,8.3911.4937.4937.7402.8638.7402,1.1104,0,.3701-.4937.7407-1.1104.7407h-18.0161c.123,11.1055.2466,18.2627.3701,21.2241,0,.8638-.2471,1.2339-.8638,1.481-.8638.2466-3.8257.6167-5.9233.6167-1.3574,0-1.9741-.3701-1.9741-1.2339v-6.9102h-27.8882q.1235,1.481.1235,6.0464l.2466,9.1313c0,3.332-.123,4.1958-.7402,5.1831-1.2339,1.9741-4.3188,3.3315-12.71,5.1826-.2466-5.9233-.9873-6.2935-19.25-9.2549v-1.8511c14.0674.8638,15.4248.8638,19.0034.8638h3.4551c1.4805,0,1.8511-.3701,1.8511-1.481v-13.8203h-30.8496c-3.2085,0-4.689.1235-7.6509.6172l-.4937-4.4424c3.2085.7402,4.936.9868,8.3911.9868h30.603v-12.3394h-42.8193c-3.4551,0-4.4424.123-7.0337.4932l-.6167-4.1953c2.7144.6172,4.3188.8638,7.6504.8638h42.8193v-11.4761h-32.207c-3.3315,0-4.3188.1235-6.2935.4937l-.4937-4.1953c2.3447.7402,3.7021.8638,6.7871.8638h32.207v-9.9956h-25.7905v2.9619c0,.8638-.2466,1.2339-.8638,1.4805-.4932.1235-3.8252.4937-5.5527.4937-.9873,0-1.3574-.2466-1.3574-1.1104.2471-7.5273.3701-11.2295.3701-18.2632,0-4.0718,0-5.0591-.123-8.3911,3.5781,1.8511,4.689,2.4683,8.0205,4.4424h25.2969v-9.625h-40.9683c-4.0723,0-5.1826.1235-7.6509.4937l-.4932-4.1953c2.9614.7402,4.4419.8638,8.2676.8638h40.8447c-.1235-8.021-.1235-9.0083-.6172-14.4375,12.4634,1.604,13.3271,1.8506,13.3271,3.208,0,.9873-1.1108,1.6045-4.8125,2.7148v8.5146h35.415c3.085-3.5786,3.9487-4.5659,7.0337-7.8975,4.8125,3.7017,6.1699,4.936,10.4888,9.0078.2466.3701.4937.7407.4937,1.1108,0,.2466-.4937.6167-.9873.6167h-52.4438v9.625h25.543c1.8511-1.8506,2.4683-2.4678,4.5659-4.4424,3.085,2.0981,3.9487,2.7148,6.7871,4.936.8638.6172,1.1104.9873,1.1104,1.3574,0,.8638-.4937,1.2339-3.5786,2.8384,0,9.0078,0,9.2549.2471,14.8076,0,1.481-.7407,1.8511-4.0723,1.9741-.9873,0-1.7275.1235-2.2212.1235h-.3701c-.9873,0-1.3574-.2466-1.3574-1.2339v-1.9746h-26.6538ZM940.5083,30.4795h-25.7905v12.71h25.7905v-12.71ZM975.0596,30.4795h-26.6538v12.71h26.6538v-12.71ZM976.417,58.8608h-28.0112v11.4761h28.0112v-11.4761ZM948.4058,73.1753v8.0205l.123,4.3188h27.8882v-12.3394h-28.0112Z" fill="#f0f" stroke-width="0"/>
  <path d="M1075.5,8.7612c1.728-2.3442,2.3447-3.085,4.3193-5.1826,4.0718,2.7148,5.1826,3.5786,9.0078,6.54.6172.7407.8638,1.1108.8638,1.6045,0,.9868-1.1104,1.3574-5.0591,1.604-8.7612,7.6509-11.8462,9.9951-17.1523,13.2036,2.3442,1.8511,3.208,3.4551,3.208,5.4297,0,1.4805-.4932,2.9614-1.3569,4.689-.7407,1.3574-1.1108,1.7275-2.3447,2.5913h10.2422c2.0977-2.2212,2.7144-2.8384,5.0591-4.936,3.3315,2.3447,4.3188,3.085,7.5273,5.4297.9873.8638,1.4805,1.4805,1.4805,1.9741v.1235q-.123.8638-5.9229,1.9746c-5.5527,8.0205-7.4038,10.1182-12.5864,15.6714l-1.3574-.8638c2.7148-5.6763,2.7148-5.7998,5.7998-16.5356h-9.7485v30.2329c0,17.769.123,27.6411.123,29.4917,0,6.1699-2.7144,8.5146-12.4629,10.6123-.4937-7.0337-1.9746-8.021-14.1909-9.5015l.2471-1.9746c2.2212.1235,3.9487.2471,5.0591.2471,7.0337.4937,7.1572.4937,11.8462.6167,1.481-.123,1.8511-.4937,1.8511-1.604v-40.9683c-7.5273,14.8081-12.71,21.2246-25.2964,31.0967l-1.2344-1.3574c8.1445-8.7612,12.8335-15.3018,17.646-24.4331,3.8252-7.2803,5.3062-11.3525,8.6377-22.4585h-12.2163q-4.8125,0-10.4888.6172l-1.1104-4.3188c4.8125.7402,6.7866.8638,10.9824.8638h19.1265q-.9873-.8638-2.4678-3.7021c-4.3188-8.5142-6.1699-10.6118-15.1782-18.2627l1.2339-1.3574c8.5146,4.1958,12.0933,6.2935,15.6719,8.8848,4.3188-4.4424,6.1699-6.7871,10.2417-13.2036h-25.9136c-4.1953,0-7.2803.1235-10.9819.6172l-.9873-4.3193c5.3062.7407,7.4038.8638,11.9692.8638h25.9136ZM1104.1284,69.4731c.9873-4.5659,1.481-8.2676,1.481-11.7227,0-.2471,0-1.3574-.1235-2.3447,10.9824.9873,13.0801,1.481,13.0801,2.7148,0,.3701-.3701.7402-.7402.9873-.3701.2466-1.8511.7402-4.1953,1.604-.7407,4.689-1.1108,6.4165-1.6045,8.7612h20.4844c1.8506-2.5913,2.4678-3.3315,4.3188-5.6763,3.4551,2.3447,4.5654,3.085,7.7739,5.5527,1.2339.8638,1.604,1.3574,1.604,1.8511,0,.9873-1.4805,1.9746-4.689,3.2085-1.3574,16.5352-3.085,24.6797-6.4165,30.479-2.4683,4.3188-6.5405,6.1699-14.1909,6.6636-1.1108-6.54-3.2085-7.7739-18.0161-10.2422l.2466-2.0977c2.7148.2471,4.8125.4937,6.1699.7407,8.021.8638,13.3271,1.3569,16.5356,1.3569,1.9741,0,2.8379-.8638,3.8252-4.0718,1.9741-5.9233,3.3315-14.9312,3.7021-24.9263h-21.9648c-2.5913,9.3779-6.2935,16.2881-12.3398,22.9517-5.3062,5.7998-11.9697,10.4888-19.4971,13.8208-3.4551,1.4805-6.0464,2.3442-11.9697,3.9487l-1.1104-1.9746c7.1572-2.7148,10.8589-4.689,16.4121-8.6377,11.1055-8.021,16.9053-16.4121,20.4839-30.1089h-12.8335c-3.9487,0-7.2803.123-11.8462.6167l-.7402-4.3188q7.4038.8638,12.5864.8638h13.5737ZM1138.6797,20.2373c-4.8125,8.6382-9.0078,13.8208-17.2754,21.4712,9.5015,5.3062,18.2627,7.7744,31.5898,8.8848v1.7275c-4.689.9873-6.2935,2.7148-7.7739,8.021-12.957-4.5659-20.1143-8.2676-28.2583-14.8076-10.3652,8.2676-22.7051,13.5737-42.2021,18.1392l-.7402-2.0977c17.0288-5.7998,27.5176-11.4761,38.0063-20.6074-6.1699-6.1699-9.8716-11.3525-13.4502-18.6333-4.5659,5.6768-7.0337,8.1445-12.71,12.8335l-1.2339-1.3574c9.0078-11.4761,13.3267-20.1138,17.1523-33.811,2.7144.7407,4.9355,1.481,6.293,1.8511,5.1826,1.481,6.0464,1.8511,6.0464,2.9614s-1.4805,1.7275-5.5527,2.0981c-3.085,5.1826-4.1953,7.1567-6.4165,10.4888h31.7129c2.9619-3.2085,3.9487-4.1958,6.6636-7.4038,4.6895,3.4551,6.0464,4.689,10.6123,8.3906.1235.3706.3701.8643.3701.9873,0,.4937-.4937.8638-1.1104.8638h-11.7231ZM1115.481,37.7598c6.0469-5.9229,9.2549-10.2417,13.2036-17.5225h-28.5049c3.4551,6.6636,7.7739,11.5996,15.3013,17.5225Z" fill="#f0f" stroke-width="0"/>
  <path d="M1202.7183,61.3291c-.6172,9.0078-2.0977,16.6587-4.5659,24.3091-3.4551,10.2422-6.7866,16.165-14.314,25.0498l-1.481-1.3574c4.3193-6.9102,5.5532-10.1187,8.1445-19.8672,3.085-11.5991,3.9487-18.8799,4.3188-36.8955.1235-8.7612.1235-11.7231.1235-17.3994,0-4.3188-.1235-7.1567-.6172-11.9697,4.5659,2.0981,5.9233,2.8384,10.2422,5.5532h19.9907c2.0977-2.4683,2.7148-3.2085,4.8125-5.5532,3.208,2.2212,4.1953,2.9619,7.1572,5.5532.4932.3701.8633.8638.8633,1.2339s-1.3574,1.604-2.9609,2.5913v5.5527c0,2.3447.123,7.6509.2461,13.6973q.124,8.021.2471,14.6846c0,.9873-.2471,1.3574-.8633,1.7275-.7412.2466-4.6895.7402-6.6641.7402-.8633,0-1.2334-.3701-1.2334-1.604v-6.0464h-23.4463ZM1187.0469,8.1445c4.8125.7402,8.7612.9873,14.0674.9873h25.0503c2.9609-3.2085,3.8252-4.1958,6.9102-7.5273,4.3184,3.4551,5.5527,4.689,9.8711,8.7612.2471.4937.3701.8638.3701.9873,0,.4932-.6162.9868-1.2334.9868h-40.9683c-7.1572,0-8.6382.1235-13.0806.7407l-.9868-4.936ZM1226.1646,31.5898h-22.7061q-.3701,22.0884-.4937,26.9009h23.1997v-26.9009ZM1253.312,44.4233c-.124,1.604-.124,3.085-.124,3.9487-.4932,16.9058-3.3311,28.875-9.748,39.6108-3.9492,6.7866-9.0078,12.4629-14.9316,17.0288-2.3438,1.8511-4.5654,3.2085-9.2549,5.9233l-1.1104-1.8511c7.7744-6.1699,11.2295-9.7485,15.1777-15.5483,7.2812-10.4888,10.6123-22.335,11.3525-39.981.3701-8.2676.6172-22.4585.6172-30.8491,0-4.3193-.123-6.417-.3701-11.3525,4.6895,2.5913,6.0469,3.4551,10.6123,6.54,7.0342-2.3447,12.5869-4.936,19.6201-9.2549,4.8125-2.9619,6.54-4.3188,9.3779-7.4038,2.5918,1.4805,4.5664,2.5913,5.9238,3.3315,3.7021,2.0977,5.9229,3.8252,5.9229,4.8125,0,.7402-.9873,1.2339-2.5918,1.2339-.7402,0-1.9736-.1235-4.0713-.6167-12.957,5.6763-21.4717,8.144-35.9092,10.4888q-.123,6.54-.4932,21.1011h30.2324c2.8379-3.7021,3.7012-4.936,6.7861-8.6382,4.5664,4.1958,5.9238,5.5532,10.2422,9.7485.4941.4937.6172.8638.6172,1.1108,0,.3701-.4932.6167-1.4805.6167h-21.2246v31.5898c0,8.8848.123,19.0034.4932,32.207,0,1.1104-.2461,1.4805-1.1104,1.7275-1.3574.3701-3.208.6167-5.5527.6167-1.7275,0-2.2217-.2466-2.4678-1.1104.3701-9.0083.4932-16.042.4932-32.5771v-32.4536h-17.0283Z" fill="#f0f" stroke-width="0"/>
</svg>