<svg id="ef455baa-27cd-4f5d-8216-b8be0d6afaec" data-name="レイヤー 1" xmlns="http://www.w3.org/2000/svg" width="153.27" height="22.6578" viewBox="0 0 153.27 22.6578">
  <path d="M10.53,18.6031H8.1167l-3.71-6.69-2.32,2.42v4.27H0V4.8243H2.0864V11.93l5.649-7.1059H10.2l-4.4809,5.51Z" style="fill: #f0f"/>
  <path d="M22.2021,13.6627a4.6393,4.6393,0,0,1-3.0507,4.7627,5.0129,5.0129,0,0,1-1.85.374,5.0969,5.0969,0,0,1-1.8208-.3643,4.9467,4.9467,0,0,1-1.5845-.9345A4.9549,4.9549,0,0,1,12.4,13.6627V9.7647a4.6409,4.6409,0,0,1,3.0513-4.7632,5.0089,5.0089,0,0,1,1.85-.374,5.1123,5.1123,0,0,1,1.8208.3643,4.9835,4.9835,0,0,1,1.5844.935,4.9578,4.9578,0,0,1,1.4956,3.8379Zm-2.0864.1181V9.6466a3.1965,3.1965,0,0,0-.7578-2.1846,2.594,2.594,0,0,0-2.0566-.8662,2.5945,2.5945,0,0,0-2.0572.8662,3.197,3.197,0,0,0-.7578,2.1846v4.1342a3.1719,3.1719,0,0,0,.7676,2.1846,2.6023,2.6023,0,0,0,2.0474.8662,2.5943,2.5943,0,0,0,2.0566-.8662A3.1958,3.1958,0,0,0,20.1157,13.7808Z" style="fill: #f0f"/>
  <path d="M37.0825,18.6031H34.9961v-8.74l-2.9331,6.771H30.272l-2.9326-6.77v8.7388H25.2529V4.8243h1.8985l3.9936,8.9731H31.19l3.9937-8.9731h1.8984Z" style="fill: #f0f"/>
  <path d="M42.3179,18.6031H40.2314V4.8243h2.0865Z" style="fill: #f0f"/>
  <path d="M55.564,18.6031H53.5957l-6.0425-9.9v9.9H45.4668V4.8243h1.979l6.0317,9.8823V4.8243H55.564Z" style="fill: #f0f"/>
  <path d="M68.4165,13.6627a4.6387,4.6387,0,0,1-3.0508,4.7627,5.0064,5.0064,0,0,1-1.85.374,5.0952,5.0952,0,0,1-1.8208-.3643,4.9478,4.9478,0,0,1-1.5845-.9345,4.9552,4.9552,0,0,1-1.4961-3.8379V9.7647A4.6409,4.6409,0,0,1,61.666,5.0015a5.0109,5.0109,0,0,1,1.85-.374,5.1093,5.1093,0,0,1,1.82.3643,4.9867,4.9867,0,0,1,1.585.935,4.9575,4.9575,0,0,1,1.4951,3.8379Zm-2.0859.1181V9.6466a3.1946,3.1946,0,0,0-.7578-2.1846,2.8753,2.8753,0,0,0-4.1138,0,3.1965,3.1965,0,0,0-.7578,2.1846v4.1342a3.1714,3.1714,0,0,0,.7676,2.1846,2.8637,2.8637,0,0,0,4.104,0A3.1939,3.1939,0,0,0,66.3306,13.7808Z" style="fill: #f0f"/>
  <path d="M81.84,18.6031H79.2036l-2.9531-5.8267H73.5542v5.8267H71.4673V4.8243H76.979a4.573,4.573,0,0,1,3.1,1.063,3.6254,3.6254,0,0,1,1.2305,2.8935,3.7233,3.7233,0,0,1-1.1016,2.7754,3.8061,3.8061,0,0,1-1.7129.9248ZM79.2231,8.8a1.92,1.92,0,0,0-.6308-1.501,2.2669,2.2669,0,0,0-1.5742-.5659H73.5542v4.1338h3.4443a2.2809,2.2809,0,0,0,1.584-.5752A1.9119,1.9119,0,0,0,79.2231,8.8Z" style="fill: #f0f"/>
  <path d="M93.9458,13.859a4.82,4.82,0,0,1-1.3877,3.5429A4.9412,4.9412,0,0,1,84.104,13.859V4.8243h2.0869v9.1333a2.8114,2.8114,0,0,0,.8076,2.0469,2.7108,2.7108,0,0,0,2.0274.8271,2.7561,2.7561,0,0,0,2.0664-.7871,2.8627,2.8627,0,0,0,.7676-2.0869V4.8243h2.0859Z" style="fill: #f0f"/>
  <path d="M108.8062,18.6031h-1.89V17.54a2.9963,2.9963,0,0,1-2.5586,1.2207A3.2773,3.2773,0,0,1,102.37,18.17a2.8632,2.8632,0,0,1-1.1406-1.7119,7.5183,7.5183,0,0,1-.1387-1.6934V13.2886q0-4.4882,3.11-4.4882a3.59,3.59,0,0,1,1.7314.3935,4.5771,4.5771,0,0,1,.9844.7876V4.9424h1.89Zm-1.89-4.4658v-.7129q0-2.7151-1.9678-2.7149T102.98,13.4244v.7129q0,2.7143,1.9687,2.7138T106.9165,14.1373Z" style="fill: #f0f"/>
  <path d="M118.6479,14.4693h-6.0625v.1758a2.1318,2.1318,0,0,0,.62,1.6006,2.2227,2.2227,0,0,0,1.624.6054,3.0435,3.0435,0,0,0,2.2041-.9052l1.3984,1.1806a4.2974,4.2974,0,0,1-3.5234,1.6338,3.8746,3.8746,0,0,1-3.2481-1.3779,5.5263,5.5263,0,0,1-.9843-3.4834,6.1353,6.1353,0,0,1,.9258-3.5239A3.5123,3.5123,0,0,1,114.7114,8.8a3.474,3.474,0,0,1,3.07,1.4565,5.8208,5.8208,0,0,1,.8662,3.3862Zm-1.89-1.5947a2.4027,2.4027,0,0,0-.5312-1.6333,1.8355,1.8355,0,0,0-1.4961-.67,1.91,1.91,0,0,0-1.545.64,2.7453,2.7453,0,0,0-.6006,1.6631Z" style="fill: #f0f"/>
  <path d="M128.5288,15.5914a2.7686,2.7686,0,0,1-1.2392,2.4013,4.5162,4.5162,0,0,1-2.6778.7676,5.8541,5.8541,0,0,1-4.291-1.791l1.3584-1.2988a4.7327,4.7327,0,0,0,3.1689,1.3183,2.4272,2.4272,0,0,0,1.2012-.2754,1.0713,1.0713,0,0,0,.59-.9843.9048.9048,0,0,0-.669-.8858,5.35,5.35,0,0,0-1.2-.1972q-1.0444-.0983-1.5361-.1963a2.47,2.47,0,0,1-2.2236-2.6182,2.6855,2.6855,0,0,1,1.0625-2.3027,3.9858,3.9858,0,0,1,2.5-.7285,5.356,5.356,0,0,1,3.7988,1.3188l-1.2207,1.3779a4.1716,4.1716,0,0,0-2.5977-.9253q-1.6538,0-1.6543,1.2007a.7946.7946,0,0,0,.4922.7285,4.797,4.797,0,0,0,1.5557.295,6.0347,6.0347,0,0,1,2.499.65A2.3312,2.3312,0,0,1,128.5288,15.5914Z" style="fill: #f0f"/>
  <path d="M132.6431,6.97h-1.8907V5.0606h1.8907Zm0,11.6333h-1.8907V8.9581h1.8907Z" style="fill: #f0f"/>
  <path d="M142.9751,17.7564q0,4.9014-4.0938,4.9014a4.3315,4.3315,0,0,1-3.4834-1.5947l1.4952-1.22a2.797,2.797,0,0,0,1.9687.9053q2.2236,0,2.2246-2.3672V17.56a3.1554,3.1554,0,0,1-2.5586,1.2,2.9269,2.9269,0,0,1-2.5-1.1611,4.4192,4.4192,0,0,1-.7675-2.7168v-2.106a4.6677,4.6677,0,0,1,.7675-2.7949A3.002,3.002,0,0,1,138.5864,8.8a3.0419,3.0419,0,0,1,2.5,1.1811V8.9581h1.8887Zm-1.8887-3.164V12.8887a2.3429,2.3429,0,0,0-.5215-1.5551,1.7845,1.7845,0,0,0-1.4472-.6241,1.902,1.902,0,0,0-1.4073.565,1.927,1.927,0,0,0-.5615,1.416V14.87a1.9294,1.9294,0,0,0,.5615,1.417,1.9034,1.9034,0,0,0,1.4073.5644,1.8171,1.8171,0,0,0,1.4961-.6543A2.5583,2.5583,0,0,0,141.0864,14.5924Z" style="fill: #f0f"/>
  <path d="M153.27,18.6031h-1.89v-5.812a2.2194,2.2194,0,0,0-.502-1.4927,1.7274,1.7274,0,0,0-1.3877-.5889,1.7674,1.7674,0,0,0-1.3476.58,1.9791,1.9791,0,0,0-.541,1.4038v5.91h-1.8907V8.9581h1.8907V9.942A3.1306,3.1306,0,0,1,150.0415,8.8a2.9529,2.9529,0,0,1,2.4023,1.0434,3.7676,3.7676,0,0,1,.8262,2.5391Z" style="fill: #f0f"/>
</svg>
