<?xml version="1.0" encoding="UTF-8"?>
<svg id="uuid-5e6fa090-3021-432b-998d-5dab5cd1cf7b" data-name="レイヤー 1" xmlns="http://www.w3.org/2000/svg" viewBox="0 0 643.3628 57.1377">
  <path d="M2.2749.585c.9102,0,4.8755.3252,6.5005.3252,3.1201,0,6.3052-.1299,7.02-.1299.52,0,1.7554.3252,1.7554,1.04,0,.7803-1.105,1.3652-1.625,1.4951-2.9253.7148-3.4453,1.5605-3.4453,2.6006,0,.8447-.3252,11.0498-.1299,12.5449.0649.3252.2598.5205.7148.5205.2603,0,.7803-.1299,1.5601-.8457,4.2251-3.5752,11.6357-10.6602,13.4556-12.8047.52-.6504.2603-1.3652-1.9502-1.8203-1.2349-.2598-1.8848-.7803-1.8848-1.4951,0-.3252.4546-1.1055,1.625-1.1055h3.5103c3.77-.0645,6.8252-.4551,9.3604-.4551,1.9497,0,2.4048.585,2.4048,1.2354,0,.4551-.6499,1.1055-2.0801,1.3652-2.8599.5195-5.395,1.7549-7.9951,3.835-2.665,2.0801-5.1353,4.1602-11.8306,10.4658-.1948.1299-.1948.6494,0,.9102,5.46,6.1748,12.8057,13.5195,15.4707,16.0547,2.5352,2.4053,4.1602,3.1855,7.02,4.0957,1.4302.4551,1.8853.7803,1.8853,1.5596,0,.3252-.7148,1.1055-1.8853,1.1055-3.0552,0-8.9053-.4551-11.3755-.4551h-3.3149c-.9102,0-1.5601-.585-1.5601-1.1699,0-.5205.52-1.04,1.6899-1.3652,1.5601-.4551,1.8203-1.1699.9102-2.21-2.4053-2.7305-10.2705-10.9209-13.3906-14.041-.7148-.6494-1.3647-.9092-1.625-.9092-.4551,0-.7148.5195-.7148,1.2344,0,2.9902-.0649,9.1006.1948,12.416.2603,2.8594,1.4951,3.1201,3.9004,3.6396,1.8198.3906,2.21.9756,2.21,1.4951,0,.6504-.9751,1.1699-1.7549,1.1699-.7803,0-4.5503-.2598-6.5654-.2598-3.0552,0-7.2803.3896-8.4502.3896-.7803,0-1.8853-.3896-1.8853-1.1045,0-.7803.6499-1.1699,1.7549-1.4307,3.4453-.8447,4.3555-1.5596,4.5503-4.29.1299-2.21.2603-4.7451.2603-15.7305,0-10.0098,0-10.9199-.1304-12.2207-.1299-1.1699-.1948-2.1445-3.77-2.9893-1.4302-.3252-2.145-.9102-2.145-1.4951,0-.5205.7803-1.1709,1.7549-1.1709Z" fill="#f0f" stroke-width="0"/>
  <path d="M87.2959,27.041c0,4.9404-2.0151,8.4512-4.2251,10.4658-2.3403,2.1455-5.5254,3.9004-9.8154,3.9004-3.8354,0-7.5405-1.5605-10.2705-4.2256-2.7949-2.7295-3.835-6.6953-3.835-9.6201,0-4.5498,2.3398-8.5156,5.2002-10.79,2.145-1.8203,5.7197-3.3154,9.1001-3.3154,8.9702,0,13.7808,7.6055,13.8457,13.585ZM68.0552,18.0059c-.6504.7148-2.665,3.6406-2.665,8.5811,0,3.6396,1.2349,8.125,3.8999,10.4004.6499.5195,2.5352,1.7549,4.9399,1.7549,1.5605,0,3.6406-.9102,4.9404-2.5352,1.3652-1.7549,1.7549-4.9404,1.7549-8.7109,0-5.5244-2.9248-11.3096-8.4502-11.3096-1.4302,0-3.5103.8447-4.4199,1.8193Z" fill="#f0f" stroke-width="0"/>
  <path d="M107.1841,15.9258c1.4297-.585,2.8599-1.1699,5.0049-2.5352.4551-.3252.585-.3896.7153-.3896.4551,0,1.04.585,1.04.7148v2.7305c0,.2598.3247.585.6499.3252,1.8203-1.2354,5.46-3.3154,8.9702-3.3154,3.8354,0,5.8501,2.0146,6.8252,3.5098.0649.1299.5854.3252.8452.1953.9751-.7148,3.1201-2.0801,4.8101-2.7949,1.4302-.585,2.4702-.9102,4.4854-.9102,5.7202,0,7.8652,5.3301,8.0601,9.8154.1953,4.0947.4551,11.2451.4551,12.8701,0,1.1055,1.3652,1.8848,2.4702,2.2754.8452.3252,1.4951.6504,1.4951,1.2998,0,.7803-.8452,1.04-1.4302,1.04-1.4951,0-3.5103-.1299-5.0054-.1299s-3.3149.1299-4.8101.1299c-1.04,0-1.8198-.585-1.8198-1.1045,0-.2607.3247-.9756,1.5601-1.3008,1.625-.4551,2.0801-1.4297,2.0801-2.8594,0-3.1201-.0649-8.1904-.0649-10.9854-.0649-2.5352-.2603-3.5752-1.04-4.8105-.7803-1.1699-2.3403-2.1455-4.7456-2.1455-2.7949,0-5.2651,1.2354-5.7197,1.625-.2603.2607-.6504,1.2354-.6504,2.0156,0,10.2051.0649,12.6104.1953,14.1055.0649,1.4951.8447,2.3398,2.2749,2.7949,1.3003.4551,1.6899.8447,1.6899,1.5605,0,.7148-.7798,1.1045-1.5601,1.1045-1.6899,0-3.77-.1299-5.46-.1299-1.4302,0-3.1851.1299-4.6152.1299-1.04,0-1.9502-.6504-1.9502-1.1699s.585-.9102,1.625-1.2998c1.7554-.6504,2.5352-1.04,2.6001-3.5752l.1953-12.4805c0-1.2998-.9102-2.7305-.9751-2.8604-.9102-1.1699-2.4702-2.0146-5.0054-2.0146s-4.29.8447-5.5903,1.7549c-.1299.1299-.7148,1.4951-.7148,1.6895,0,11.4404,0,12.9355.1299,14.626.1304,1.8203.9751,2.2754,2.145,2.8604,1.2354.6494,1.4302.9746,1.4302,1.4297,0,.6504-.6499,1.1055-1.625,1.1055-1.5601,0-3.7051-.1953-5.6553-.1953-1.4951,0-2.9253.3252-4.4199.3252-1.105,0-1.8203-.5205-1.8203-1.1055s.585-.9746,1.5601-1.3652c2.5352-1.04,2.7949-1.5596,2.8604-3.6396.1299-2.4053.2598-7.6699.2598-13.6504,0-.6504-.3252-1.4951-1.4302-2.3398-1.1699-.9102-1.4297-1.1709-1.4297-1.3652,0-.5205.585-1.2998,1.105-1.5605Z" fill="#f0f" stroke-width="0"/>
  <path d="M170.8833,15.5361c3.25-1.1699,5.9155-2.1455,7.0205-2.1455.2598,0,.6499.8457.6499,1.04v11.8955c.0649,8.5156.1948,9.751.2603,10.3359.0649.5195.3247,1.1699,2.665,1.8193.9097.2607,1.5601.8457,1.5601,1.4951,0,.585-1.04.8457-1.8853.8457-1.3652,0-4.0303-.1953-5.46-.1953-3.3154,0-4.5503.1953-5.4604.1953-1.3003,0-1.9502-.3906-1.9502-.9756s.6499-1.04,1.5601-1.2998c2.8604-.7148,2.9902-1.2354,3.25-3.9004.1304-1.3652.2603-5.7852.2603-9.4902,0-1.2998,0-4.6797-.0649-5.0703-.0649-.5195-.6499-1.2344-2.5352-2.4697-.4551-.2598-.7148-1.04-.7148-1.2998,0-.3252.4551-.6504.8447-.7803ZM177.7085.7803c.7803.9102,1.1055,2.1455,1.1055,2.665,0,2.6006-2.2754,3.7051-3.4453,3.7051-.9751,0-2.0801-.6494-2.7949-1.4951-.3901-.6494-.6504-1.1045-.6504-1.9492,0-2.1455,1.4951-3.7061,3.7705-3.7061.9097,0,1.4946.3252,2.0146.7803Z" fill="#f0f" stroke-width="0"/>
  <path d="M201.3682,15.4062c1.2349-.585,2.9253-1.1699,4.2251-1.8203.7803-.3896,1.5601-.6504,1.6899-.6504.1953,0,1.105.2607,1.105.7803,0,.3252-.0649,2.21-.1299,2.8604-.0649.3252.2603.3252.4551.1953,2.0151-1.3652,5.1353-3.3154,9.2305-3.3154,3.3149,0,5.0049,1.625,5.98,3.0547,1.04,1.4951,1.8853,4.1602,1.9502,8.6455.0649,3.1855.0649,6.8252.1948,9.751.0654,1.8848.52,2.4697,1.6904,3.0547,1.4951.585,1.9497,1.2354,1.9497,1.8203,0,.6494-1.04,1.04-1.8848,1.04-.8452,0-2.9253-.1953-4.8755-.1953-1.8848,0-3.3149.1953-4.0947.1953-.8452,0-1.7554-.1953-1.7554-1.04,0-.3906.3252-.9102,1.4302-1.3652,1.625-.585,2.0801-1.1699,2.145-2.7949.0649-3.1855.0649-5.9805.0649-8.8408,0-4.875-.585-6.8252-1.2349-7.6699s-1.9502-1.7549-4.6152-1.7549c-2.4702,0-4.355.585-5.5903,1.4297-.1299.1299-.7798.8447-.7798,1.625v15.0811c0,.9746-.0649,1.7549,2.5347,2.7295,1.1704.4551,1.6904,1.04,1.6904,1.5605,0,.5195-.6504,1.04-1.8203,1.04-2.145,0-4.0952-.1953-5.6553-.1953-2.0146,0-4.0947.1953-5.1348.1953-1.1704,0-1.8853-.3252-1.8853-.9756,0-.6494.7798-1.1699,1.4302-1.3652,2.8599-.9092,3.25-1.6895,3.3149-3.1201.1948-3.1201.3901-7.9951.3901-14.625,0-1.04-.6504-1.7549-2.2754-2.7305-.7798-.585-.9097-.8447-.9097-.9746,0-.4551.585-1.3652,1.1699-1.625Z" fill="#f0f" stroke-width="0"/>
  <path d="M274.9482,27.041c0,4.9404-2.0151,8.4512-4.2251,10.4658-2.3403,2.1455-5.5254,3.9004-9.8154,3.9004-3.8354,0-7.5405-1.5605-10.2705-4.2256-2.7949-2.7295-3.835-6.6953-3.835-9.6201,0-4.5498,2.3398-8.5156,5.2002-10.79,2.145-1.8203,5.7197-3.3154,9.1001-3.3154,8.9702,0,13.7808,7.6055,13.8457,13.585ZM255.7075,18.0059c-.6504.7148-2.665,3.6406-2.665,8.5811,0,3.6396,1.2349,8.125,3.8999,10.4004.6499.5195,2.5352,1.7549,4.9399,1.7549,1.5605,0,3.6406-.9102,4.9404-2.5352,1.3652-1.7549,1.7549-4.9404,1.7549-8.7109,0-5.5244-2.9248-11.3096-8.4502-11.3096-1.4302,0-3.5103.8447-4.4199,1.8193Z" fill="#f0f" stroke-width="0"/>
  <path d="M293.9912,15.8613c1.04-.585,3.0552-1.4951,4.4204-2.21.8447-.3906,1.3647-.6504,1.8848-.6504.2603,0,.7803.7148.7803.9102.0649.9102.0649,2.21.1299,3.1846,0,.1953.4551.4551.6499.1953,1.8853-2.0801,4.4854-3.835,7.0205-3.835,1.8848,0,3.5752,1.2998,3.5752,2.0146,0,1.4307-1.6904,3.25-2.6001,3.9658-.3252.3242-.7803.5195-1.04.5195-.4551,0-.8452-.1953-1.4951-.6504-.52-.3896-1.4951-.7793-2.3403-.7793-1.1699,0-2.145.3896-2.9897,1.4951-.2603.3252-.5854,1.1045-.5854,1.4951,0,.6494-.0649,10.0098.1304,12.2852.1948,3.0547.7148,3.7051,3.6401,4.4854,1.4946.3896,2.3398.9102,2.3398,1.4951,0,.5195-.8452,1.1045-1.625,1.1045-2.0151,0-5.3301-.2598-7.2153-.2598-2.2749,0-3.4453.1953-5.2651.1953-1.1699,0-1.7549-.7158-1.7549-1.04,0-.7148.7148-1.1055,1.4946-1.3652,2.5352-.9102,2.7305-1.8848,2.7954-3.3799.1299-2.9258.1948-10.9209.1948-14.3662,0-.3896-.0649-.8447-1.625-1.9502-.7148-.5195-1.4302-1.1045-1.4302-1.4951,0-.585.3901-1.1045.9102-1.3643Z" fill="#f0f" stroke-width="0"/>
  <path d="M347.0962,35.8164c.2603-.1943,1.5601-1.2344,1.7554-3.0547.2598-2.1455.2598-10.0752.2598-13.1953,0-.7148-.52-1.8857-.9751-2.0156-.6499-.2598-1.3647-.585-2.145-.8447-.9097-.3252-1.5601-.8447-1.5601-1.4297,0-.3906.7803-1.04,1.625-1.04,2.5352,0,5.0703-.1299,7.7354-.1953.2603,0,.7153.8447.7153,1.5596,0,2.7959-.0649,16.7715.0649,19.6309.0649,2.2754.9102,2.4707,1.04,2.4707.4551,0,2.665-.3252,3.3149-.3906.1299,0,.52.8457.52,1.1055,0,1.1045-.7148,1.6895-1.105,1.7549-1.625.1953-4.1602.585-5.3301.9102-1.04.2598-2.2104.4551-2.7954.4551-.2598,0-.6499-.6504-.7148-1.1055s-.1299-2.1445-.1948-2.9902c0-.0645-.3252-.4541-.5854-.2598-3.1201,2.2754-6.1099,4.2256-10.1401,4.2256-2.0801,0-4.2251-1.1699-5.1353-2.21-.6499-.6504-1.4951-2.21-1.4951-3.7705v-15.7305c0-.585-.585-1.8848-2.4697-2.8604-.7153-.3896-1.3652-.8447-1.3652-1.4951,0-.9102,1.7549-1.1045,2.0151-1.1045,1.4302,0,5.98-.3252,6.4351-.3252s.6499.7148.6499,2.0801c0,2.7949,0,10.8555.0649,15.4053.0654,3.5107.7153,4.29,1.6255,5.0049.9751.7158,2.6001.8457,3.4448.8457,1.9502,0,4.0952-.9756,4.7451-1.4307Z" fill="#f0f" stroke-width="0"/>
  <path d="M409.5596.9102c2.2749,0,6.8252-.5195,11.3755-.5195,6.2402,0,12.2856,1.2998,17.0957,5.3955,5.46,4.5498,6.6953,10.5947,6.6953,14.625,0,9.9453-6.1753,15.3408-9.6855,17.291-4.6152,2.4697-10.2051,3.4453-15.0156,3.4453-2.665,0-8.5801-.5205-10.6602-.5205s-5.8506.3252-7.2803.3252c-.4551,0-1.04-.3906-1.04-.8457,0-.7148.7798-1.4941,2.4048-1.9492,1.8853-.5205,4.0952-1.1055,4.4204-4.0303.2598-2.9902.4551-6.3057.4551-14.8857,0-8.8408-.1299-12.1553-.3901-13.3252-.1299-.7158-.52-1.8857-4.0303-2.3408-1.5601-.1943-2.3398-.8447-2.3398-1.4297,0-.7148.9751-1.2354,2.665-1.2354h5.3301ZM414.2397,21.0615c0,8.3203.1299,9.4902.3901,11.5049.4551,2.8604,1.625,3.9658,2.21,4.29.7803.4551,3.9004,1.4951,5.9805,1.4951,1.5601,0,7.3452-1.6895,10.27-4.6152,3.0552-3.0547,4.8105-7.4746,4.8105-13.1299,0-4.9404-1.5601-9.4902-4.8755-12.7402-3.0552-2.9902-8.125-4.7461-12.8706-4.7461-.6499,0-3.7051.3252-4.6147.6504-.3252.0654-1.04.9102-1.105,1.2998-.0654,1.6904-.1953,6.7607-.1953,11.6357v4.3555Z" fill="#f0f" stroke-width="0"/>
  <path d="M484.6997,17.3564c.8452,1.2344,1.1055,2.9248,1.1055,4.5498,0,.7148-1.1055,1.9502-1.7554,1.9502-.4551,0-12.8052.1953-13.9756.1953-.1948,0-.9097.3896-1.04.7148-.2598.4551-.3247,1.625-.3247,2.0146,0,5.7852,4.355,10.2061,9.9453,10.2061,2.5352,0,5.3301-1.626,6.5654-2.4707.2598-.1953.7798.1299.7798.8447,0,.7158-.3252,1.4307-.8452,2.0156-2.4048,2.5352-5.8501,4.0303-9.2949,4.0303-8.1255,0-12.7407-5.5254-12.7407-13.4561,0-5.2646,2.4053-9.75,6.3052-12.2852,2.145-1.4297,4.875-2.21,7.6055-2.21,3.1201,0,6.1104,1.3652,7.6699,3.9004ZM469.4893,21.0615c-.0649.2598.2603.6494.3901.6494.7148.0654,2.8604.1299,4.7451.1299,2.4702,0,5.4604-.1299,5.4604-2.3398,0-1.9502-1.5601-3.7051-5.0054-3.7051-1.625,0-4.7451,2.0156-5.5903,5.2656Z" fill="#f0f" stroke-width="0"/>
  <path d="M518.0439,13.9756c.7148.1953,1.4951.3906,2.0801.585.3252.1309,1.04,1.04,1.105,1.3008.1299.3896.1299,2.8594.1299,3.5752,0,.4551-.52,1.8848-1.4297,1.8848-.2603,0-.8452-.585-1.4302-1.7549-1.4302-2.665-3.5752-3.7705-4.9404-3.7705-1.4946,0-3.77,1.4297-3.77,3.835,0,3.1855,2.7949,4.0303,6.1753,5.7852,3.3804,1.7559,6.2402,3.7705,6.2402,7.6055,0,3.7051-2.4053,6.0459-4.875,7.1504-1.8853.9102-3.9653,1.2354-5.5903,1.2354-3.9653,0-5.915-.9102-6.6304-1.625-.6499-.6504-1.2998-3.5107-1.2998-4.6807,0-1.6895.4546-2.1445,1.1699-2.1445.3901,0,.8452.4551,1.6899,1.7549,1.8853,2.9248,4.1602,4.1602,5.915,4.1602,2.9253,0,4.5503-1.9502,4.5503-4.0303,0-1.2354-.7148-2.6006-2.3398-3.6406-1.6899-1.04-3.1851-1.7549-5.1353-2.8594-2.145-1.2354-4.6802-3.25-4.6802-7.0859,0-3.1201,1.7549-4.9395,3.3149-6.1104,1.4951-.9746,4.2251-1.6895,5.6553-1.6895,1.6899,0,3.1851.1953,4.0952.5195Z" fill="#f0f" stroke-width="0"/>
  <path d="M541.5078,15.5361c3.2505-1.1699,5.9155-2.1455,7.0205-2.1455.2598,0,.6499.8457.6499,1.04v11.8955c.0649,8.5156.1948,9.751.2598,10.3359.0654.5195.3252,1.1699,2.6655,1.8193.9097.2607,1.5601.8457,1.5601,1.4951,0,.585-1.04.8457-1.8853.8457-1.3652,0-4.0303-.1953-5.4604-.1953-3.3149,0-4.5498.1953-5.46.1953-1.2998,0-1.9502-.3906-1.9502-.9756s.6504-1.04,1.5601-1.2998c2.8604-.7148,2.9902-1.2354,3.2505-3.9004.1299-1.3652.2598-5.7852.2598-9.4902,0-1.2998,0-4.6797-.0649-5.0703-.0649-.5195-.6499-1.2344-2.5352-2.4697-.4551-.2598-.7148-1.04-.7148-1.2998,0-.3252.4546-.6504.8447-.7803ZM548.333.7803c.7803.9102,1.105,2.1455,1.105,2.665,0,2.6006-2.2749,3.7051-3.4448,3.7051-.9751,0-2.0801-.6494-2.7954-1.4951-.3896-.6494-.6499-1.1045-.6499-1.9492,0-2.1455,1.4951-3.7061,3.77-3.7061.9102,0,1.4951.3252,2.0151.7803Z" fill="#f0f" stroke-width="0"/>
  <path d="M586.7485,14.4307c.8447.2607,1.7549.4551,2.4043.4551.7803,0,6.6953-.0645,7.0859-.0645.5195,0,.9746,1.7549.9746,2.665,0,.6494-.7148,1.1045-.7803,1.1045-1.4297,0-4.2246-.3242-5.6553-.3896.7158,1.2354,1.2354,2.9902,1.2354,4.5498,0,2.9258-1.04,5.3301-3.5098,7.4102-2.0156,1.6904-5.3955,2.6006-8.1904,2.6006-.3896,0-1.3652-.0654-1.7549-.0654-.5205,0-.6504.1309-.9756.3252-.6494.3252-1.4946,1.4307-1.4946,2.0156,0,1.8848,2.145,2.21,2.4702,2.21,3.8994,0,8.5801.2598,10.5947.2598,1.1709,0,3.0557.2598,5.0059,1.8848,1.3652,1.1055,2.5352,3.3809,2.5352,5.4609,0,4.0947-2.8604,7.54-5.6553,9.2949-2.5352,1.4951-5.7207,2.9902-10.9854,2.9902-4.1606,0-11.7007-2.0801-11.7007-8.3203,0-1.04.7148-2.9248,1.3647-3.3799,1.04-.7803,2.9253-2.21,4.0303-3.1855.2603-.1299.3252-.585.1299-.6504-.5195-.1299-1.2349-.3896-1.8848-.9092-.7148-.6504-1.8853-1.7559-1.8853-4.4209,0-.1943.1304-.585.3252-.6494,1.4302-.6504,3.9653-2.5352,4.6152-3.3154.1948-.2598.1948-.5205,0-.585-2.665-1.6904-4.8755-4.0303-4.8755-8.0605,0-3.4453,1.2354-5.5898,3.6401-7.6699,1.3652-1.1055,4.9399-2.5352,7.5405-2.5352,2.3398,0,4.3555.6504,5.3955.9746ZM588.5679,52.457c1.8857-1.1045,3.3154-2.7295,3.251-5.3945-.0654-2.9258-2.4053-4.1602-4.6807-4.5508-1.1699-.1943-3.25-.3896-5.5898-.3896-3.1855,0-5.0703.9102-5.2007.9746-2.145,1.3008-2.73,2.7305-2.73,4.291,0,4.4844,4.875,6.4346,9.4258,6.4346,1.2998,0,4.0293-.3896,5.5244-1.3652ZM575.6978,22.3613c0,5.7197,3.5098,7.7354,6.2402,7.7354,1.4951,0,2.9902-.8447,3.3799-1.3652.4551-.6504,1.4951-2.7949,1.4951-5.6553,0-3.1846-1.6895-7.085-6.3701-7.085-3.25,0-4.7451,3.4453-4.7451,6.3701Z" fill="#f0f" stroke-width="0"/>
  <path d="M615.021,15.4062c1.2354-.585,2.9258-1.1699,4.2256-1.8203.7803-.3896,1.5605-.6504,1.6904-.6504.1943,0,1.1045.2607,1.1045.7803,0,.3252-.0645,2.21-.1299,2.8604-.0654.3252.2598.3252.4551.1953,2.0146-1.3652,5.1348-3.3154,9.2305-3.3154,3.3154,0,5.0049,1.625,5.9805,3.0547,1.04,1.4951,1.8848,4.1602,1.9502,8.6455.0645,3.1855.0645,6.8252.1943,9.751.0654,1.8848.5205,2.4697,1.6904,3.0547,1.4951.585,1.9502,1.2354,1.9502,1.8203,0,.6494-1.04,1.04-1.8857,1.04-.8447,0-2.9248-.1953-4.875-.1953-1.8848,0-3.3145.1953-4.0947.1953-.8457,0-1.7549-.1953-1.7549-1.04,0-.3906.3242-.9102,1.4297-1.3652,1.625-.585,2.0801-1.1699,2.1445-2.7949.0654-3.1855.0654-5.9805.0654-8.8408,0-4.875-.585-6.8252-1.2354-7.6699-.6494-.8447-1.9492-1.7549-4.6152-1.7549-2.4697,0-4.3545.585-5.5898,1.4297-.1299.1299-.7803.8447-.7803,1.625v15.0811c0,.9746-.0645,1.7549,2.5352,2.7295,1.1699.4551,1.6904,1.04,1.6904,1.5605,0,.5195-.6504,1.04-1.8203,1.04-2.1445,0-4.0947-.1953-5.6553-.1953-2.0146,0-4.0947.1953-5.1348.1953-1.1699,0-1.8857-.3252-1.8857-.9756,0-.6494.7803-1.1699,1.4307-1.3652,2.8604-.9092,3.25-1.6895,3.3154-3.1201.1943-3.1201.3896-7.9951.3896-14.625,0-1.04-.6504-1.7549-2.2754-2.7305-.7803-.585-.9102-.8447-.9102-.9746,0-.4551.585-1.3652,1.1699-1.625Z" fill="#f0f" stroke-width="0"/>
</svg>