<svg id="bda0a463-df81-4f13-bf61-9298b131630b" data-name="レイヤー 1" xmlns="http://www.w3.org/2000/svg" width="215.9772" height="178.0876" viewBox="0 0 215.9772 178.0876">
  <path d="M14.8617,172.3767H11.4623l-5.2256-9.4209L2.9692,166.364v6.0127H.0307V152.9714H2.9692v10.0078l7.956-10.0078h3.4712l-6.311,7.76Z" style="fill: #f0f"/>
  <path d="M31.3012,165.4187q0,5.017-4.2969,6.709a7.064,7.064,0,0,1-2.6059.5263,7.1962,7.1962,0,0,1-2.5645-.5127,6.984,6.984,0,0,1-2.2314-1.3174,6.9791,6.9791,0,0,1-2.107-5.4052v-5.4893q0-5.017,4.2969-6.709a7.0624,7.0624,0,0,1,2.606-.5263,7.2,7.2,0,0,1,2.5644.5127,7.0137,7.0137,0,0,1,2.2315,1.3173,6.9828,6.9828,0,0,1,2.1069,5.4053Zm-2.9385.166v-5.8213a4.5036,4.5036,0,0,0-1.0674-3.0771,3.6517,3.6517,0,0,0-2.8969-1.22,3.6511,3.6511,0,0,0-2.897,1.22,4.5041,4.5041,0,0,0-1.0674,3.0771v5.8213a4.4662,4.4662,0,0,0,1.0811,3.0771,3.6615,3.6615,0,0,0,2.8833,1.22,3.6517,3.6517,0,0,0,2.8969-1.22A4.502,4.502,0,0,0,28.3627,165.5847Z" style="fill: #f0f"/>
  <path d="M52.2592,172.3767H49.3207V160.0681L45.19,169.6042H42.6674l-4.1309-9.5351v12.3076H35.5981V152.9714h2.6738l5.625,12.6367H43.96l5.625-12.6367h2.6738Z" style="fill: #f0f"/>
  <path d="M59.6327,172.3767H56.6943V152.9714h2.9384Z" style="fill: #f0f"/>
  <path d="M78.29,172.3767h-2.772l-8.5107-13.9434v13.9434H64.0683V152.9714h2.7876l8.4951,13.918v-13.918H78.29Z" style="fill: #f0f"/>
  <path d="M96.392,165.4187q0,5.017-4.2969,6.709a7.064,7.064,0,0,1-2.6059.5263,7.1962,7.1962,0,0,1-2.5645-.5127,6.4767,6.4767,0,0,1-4.3384-6.7226v-5.4893q0-5.017,4.2969-6.709a7.0624,7.0624,0,0,1,2.606-.5263,7.2,7.2,0,0,1,2.5644.5127,6.4761,6.4761,0,0,1,4.3384,6.7226Zm-2.9385.166v-5.8213a4.5036,4.5036,0,0,0-1.0674-3.0771,4.05,4.05,0,0,0-5.7939,0,4.5041,4.5041,0,0,0-1.0674,3.0771v5.8213a4.4667,4.4667,0,0,0,1.0811,3.0771,4.0337,4.0337,0,0,0,5.78,0A4.502,4.502,0,0,0,93.4535,165.5847Z" style="fill: #f0f"/>
  <path d="M115.2983,172.3767h-3.7149l-4.1582-8.2061h-3.7978v8.2061h-2.9385V152.9714h7.7622a6.4406,6.4406,0,0,1,4.3662,1.4971,5.107,5.107,0,0,1,1.7324,4.0752,5.24,5.24,0,0,1-1.5522,3.9082,5.3452,5.3452,0,0,1-2.4116,1.3037Zm-3.6871-13.8057a2.7046,2.7046,0,0,0-.8872-2.1142,3.1945,3.1945,0,0,0-2.2177-.7969h-4.8789v5.8223h4.8515a3.2158,3.2158,0,0,0,2.2315-.8106A2.6924,2.6924,0,0,0,111.6112,158.571Z" style="fill: #f0f"/>
  <path d="M132.3471,165.696a6.7848,6.7848,0,0,1-1.9541,4.9893,6.9586,6.9586,0,0,1-11.9068-4.9893V152.9714h2.9385v12.8633a3.9636,3.9636,0,0,0,1.1367,2.8828,3.8223,3.8223,0,0,0,2.8555,1.1641,3.8785,3.8785,0,0,0,2.9107-1.1084,4.0294,4.0294,0,0,0,1.081-2.9385V152.9714h2.9385Z" style="fill: #f0f"/>
  <path d="M153.2768,172.3767h-2.6612V170.88a4.2222,4.2222,0,0,1-3.604,1.7188,4.611,4.611,0,0,1-2.8-.8321,4.0308,4.0308,0,0,1-1.6079-2.4111,10.69,10.69,0,0,1-.1938-2.3848v-2.0791q0-6.3193,4.38-6.32a5.0522,5.0522,0,0,1,2.4394.5547,6.4722,6.4722,0,0,1,1.3862,1.1084v-7.0967h2.6612Zm-2.6612-6.29v-1.0039q0-3.8217-2.7719-3.8222t-2.7725,3.8222v1.0039q0,3.8234,2.7725,3.8233T150.6156,166.0866Z" style="fill: #f0f"/>
  <path d="M167.1381,166.5554H158.6v.2471a3.0075,3.0075,0,0,0,.8731,2.2548,3.1351,3.1351,0,0,0,2.2871.8526,4.2883,4.2883,0,0,0,3.105-1.2754l1.9682,1.6631a6.0517,6.0517,0,0,1-4.9624,2.3008,5.4582,5.4582,0,0,1-4.5737-1.94,7.7835,7.7835,0,0,1-1.3862-4.9072,8.6454,8.6454,0,0,1,1.3027-4.9619,4.95,4.95,0,0,1,4.38-2.2178,4.8929,4.8929,0,0,1,4.3247,2.0518,8.2048,8.2048,0,0,1,1.22,4.7676Zm-2.6616-2.2461a3.3867,3.3867,0,0,0-.7486-2.3008,2.5865,2.5865,0,0,0-2.1069-.9424,2.6919,2.6919,0,0,0-2.1758.9014,3.8589,3.8589,0,0,0-.8457,2.3418Z" style="fill: #f0f"/>
  <path d="M181.0541,168.1355a3.8984,3.8984,0,0,1-1.7466,3.3818,6.3528,6.3528,0,0,1-3.77,1.0811,8.2446,8.2446,0,0,1-6.0434-2.5225l1.9126-1.83a6.6644,6.6644,0,0,0,4.4633,1.8574,3.4143,3.4143,0,0,0,1.691-.3876,1.5061,1.5061,0,0,0,.832-1.3868,1.2747,1.2747,0,0,0-.9429-1.247,7.5409,7.5409,0,0,0-1.6909-.2774q-1.47-.1377-2.1621-.2773a3.478,3.478,0,0,1-3.1328-3.6865,3.7871,3.7871,0,0,1,1.497-3.2442,5.6143,5.6143,0,0,1,3.52-1.0254,7.541,7.541,0,0,1,5.3506,1.8574l-1.7187,1.94a5.8783,5.8783,0,0,0-3.6592-1.3028q-2.329,0-2.3291,1.6914a1.1185,1.1185,0,0,0,.6934,1.0254,6.7648,6.7648,0,0,0,2.19.416,8.4973,8.4973,0,0,1,3.52.9151A3.284,3.284,0,0,1,181.0541,168.1355Z" style="fill: #f0f"/>
  <path d="M186.8481,155.9929h-2.6612v-2.6895h2.6612Zm0,16.3838h-2.6612v-13.584h2.6612Z" style="fill: #f0f"/>
  <path d="M201.4018,171.1843q0,6.9038-5.7661,6.9033a6.1028,6.1028,0,0,1-4.9068-2.2461l2.1065-1.7187a3.9289,3.9289,0,0,0,2.7724,1.2754q3.1326,0,3.1323-3.333V170.907a4.44,4.44,0,0,1-3.6035,1.6914,4.1233,4.1233,0,0,1-3.521-1.6358,6.2194,6.2194,0,0,1-1.081-3.8252v-2.9668a6.5759,6.5759,0,0,1,1.081-3.9365,4.2322,4.2322,0,0,1,3.604-1.6631,4.2856,4.2856,0,0,1,3.52,1.6631v-1.4414h2.6617Zm-2.6617-4.4551v-2.4a3.3,3.3,0,0,0-.7343-2.1894,2.5112,2.5112,0,0,0-2.0376-.8789,2.6773,2.6773,0,0,0-1.982.7949,2.7153,2.7153,0,0,0-.79,1.9951V167.12a2.7146,2.7146,0,0,0,.79,1.9942,2.6781,2.6781,0,0,0,1.982.7959,2.5641,2.5641,0,0,0,2.1069-.9209A3.6051,3.6051,0,0,0,198.74,166.7292Z" style="fill: #f0f"/>
  <path d="M215.9,172.3767h-2.6616v-8.1856a3.1268,3.1268,0,0,0-.7066-2.1015,2.4318,2.4318,0,0,0-1.9545-.8291,2.4911,2.4911,0,0,0-1.899.8154,2.789,2.789,0,0,0-.7622,1.9775v8.3233h-2.6616v-13.584h2.6616v1.3867a4.4112,4.4112,0,0,1,3.4375-1.6084,4.1567,4.1567,0,0,1,3.3819,1.47,5.3035,5.3035,0,0,1,1.1645,3.5762Z" style="fill: #f0f"/>
  <rect x="41.9154" y="-38.6939" width="132.1464" height="212.7557" transform="translate(175.6726 -40.3047) rotate(90)" style="fill: none;stroke: #f0f;stroke-miterlimit: 10;stroke-width: 3.22147464752197px"/>
  <polyline points="1.611 133.757 133.278 2.09 133.278 133.757" style="fill: none;stroke: #f0f;stroke-linejoin: bevel;stroke-width: 3.22147464752197px"/>
  <line x1="1.6107" y1="133.7572" x2="133.2781" y2="2.0898" style="fill: none;stroke: #f0f;stroke-linejoin: bevel;stroke-width: 3.22147464752197px"/>
</svg>
