<svg id="a8cd2ffd-e2a7-4613-a5a6-881d58c66669" data-name="レイヤー 1" xmlns="http://www.w3.org/2000/svg" width="215.8696" height="25.3936" viewBox="0 0 215.8696 25.3936">
  <path d="M14.8311,19.6826H11.4316L6.2061,10.2617,2.9385,13.67v6.0127H0V.2773H2.9385V10.2852L10.8945.2773h3.4712l-6.311,7.76Z" style="fill: #f0f"/>
  <path d="M31.2705,12.7246q0,5.017-4.2969,6.709a7.0621,7.0621,0,0,1-2.6059.5264,7.1962,7.1962,0,0,1-2.5645-.5127A6.9858,6.9858,0,0,1,19.5718,18.13a6.9793,6.9793,0,0,1-2.107-5.4053V7.2354q0-5.0172,4.2969-6.709A7.0626,7.0626,0,0,1,24.3677,0a7.2,7.2,0,0,1,2.5644.5127A7.0138,7.0138,0,0,1,29.1636,1.83a6.9823,6.9823,0,0,1,2.1069,5.4053Zm-2.9385.166V7.0693a4.5039,4.5039,0,0,0-1.0674-3.0771,3.6516,3.6516,0,0,0-2.8969-1.22,3.651,3.651,0,0,0-2.897,1.22,4.5044,4.5044,0,0,0-1.0674,3.0771v5.8213a4.4669,4.4669,0,0,0,1.0811,3.0772,3.6619,3.6619,0,0,0,2.8833,1.22,3.652,3.652,0,0,0,2.8969-1.22A4.5023,4.5023,0,0,0,28.332,12.8906Z" style="fill: #f0f"/>
  <path d="M52.2285,19.6826H49.29V7.374L45.1592,16.91H42.6367L38.5059,7.375V19.6826H35.5674V.2773h2.6738l5.625,12.6368H43.93L49.5547.2773h2.6738Z" style="fill: #f0f"/>
  <path d="M59.6021,19.6826H56.6636V.2773h2.9385Z" style="fill: #f0f"/>
  <path d="M78.2588,19.6826h-2.772L66.9761,5.7393V19.6826H64.0376V.2773h2.7876L75.32,14.1953V.2773h2.9385Z" style="fill: #f0f"/>
  <path d="M96.3613,12.7246q0,5.017-4.2968,6.709a7.063,7.063,0,0,1-2.606.5264,7.1962,7.1962,0,0,1-2.5645-.5127A6.9869,6.9869,0,0,1,84.6626,18.13a6.9792,6.9792,0,0,1-2.1069-5.4053V7.2354q0-5.0172,4.2968-6.709A7.0626,7.0626,0,0,1,89.4585,0a7.2,7.2,0,0,1,2.5644.5127A7.0138,7.0138,0,0,1,94.2544,1.83a6.9823,6.9823,0,0,1,2.1069,5.4053Zm-2.9384.166V7.0693a4.5044,4.5044,0,0,0-1.0674-3.0771,4.05,4.05,0,0,0-5.794,0,4.5044,4.5044,0,0,0-1.0674,3.0771v5.8213a4.4669,4.4669,0,0,0,1.0811,3.0772,4.034,4.034,0,0,0,5.78,0A4.5028,4.5028,0,0,0,93.4229,12.8906Z" style="fill: #f0f"/>
  <path d="M115.2676,19.6826h-3.7149l-4.1582-8.206h-3.7978v8.206h-2.9385V.2773H108.42a6.4411,6.4411,0,0,1,4.3662,1.4971A5.1073,5.1073,0,0,1,114.519,5.85a5.2391,5.2391,0,0,1-1.5522,3.9082,5.3443,5.3443,0,0,1-2.4116,1.3037ZM111.5806,5.877a2.7046,2.7046,0,0,0-.8872-2.1143,3.1947,3.1947,0,0,0-2.2178-.7969h-4.8789V8.7881h4.8515a3.2152,3.2152,0,0,0,2.2315-.8106A2.6922,2.6922,0,0,0,111.5806,5.877Z" style="fill: #f0f"/>
  <path d="M132.3164,13.002a6.7848,6.7848,0,0,1-1.9541,4.9892,6.9584,6.9584,0,0,1-11.9067-4.9892V.2773h2.9384V13.1406a3.9635,3.9635,0,0,0,1.1368,2.8828,3.8219,3.8219,0,0,0,2.8554,1.1641,3.8778,3.8778,0,0,0,2.9107-1.1084,4.0292,4.0292,0,0,0,1.081-2.9385V.2773h2.9385Z" style="fill: #f0f"/>
  <path d="M153.2461,19.6826H150.585V18.1855a4.2223,4.2223,0,0,1-3.604,1.7188,4.6109,4.6109,0,0,1-2.8-.832,4.031,4.031,0,0,1-1.608-2.4112,10.69,10.69,0,0,1-.1938-2.3847V12.1973q0-6.3193,4.38-6.32a5.0522,5.0522,0,0,1,2.4394.5546A6.4749,6.4749,0,0,1,150.585,7.54V.4434h2.6611Zm-2.6611-6.29V12.3887q0-3.8219-2.772-3.8223t-2.7725,3.8223v1.0039q0,3.8232,2.7725,3.8232T150.585,13.3926Z" style="fill: #f0f"/>
  <path d="M167.1074,13.8613h-8.5386v.2471a3.0083,3.0083,0,0,0,.8731,2.2549,3.1354,3.1354,0,0,0,2.2871.8525,4.2883,4.2883,0,0,0,3.105-1.2754l1.9682,1.6631a6.0514,6.0514,0,0,1-4.9624,2.3008,5.4584,5.4584,0,0,1-4.5737-1.94,7.784,7.784,0,0,1-1.3862-4.9073,8.6461,8.6461,0,0,1,1.3027-4.9619,4.95,4.95,0,0,1,4.38-2.2177,4.8929,4.8929,0,0,1,4.3247,2.0517,8.205,8.205,0,0,1,1.22,4.7676Zm-2.6616-2.2461a3.3866,3.3866,0,0,0-.7485-2.3007,2.5865,2.5865,0,0,0-2.107-.9424,2.692,2.692,0,0,0-2.1757.9013,3.8589,3.8589,0,0,0-.8458,2.3418Z" style="fill: #f0f"/>
  <path d="M181.0234,15.4414a3.8984,3.8984,0,0,1-1.7465,3.3818,6.3532,6.3532,0,0,1-3.77,1.0811,8.2444,8.2444,0,0,1-6.0434-2.5225l1.9126-1.83a6.6651,6.6651,0,0,0,4.4634,1.8574,3.4128,3.4128,0,0,0,1.6909-.3877,1.5059,1.5059,0,0,0,.832-1.3867,1.2746,1.2746,0,0,0-.9429-1.2471,7.5474,7.5474,0,0,0-1.6909-.2773q-1.47-.1377-2.1621-.2774a3.478,3.478,0,0,1-3.1328-3.6865,3.7871,3.7871,0,0,1,1.4971-3.2442,5.6147,5.6147,0,0,1,3.52-1.0253,7.5409,7.5409,0,0,1,5.3506,1.8574l-1.7188,1.94a5.878,5.878,0,0,0-3.6592-1.3027q-2.329,0-2.3291,1.6914a1.1187,1.1187,0,0,0,.6934,1.0254,6.7711,6.7711,0,0,0,2.19.416,8.496,8.496,0,0,1,3.52.915A3.2841,3.2841,0,0,1,181.0234,15.4414Z" style="fill: #f0f"/>
  <path d="M186.8174,3.2988h-2.6612V.6094h2.6612Zm0,16.3838h-2.6612V6.0986h2.6612Z" style="fill: #f0f"/>
  <path d="M201.3711,18.49q0,6.9039-5.7661,6.9034a6.1031,6.1031,0,0,1-4.9068-2.2461l2.1065-1.7188a3.9291,3.9291,0,0,0,2.7724,1.2754q3.1326,0,3.1324-3.333V18.2129a4.44,4.44,0,0,1-3.6035,1.6914,4.1229,4.1229,0,0,1-3.521-1.6357,6.22,6.22,0,0,1-1.0811-3.8252V11.4766A6.576,6.576,0,0,1,191.585,7.54a4.232,4.232,0,0,1,3.604-1.663,4.2857,4.2857,0,0,1,3.52,1.663V6.0986h2.6616Zm-2.6616-4.455v-2.4a3.3,3.3,0,0,0-.7344-2.19,2.5112,2.5112,0,0,0-2.0376-.8789,2.6773,2.6773,0,0,0-1.9819.7949,2.715,2.715,0,0,0-.79,1.9951v3.0694a2.7142,2.7142,0,0,0,.79,1.9941,2.6778,2.6778,0,0,0,1.9819.7959,2.5641,2.5641,0,0,0,2.1069-.9209A3.6048,3.6048,0,0,0,198.71,14.0352Z" style="fill: #f0f"/>
  <path d="M215.87,19.6826H213.208V11.4971a3.1268,3.1268,0,0,0-.7065-2.1016,2.4324,2.4324,0,0,0-1.9546-.8291,2.4914,2.4914,0,0,0-1.899.8154,2.79,2.79,0,0,0-.7622,1.9776v8.3232h-2.6616V6.0986h2.6616V7.4854a4.4108,4.4108,0,0,1,3.4375-1.6084,4.1564,4.1564,0,0,1,3.3819,1.47,5.3033,5.3033,0,0,1,1.1645,3.5762Z" style="fill: #f0f"/>
</svg>
